<svg width="40" height="40" viewBox="0 0 50 50" fill="none" xmlns="http://www.w3.org/2000/svg">
  <path d="M24.9199 49.2871C38.377 49.2871 49.5234 38.1406 49.5234 24.6582C49.5234 11.2012 38.3516 0.0546875 24.8945 0.0546875C11.4375 0.0546875 0.291016 11.2012 0.291016 24.6582C0.291016 38.1406 11.4629 49.2871 24.9199 49.2871ZM18.2676 35.4238C13.9766 35.4238 11.1074 31.3867 11.1074 24.6582C11.1074 17.9297 13.9766 13.8926 18.2676 13.8926C22.5586 13.8926 25.4531 17.9297 25.4531 24.6582C25.4531 31.3867 22.5586 35.4238 18.2676 35.4238ZM35.6602 35.1699C34.6699 35.1699 34.0352 34.5098 34.0352 33.4688V18.1582H33.9082L31.3184 20.0879C30.7344 20.5703 30.4805 20.5957 30.0488 20.5957C29.2871 20.5957 28.5762 19.9355 28.5762 19.0469C28.5762 18.3867 28.8809 17.9043 29.4395 17.5234L33.1973 14.9336C34.0859 14.2734 34.6191 14.0195 35.457 14.0195C36.5488 14.0195 37.3105 14.8066 37.3105 15.9492V33.4688C37.3105 34.5098 36.6758 35.1699 35.6602 35.1699ZM18.2676 32.2754C20.6035 32.2754 22.0254 29.4062 22.0254 24.6582C22.0254 19.9102 20.5781 17.041 18.2676 17.041C15.9824 17.041 14.5352 19.9102 14.5352 24.6582C14.5352 29.4062 15.9824 32.2754 18.2676 32.2754Z" fill="white" fill-opacity="0.2"/>
</svg>
