<svg width="40" height="40" viewBox="0 0 50 50" fill="none" xmlns="http://www.w3.org/2000/svg">
  <path d="M24.8945 49.2871C38.377 49.2871 49.5234 38.1406 49.5234 24.6582C49.5234 11.2012 38.3516 0.0546875 24.8945 0.0546875C11.4121 0.0546875 0.291016 11.2012 0.291016 24.6582C0.291016 38.1406 11.4375 49.2871 24.8945 49.2871ZM28.9824 35.6523C27.9668 35.6523 27.332 34.9922 27.332 34.002C27.332 33.4434 27.5352 32.9355 27.9922 32.4277L35.0254 24.252C36.3457 22.7539 37.6914 21.2305 37.6914 19.5039C37.6914 17.5234 36.3203 16.2285 34.2129 16.2285C32.3086 16.2285 31.0137 17.2188 30.3535 19.1738C30.0234 19.9863 29.5664 20.4688 28.7539 20.4688C27.8145 20.4688 27.2051 19.7832 27.2051 18.8184C27.2051 18.4629 27.2559 18.1582 27.3574 17.8027C28.1445 15.0605 30.8867 13.0039 34.0859 13.0039C38.3262 13.0039 41.043 15.4414 41.043 19.1992C41.043 21.8398 39.5957 23.8457 37.5898 26.1562L32.3594 32.1484V32.3516H40.0527C40.9668 32.3516 41.627 32.9355 41.627 33.9766C41.627 34.9922 40.9668 35.6523 40.0527 35.6523H28.9824ZM16.3125 36.2109C11.5391 36.2109 8.39062 31.6914 8.39062 24.6582C8.39062 17.5488 11.5391 13.0547 16.3125 13.0547C21.0859 13.0547 24.209 17.5488 24.209 24.6582C24.209 31.6914 21.0859 36.2109 16.3125 36.2109ZM16.3125 32.834C18.9277 32.834 20.5781 29.7617 20.5781 24.6582C20.5781 19.4785 18.9531 16.4062 16.3125 16.4062C13.6465 16.4062 12.0469 19.4785 12.0469 24.6582C12.0469 29.7617 13.6719 32.834 16.3125 32.834Z" fill="white" fill-opacity="0.2"/>
</svg>
