<svg width="40" height="40" viewBox="0 0 50 50" fill="none" xmlns="http://www.w3.org/2000/svg">
  <path d="M24.8945 49.2617C38.377 49.2617 49.5234 38.1152 49.5234 24.6328C49.5234 11.1758 38.3516 0.0292969 24.8945 0.0292969C11.4121 0.0292969 0.291016 11.1758 0.291016 24.6328C0.291016 38.1152 11.4375 49.2617 24.8945 49.2617ZM16.5664 36.1855C11.793 36.1855 8.64453 31.666 8.64453 24.6328C8.64453 17.5234 11.793 13.0039 16.5664 13.0039C21.3398 13.0039 24.4883 17.5234 24.4883 24.6328C24.4883 31.666 21.3398 36.1855 16.5664 36.1855ZM34.1621 36.1855C30.5312 36.1855 27.6113 34.002 26.9512 31.5137C26.8496 31.1836 26.7988 30.8789 26.7988 30.5234C26.7988 29.5332 27.5098 28.8477 28.3984 28.8477C29.1855 28.8477 29.6172 29.2539 29.9727 30.1172C30.6328 31.9199 32.0801 32.9863 34.1875 32.9863C36.6758 32.9863 38.4277 31.4375 38.4277 29.4062C38.4277 27.2734 36.8281 25.9023 34.3398 25.9023H32.8672C31.9531 25.9023 31.3438 25.1914 31.3438 24.252C31.3438 23.2871 31.9531 22.6523 32.8672 22.6523H34.2383C36.3203 22.6523 37.793 21.2559 37.793 19.3262C37.793 17.498 36.3457 16.2031 34.2383 16.2031C32.2324 16.2031 30.9375 17.2188 30.3789 19.0723C30.0742 19.9102 29.6172 20.3418 28.8047 20.3418C27.8652 20.3418 27.2305 19.6816 27.2305 18.666C27.2305 18.3359 27.2559 18.0312 27.332 17.6758C27.916 15.1113 30.6836 13.0039 34.3145 13.0039C38.377 13.0039 41.1953 15.4414 41.1953 18.8945C41.1953 21.3828 39.4941 23.6172 37.2344 23.998V24.1758C39.9512 24.4551 41.9316 26.7402 41.9316 29.5586C41.9316 33.4434 38.7578 36.1855 34.1621 36.1855ZM16.5664 32.8086C19.207 32.8086 20.832 29.7363 20.832 24.6328C20.832 19.4531 19.2324 16.3809 16.5664 16.3809C13.9258 16.3809 12.3008 19.4531 12.3008 24.6328C12.3008 29.7363 13.9512 32.8086 16.5664 32.8086Z" fill="white" fill-opacity="0.2"/>
</svg>
