<svg width="40" height="40" viewBox="0 0 50 50" fill="none" xmlns="http://www.w3.org/2000/svg">
  <path d="M24.9199 49.2871C38.377 49.2871 49.5234 38.1406 49.5234 24.6582C49.5234 11.2012 38.3516 0.0546875 24.8945 0.0546875C11.4375 0.0546875 0.291016 11.2012 0.291016 24.6582C0.291016 38.1406 11.4629 49.2871 24.9199 49.2871ZM16.2871 35.4238C11.9707 35.4238 9.12695 31.3867 9.12695 24.6582C9.12695 17.9297 11.9707 13.8926 16.2871 13.8926C20.5781 13.8926 23.4473 17.9297 23.4473 24.6582C23.4473 31.3867 20.5781 35.4238 16.2871 35.4238ZM36.9043 35.3984C35.9141 35.3984 35.3555 34.6621 35.3555 33.6719V30.8027H28.2207C26.9004 30.8027 25.9863 29.9902 25.9863 28.5938C25.9863 27.8828 26.1387 27.2988 26.5449 26.5117C28.1953 23.5664 30.6582 19.3262 32.6641 15.873C33.502 14.4512 34.416 13.8926 35.9395 13.8926C37.4629 13.8926 38.5039 14.8574 38.5039 16.3555V27.8828H39.7988C40.6875 27.8828 41.2461 28.4414 41.2461 29.3555C41.2461 30.2695 40.6875 30.8027 39.7988 30.8027H38.5039V33.6719C38.5039 34.6875 37.9453 35.3984 36.9043 35.3984ZM16.2871 32.2754C18.5977 32.2754 20.0195 29.4062 20.0195 24.6582C20.0195 19.9102 18.5723 17.041 16.2871 17.041C14.002 17.041 12.5547 19.9102 12.5547 24.6582C12.5547 29.4062 14.002 32.2754 16.2871 32.2754ZM35.3555 27.9082V17.3711H35.2031C33.2988 20.6719 30.7852 25.0137 29.3633 27.7812V27.9082H35.3555Z" fill="white" fill-opacity="0.2"/>
</svg>
