<svg width="40" height="40" viewBox="0 0 50 50" fill="none" xmlns="http://www.w3.org/2000/svg">
  <path d="M24.9199 49.2871C38.377 49.2871 49.5234 38.1406 49.5234 24.6582C49.5234 11.2012 38.3516 0.0546875 24.8945 0.0546875C11.4375 0.0546875 0.291016 11.2012 0.291016 24.6582C0.291016 38.1406 11.4629 49.2871 24.9199 49.2871ZM16.4648 35.4238C12.1484 35.4238 9.2793 31.3867 9.2793 24.6582C9.2793 17.9297 12.1484 13.8926 16.4648 13.8926C20.7305 13.8926 23.625 17.9297 23.625 24.6582C23.625 31.3867 20.7305 35.4238 16.4648 35.4238ZM33.375 35.4238C30.2266 35.4238 27.7637 33.7734 27.0273 31.7422C26.9004 31.3867 26.8242 31.0059 26.8242 30.5742C26.8242 29.7109 27.4082 29.0762 28.2715 29.0762C28.8809 29.0762 29.3633 29.4316 29.7441 30.168C30.4551 31.6152 31.877 32.4785 33.5273 32.4785C35.8887 32.4785 37.4883 30.9551 37.4883 28.3906C37.4883 26.1562 36.041 24.4551 33.9082 24.4551C32.8164 24.4551 32.0547 24.8105 31.0137 25.6992C30.252 26.334 29.7695 26.5371 28.957 26.5371C27.7891 26.5371 27.0781 25.6738 27.1543 24.3281L27.7637 16.584C27.8398 15.2129 28.7285 14.4004 30.0488 14.4004H38.6055C39.3926 14.4004 39.9258 14.9844 39.9258 15.8477C39.9258 16.7109 39.3672 17.3203 38.6055 17.3203H30.4805L29.998 23.6172H30.0996C30.8613 22.5 32.6387 21.6621 34.3145 21.6621C38.123 21.6621 40.7383 24.4551 40.7383 28.3145C40.7383 32.7324 37.793 35.4238 33.375 35.4238ZM16.4648 32.2754C18.7754 32.2754 20.1973 29.4062 20.1973 24.6582C20.1973 19.9102 18.75 17.041 16.4648 17.041C14.1543 17.041 12.707 19.9102 12.707 24.6582C12.707 29.4062 14.1543 32.2754 16.4648 32.2754Z" fill="white" fill-opacity="0.2"/>
</svg>
