<svg width="156" height="156" viewBox="0 0 156 156" fill="none" xmlns="http://www.w3.org/2000/svg">
<mask id="mask0_2254_21719" style="mask-type:alpha" maskUnits="userSpaceOnUse" x="-4" y="-4" width="165" height="165">
<rect x="-3.81934" y="-3.99951" width="164" height="164" fill="white"/>
</mask>
<g mask="url(#mask0_2254_21719)">
<path d="M78.1826 194.007L78.1826 -37.9931L79.6826 -37.9931L79.6826 194.007L78.1826 194.007Z" fill="#84E185"/>
<path d="M-37.8174 78.0068L194.183 78.0068V79.5068L-37.8174 79.5068V78.0068Z" fill="#84E185"/>
<path d="M-3.81738 160.007L160.231 -4.04193L161.292 -2.98127L-2.75672 161.067L-3.81738 160.007Z" fill="#84E185"/>
<path d="M-2.81738 -3.99316L161.231 160.056L160.171 161.116L-3.87804 -2.9325L-2.81738 -3.99316Z" fill="#84E185"/>
<path d="M121.183 185.007L34.2739 -30.0998L35.6647 -30.6617L122.573 184.445L121.183 185.007Z" fill="#84E185"/>
<path d="M-29.8174 121.007L185.289 34.0981L185.851 35.4889L-29.2555 122.398L-29.8174 121.007Z" fill="#84E185"/>
<path d="M32.1826 185.007L122.832 -28.5503L124.213 -27.9642L33.5634 185.593L32.1826 185.007Z" fill="#84E185"/>
<path d="M-28.8174 32.0068L184.74 122.656L184.154 124.037L-29.4035 33.3876L-28.8174 32.0068Z" fill="#84E185"/>
</g>
<rect x="46.1816" y="46.001" width="64" height="64" fill="#14111D"/>
</svg>
