<svg width="93" height="24" viewBox="0 0 93 24" xmlns="http://www.w3.org/2000/svg"><title>aetna</title><path d="M89.128 6.393c0 .322.235.449.526.449.32 0 .44-.159.44-.317 0-.161-.088-.226-.172-.258-.145-.056-.334-.094-.62-.173-.354-.097-.46-.314-.46-.53 0-.42.385-.617.76-.617.433 0 .797.232.797.669h-.364c-.017-.27-.197-.37-.447-.37-.17 0-.382.062-.382.273 0 .147.1.229.247.27.033.009.492.129.6.161a.554.554 0 0 1 .404.534c0 .47-.413.657-.826.657-.474 0-.858-.229-.867-.748h.364zm1.67-1.396h.512l.573 1.64h.006l.558-1.64h.507v2.094h-.347V5.475h-.005l-.577 1.616h-.3l-.576-1.616h-.005v1.616h-.346V4.997zm-40.746 14.37l.253 4.125c-.483.141-1.947.43-3.936.43-4.083 0-6.259-1.733-6.259-5.964 0-3.314.064-6.951.095-8.943H38.09c.036-.9-.014-2.184 0-3.128 3.176-.531 4.179-2.333 4.643-5.84h3.494c-.123 1.444-.23 3.54-.233 4.96h3.71v4.01h-3.77v7.215c0 2.797.562 3.56 2.47 3.56.591 0 1.294-.185 1.65-.424zm19.498-4.479c0-1.568.03-3.654.03-3.654 0-4.693-2.042-6.8-7.813-6.8-3.24 0-5.548.572-9.166.572.201 3.295.21 7.365.194 9.882.016 2.565-.084 7.156-.194 8.635h6.201c-.142-1.484-.266-5.755-.25-8.635 0-1.64.022-3.624.085-6.289a6.979 6.979 0 0 1 2.253-.372c2.172 0 2.87 1.027 2.87 3.847 0 0 .033 1.77.033 2.814 0 2.565-.085 7.156-.196 8.635H69.8c-.143-1.484-.267-5.755-.25-8.635zm-41.466.825c-.666 0-1.8-.02-2.37-.048v.128c0 2.653 1.726 4.337 4.926 4.337a9.976 9.976 0 0 0 4.95-1.344l.222 4.147c-1.27.6-3.702 1.013-6.104 1.013-6.5 0-9.626-2.245-10.168-8.322a83.599 83.599 0 0 0-3.383-.087c-.041 1.067-.08 2.011-.08 2.8 0 1.494.009 3.672.268 5.186-3.561 0-6.322.399-9.126.399-5.307 0-7.173-2.221-7.173-6 0-3.666 2.996-5.643 9.477-5.643.251 0 .708.005.888.01l.004-.387c0-2.596-.79-3.675-3.393-3.675-1.849 0-3.791.669-5.092 1.368l-.22-4.143c1.494-.613 3.945-1.033 6.726-1.033 5.683 0 7.818 1.882 7.818 7.077 0 .286-.003.567-.006.845 1.388.006 2.4.03 3.33.089.575-5.125 3.12-7.988 9.478-7.988 5.254 0 7.667 2.23 7.667 5.58 0 3.886-2.931 5.69-8.64 5.69zM10.364 20.1c-.09-1.26-.055-3.075-.042-4.628-.216-.023-.52-.016-.769-.016-2.7 0-3.77.914-3.77 2.522 0 1.665.843 2.329 2.82 2.329.6 0 1.293-.08 1.761-.207zm17.023-7.542c2.496 0 3.691-.845 3.691-2.656 0-1.287-.867-1.996-2.21-1.996-2.364 0-3.185 1.906-3.185 4.509v.095c.467.037 1.103.048 1.704.048zm60.839 10.965c-3.562 0-6.323.399-9.125.399-5.308 0-7.173-2.221-7.173-6 0-3.666 2.994-5.643 9.476-5.643.251 0 .708.005.889.01l.003-.387c0-2.596-.79-3.675-3.393-3.675-1.849 0-3.791.669-5.092 1.368l-.22-4.143c1.495-.613 3.946-1.033 6.726-1.033 5.684 0 7.818 1.882 7.818 7.077 0 2.78-.177 5.163-.177 6.84 0 1.495.009 3.674.268 5.187zm-5.98-3.423c-.09-1.26-.056-3.075-.043-4.628-.216-.023-.52-.016-.767-.016-2.7 0-3.771.914-3.771 2.522 0 1.665.841 2.329 2.82 2.329.6 0 1.292-.08 1.76-.207z" fill="#FFF" fill-rule="nonzero"/></svg>