<svg width="122" height="31" viewBox="0 0 122 31" xmlns="http://www.w3.org/2000/svg" xmlns:xlink="http://www.w3.org/1999/xlink"><title>BCBS</title><defs><path id="a" d="M.151.506h23.881v30.401H.152z"/><path id="c" d="M0 30.974h121.428V.572H0z"/></defs><g fill="none" fill-rule="evenodd"><path d="M26.149 29.008c.26 0 .623.043.623-.312 0-.264-.216-.3-.442-.3h-.51v.612h.329zm-.328 1.058h-.238v-1.89h.8c.484 0 .648.186.648.524 0 .365-.25.5-.575.527l.553.839h-.267l-.524-.84h-.397v.84zm1.734-.936c0-.804-.571-1.383-1.363-1.383-.795 0-1.37.58-1.37 1.383 0 .813.575 1.393 1.37 1.393.792 0 1.363-.58 1.363-1.393zm-2.993 0c0-.904.73-1.647 1.63-1.647.896 0 1.622.743 1.622 1.647 0 .914-.726 1.657-1.622 1.657-.9 0-1.63-.743-1.63-1.657zm30.036-.122c.259 0 .622.043.622-.312 0-.264-.216-.3-.44-.3h-.51v.612h.328zm-.329 1.058h-.238v-1.89h.8c.484 0 .649.186.649.524 0 .365-.25.5-.575.527l.553.839h-.268l-.523-.84h-.398v.84zm1.734-.936c0-.804-.57-1.383-1.362-1.383-.796 0-1.37.58-1.37 1.383 0 .813.574 1.393 1.37 1.393.791 0 1.362-.58 1.362-1.393zm-2.993 0c0-.904.732-1.647 1.631-1.647.895 0 1.622.743 1.622 1.647 0 .914-.727 1.657-1.622 1.657-.9 0-1.63-.743-1.63-1.657zM7.9 14.168l4.074.383c.294.022.316.148.25.321L9.37 20.406a7.05 7.05 0 0 1-1.666-4.569c0-.574.068-1.134.196-1.669m4.79-5.072c-.407.69-.077 1.586.307 2.012.072.072.036.15-.028.169l-3.608.001a6.894 6.894 0 0 1 3.33-2.182m8.626 5.072l-4.073.383c-.295.022-.317.148-.25.321l2.854 5.534a7.05 7.05 0 0 0 1.666-4.569 7.12 7.12 0 0 0-.197-1.669m-4.79-5.072c.408.69.077 1.586-.307 2.012-.071.072-.035.15.028.169l3.61.001a6.898 6.898 0 0 0-3.331-2.182" fill="#FFF"/><path d="M19.556 22.248l.005.01-3.686-7.03c-.268-.597-.15-1.593.86-1.734l5.38-.529v-.001l.002.001h-.002a8.24 8.24 0 0 1 .513 2.872 8.181 8.181 0 0 1-3.072 6.411zm-4.948 1.735a7.89 7.89 0 0 1-4.406-1.34l-.003.005v-.007l.003.002 3.907-5.931c.288-.414.726-.382 1 0l3.907 5.93h.002v.006l-.002-.005a7.89 7.89 0 0 1-4.408 1.34zM6.59 15.837c0-1.01.181-1.978.512-2.872v-.001.001l5.381.529c1.01.141 1.128 1.137.86 1.734l-3.687 7.03.005-.01a8.18 8.18 0 0 1-3.071-6.411zm8.018-8.146c3.217 0 5.991 1.923 7.269 4.7h-5.708c-.815-.018-1.172-.502-1.19-.896-.019-.468.054-.616.432-1.114.415-.558.128-1.632-.802-1.65-.93.018-1.218 1.092-.803 1.65.379.498.451.646.432 1.114-.017.394-.375.878-1.19.896H7.341c1.278-2.777 4.051-4.7 7.267-4.7zm6.445 1.53V.974H8.12V9.22H0v13.186h8.12v8.247h12.934v-8.247h8.12V9.221h-8.12z" fill="#FFF"/><g transform="translate(33.243 .066)"><mask id="b" fill="#fff"><use xlink:href="#a"/></mask><path d="M20.735 16.597c-1.574 4.696-4.031 8.854-8.643 11.758.002 0 .004.002.005.003h-.01c.001-.001.003-.003.005-.003-4.611-2.904-7.07-7.062-8.643-11.758-1.398-4.17-1.74-9.05-.203-12.86 2.307.805 3.658 1.054 4.914 1.253 1.17.185 2.213.297 3.927.321h.01c1.713-.024 2.758-.136 3.927-.32 1.255-.2 2.607-.449 4.914-1.253 1.537 3.81 1.195 8.688-.203 12.86M22.231.523c-3.203 1.639-6.394 2.521-10.14 2.533-3.744.012-6.937-.912-10.14-2.551C-.152 4.713-.481 11.543 1.336 17.25c1.751 5.5 5.15 10.508 10.757 13.657 5.606-3.149 9.006-8.158 10.757-13.657 1.816-5.707 1.486-12.52-.62-16.726" fill="#FFF" mask="url(#b)"/></g><path d="M44.434 8.907c-.103.073-.173.147-.288.167-.226.037-.194-.163-.35-.276-.095-.067-.186.02-.272-.14.329.01.826.012 1.073.27a.38.38 0 0 0-.163-.021m-29.939 9.147c.064-.086.152-.091.227 0l2.696 4.193a6.788 6.788 0 0 1-2.81.605c-1 0-1.951-.217-2.81-.605l2.697-4.193c.075-.091.163-.086.227 0m30.616 9.216l-.004-.002-.003.002h.007z" fill="#FFF"/><path d="M48.644 9.323c-.07.232-.125.229-.277.37-.312.29-.728.59-1.136.986-.26.253-.51.4-.696.704-.042.07-.139.258-.139.258-.69-.143-1.398-.155-1.938-.267l-.026-.598s.693-.01.763-.432c.004-.024-.012-.15-.092-.21-.093-.071-.3-.15-.35-.168.525.084.987.281 1.525.519.036-.059-.055-.261-.095-.307-.073-.085-.158-.15-.347-.195-.326-.085-1.117-.184-1.117-.184s.285-.01.667-.027c.167-.028.34-.093.377-.151.038-.09-.013-.218-.132-.346-.077-.084-.155-.164-.22-.252-.08-.112-.183-.327-.327-.456-.175-.212-.704-.415-.704-.415s-.044-.361.043-.537c.065-.13.348-.143.44-.1.394.226.842.473 1.372.567.11.083.114.107.147.273.074.36-.063.89.008 1.14.036.08.117.077.176.044.493-.27.827-.737 1.327-.951.234-.101.9.238.75.735zm-2.193 6.885s.063-1.065.07-1.577c.277-.114.338-.387.233-.616-.057-.125-.267-.215-.39-.246-.575-.15-1.103-.178-1.698-.243a9.433 9.433 0 0 1-1.412-.25c-.98-.254-1.81-.716-2.245-1.62-.537-1.118-.055-2.51.999-3.066.803-.424 1.701-.345 2.507-.03.28.109.43.356.603.596.078.108.195.153.263.27.039.067-.05.101-.087.112-.177.047-.77.055-.963.031a3.335 3.335 0 0 0-.886.035c.255.144.525.325.779.423.154.06.275.058.416.133.059.03.226.078.226.158-.018.079-.16.11-.26.14-.229.07-.542.078-.832.01-.46-.109-.676-.384-.962-.211-.19.114-.193.377-.13.642.098.415.53.588.89.707 1.258.414 2.601.18 3.83.822.473.247 1.01.751 1.11 1.287.418 2.228-2.06 2.493-2.06 2.493zm-1.984-2.228s.25.027.855.067c.462.032.775.165.775.165l-.061 2.242c-.493-.096-.815-.15-1.275-.212-.15-.81-.342-1.09-.663-1.687-.073-.134-.011-.186.01-.221.043-.08.368-.16.368-.16l-.01-.194zm3.36 4.888c-.083.366-.316.658-.69.886-.395.241-.805.26-.805.26l.035-1.23s.088-.021.154-.103c.061-.076.078-.132.06-.237a.296.296 0 0 0-.173-.211c-.12-.055-.306-.071-.381-.08-.6-.072-1.15-.14-1.733-.238-1.058-.176-1.807-.795-1.742-1.821.043-.688.754-.9 1.256-1.12.165.3.313.619.373.776.096.281.147.458.147.458s-.227.039-.208.228c.018.168.2.24.312.256.741.107 1.725.229 2.246.41.347.121.688.32.884.594.294.412.36.748.265 1.172zm-2.921-.443c.482.06.659.073 1.068.124l-.038 2.033-.467-.253-.46-.227-.103-1.677zm1.864 4.827c-.263.22-.577.296-.577.296l.033-.87s.097-.085.07-.193c-.045-.176-.653-.589-.98-.717-.334-.132-.776-.262-1.092-.402-.736-.325-1.003-.98-.705-1.695.11-.263.405-.443.566-.541.176-.105.433-.184.433-.184l.077 1.017s-.096.035-.125.126c-.056.179.105.278.147.297.482.217 1.183.503 1.697.808.661.394.877.681.88 1.154.001.43-.178.698-.424.904zm-.94 2.204c-.002.163-.064.286-.361.292-.25.005-.357-.084-.366-.35-.04-1.167-.09-3.362-.09-3.362s.322.102.473.192c.051.031.221.138.367.292.032.048.056.057.052.128-.016.852-.07 2.435-.075 2.808zm-1.277-.965c-.042.305.084.436.053.582-.053.237-.199.165-.286-.01-.122-.237-.2-.351-.235-.712-.054-.574.227-.847.356-.977.138-.141.268-.212.268-.212l.044.96s-.156.062-.2.37zm8.835-19.22c-1.397.38-2.702.692-4.051.877-1.349.184-2.684.319-3.997.327h-.01c-1.314-.008-2.648-.143-3.998-.327-1.35-.185-2.653-.498-4.05-.877-.979 2.816-.77 6.366-.019 9.526 1.414 5.952 4.95 10.477 8.071 12.47 3.122-1.993 6.658-6.518 8.073-12.47.749-3.16.96-6.71-.019-9.526zm10.909 21.047c-.201.12-.37.278-.503.473a2.227 2.227 0 0 0-.302.666 2.89 2.89 0 0 0 0 1.521c.069.249.17.471.302.667.133.194.302.352.503.471.202.12.435.18.702.18.266 0 .5-.06.702-.18.201-.12.368-.277.502-.471.133-.196.234-.418.302-.667a2.839 2.839 0 0 0 0-1.521 2.2 2.2 0 0 0-.302-.666 1.583 1.583 0 0 0-.502-.473 1.353 1.353 0 0 0-.702-.179c-.267 0-.5.06-.702.18m1.631-.473c.27.139.496.325.68.558.183.232.322.506.418.817.094.312.142.644.142.996 0 .353-.048.685-.142.998a2.474 2.474 0 0 1-.419.816c-.183.234-.41.418-.679.554-.27.135-.579.203-.929.203-.35 0-.659-.068-.929-.203a1.992 1.992 0 0 1-.68-.554 2.474 2.474 0 0 1-.418-.816 3.421 3.421 0 0 1-.141-.998c0-.352.047-.684.141-.996.096-.311.235-.585.418-.817.184-.233.41-.42.68-.558.27-.138.579-.208.93-.208.35 0 .658.07.928.208m3.002.392v4.417h-.586v-4.417h-.819v-.506h.819v-.448c0-.21.015-.404.046-.582.032-.178.09-.33.177-.458a.852.852 0 0 1 .358-.296c.153-.07.345-.104.582-.104a3.17 3.17 0 0 1 .492.037v.515l-.223-.033a1.437 1.437 0 0 0-.204-.014.74.74 0 0 0-.372.076.46.46 0 0 0-.19.205.784.784 0 0 0-.07.301 6.9 6.9 0 0 0-.01.372v.43h.948v.505h-.948zm6.1.874c.176 0 .344-.03.504-.09a1.235 1.235 0 0 0 .706-.671c.071-.16.107-.345.107-.552 0-.416-.109-.744-.326-.983-.216-.24-.547-.36-.992-.36h-2.172v2.656h2.172zm.042-3.203c.25 0 .488.035.715.104.224.07.422.175.59.316.167.142.303.325.401.549.1.223.15.486.15.788 0 .43-.1.8-.3 1.115-.2.315-.496.517-.889.605v.02c.2.03.365.089.497.174.13.085.237.193.32.326.082.132.143.285.18.458.037.173.061.36.073.562.005.113.011.252.016.416.006.164.018.33.035.496.017.167.044.325.081.472a.935.935 0 0 0 .15.345h-.641a.816.816 0 0 1-.081-.231 2.084 2.084 0 0 1-.043-.284 7.48 7.48 0 0 1-.022-.288 8.76 8.76 0 0 0-.017-.245c-.012-.24-.03-.478-.055-.714a2.119 2.119 0 0 0-.164-.633 1.078 1.078 0 0 0-.36-.448c-.156-.114-.37-.165-.644-.152h-2.207v2.995h-.582V23.91h2.797zm3.535 0v2.712h.018c.109-.297.302-.534.581-.713.279-.18.585-.27.917-.27.327 0 .602.045.823.132.22.089.397.213.53.373.134.161.227.358.282.591.055.233.082.495.082.784v3.137h-.572v-3.042a2.93 2.93 0 0 0-.055-.58c-.036-.18-.1-.337-.19-.469a.932.932 0 0 0-.369-.312 1.304 1.304 0 0 0-.576-.113c-.23 0-.434.042-.614.127a1.32 1.32 0 0 0-.453.35 1.6 1.6 0 0 0-.29.529c-.07.205-.109.427-.114.666v2.844h-.573V23.91h.573zm5.352 2.409c-.204.12-.371.278-.506.473a2.19 2.19 0 0 0-.304.666 2.845 2.845 0 0 0 0 1.521c.068.249.17.471.304.667.135.194.302.352.506.471.202.12.438.18.706.18.269 0 .504-.06.707-.18a1.59 1.59 0 0 0 .505-.471 2.17 2.17 0 0 0 .305-.667 2.84 2.84 0 0 0 0-1.521 2.163 2.163 0 0 0-.305-.666 1.582 1.582 0 0 0-.505-.473 1.37 1.37 0 0 0-.707-.179c-.268 0-.504.06-.706.18m1.641-.473c.272.139.5.325.685.558.185.232.325.506.42.817.096.312.143.644.143.996 0 .353-.047.685-.143.998a2.435 2.435 0 0 1-.42.816 2 2 0 0 1-.685.554 2.076 2.076 0 0 1-.935.203c-.352 0-.663-.068-.934-.203a2 2 0 0 1-.685-.554 2.456 2.456 0 0 1-.42-.816 3.384 3.384 0 0 1-.144-.998c0-.352.048-.684.144-.996.095-.311.235-.585.42-.817a2.05 2.05 0 0 1 .685-.558c.27-.138.582-.208.934-.208.353 0 .664.07.935.208m2.287 3.123c.059.249.152.47.279.666.128.195.29.354.488.477.199.123.438.184.716.184.31 0 .572-.061.786-.184a1.56 1.56 0 0 0 .52-.477c.134-.195.23-.417.29-.666a3.271 3.271 0 0 0 0-1.503 1.982 1.982 0 0 0-.29-.666 1.575 1.575 0 0 0-.52-.477c-.214-.123-.475-.184-.786-.184a1.34 1.34 0 0 0-.716.184c-.198.123-.36.283-.488.477-.127.196-.22.417-.28.666a3.27 3.27 0 0 0 0 1.503zm3.213 1.687v-.927h-.018a1.405 1.405 0 0 1-.275.435 1.774 1.774 0 0 1-.414.335 2.087 2.087 0 0 1-1.023.289c-.366 0-.684-.068-.953-.203a1.933 1.933 0 0 1-.674-.558 2.398 2.398 0 0 1-.4-.822 3.672 3.672 0 0 1-.13-.988c0-.345.043-.675.13-.987.086-.311.22-.586.4-.822.18-.236.405-.423.674-.562.27-.139.587-.208.953-.208.18 0 .355.022.526.067a1.75 1.75 0 0 1 .875.538c.114.132.203.286.264.463h.018v-2.797h.587v6.747h-.54zm5.017-3.431a1.794 1.794 0 0 0-.302-.552 1.51 1.51 0 0 0-.474-.388 1.347 1.347 0 0 0-.633-.146c-.242 0-.456.049-.642.146a1.503 1.503 0 0 0-.474.388c-.13.16-.234.346-.312.557a2.79 2.79 0 0 0-.154.647h3.107a2.19 2.19 0 0 0-.116-.652m-2.902 1.82c.059.23.153.436.284.619.13.182.295.333.493.452.198.12.437.18.716.18.428 0 .763-.113 1.004-.34.242-.226.41-.529.502-.907h.587c-.125.555-.352.982-.684 1.285-.332.302-.801.454-1.409.454-.379 0-.705-.068-.981-.203a1.817 1.817 0 0 1-.674-.558 2.409 2.409 0 0 1-.387-.822 3.78 3.78 0 0 1 0-1.932c.083-.31.212-.584.387-.827.173-.242.398-.437.674-.586.276-.148.602-.222.981-.222.384 0 .713.08.986.236.272.158.494.364.664.619.171.256.293.548.368.879.075.33.106.666.093 1.006h-3.693c0 .214.03.436.089.666" fill="#FFF"/><mask id="d" fill="#fff"><use xlink:href="#c"/></mask><path fill="#FFF" mask="url(#d)" d="M99.583 30.655h.632V23.91h-.632zm4.684-3.925a.943.943 0 0 0-.262-.336 1.05 1.05 0 0 0-.376-.193 1.612 1.612 0 0 0-.451-.062c-.124 0-.25.014-.377.042a1.137 1.137 0 0 0-.35.142.786.786 0 0 0-.257.26.755.755 0 0 0-.098.397.59.59 0 0 0 .093.335c.063.091.14.169.235.232.094.063.199.115.311.155.112.042.215.075.31.1l.743.18c.16.025.319.07.474.136.157.066.296.153.417.26a1.248 1.248 0 0 1 .412.955c0 .264-.056.49-.169.675a1.407 1.407 0 0 1-.43.454c-.174.117-.37.2-.589.25-.217.05-.434.075-.647.075-.535 0-.971-.135-1.305-.405-.335-.271-.525-.706-.571-1.305h.557c.024.404.161.708.412.912.251.205.563.307.934.307.136 0 .276-.016.422-.047.144-.032.278-.085.403-.16a.996.996 0 0 0 .305-.289.75.75 0 0 0 .12-.43.715.715 0 0 0-.084-.363.76.76 0 0 0-.226-.246 1.373 1.373 0 0 0-.324-.166 3.866 3.866 0 0 0-.368-.112l-.716-.17a3.911 3.911 0 0 1-.506-.176 1.55 1.55 0 0 1-.403-.246 1.018 1.018 0 0 1-.27-.359 1.257 1.257 0 0 1-.097-.524c0-.245.051-.457.155-.633a1.26 1.26 0 0 1 .402-.425c.167-.107.351-.186.555-.236a2.49 2.49 0 0 1 .605-.076c.23 0 .446.031.643.095a1.414 1.414 0 0 1 .881.784c.089.195.14.425.152.69h-.56a1.182 1.182 0 0 0-.105-.478m1.68 3.926h.585V23.91h-.585zm4.92-2.665c-.037.07-.108.12-.214.152a2.013 2.013 0 0 1-.278.066 15.44 15.44 0 0 1-.767.118 4.07 4.07 0 0 0-.722.156c-.216.07-.395.169-.534.298-.14.129-.21.313-.21.552 0 .152.03.286.09.402a.958.958 0 0 0 .236.302c.099.086.214.15.344.194.13.044.263.066.4.066.223 0 .438-.034.642-.103.205-.07.383-.171.534-.303a1.45 1.45 0 0 0 .498-1.124v-.775h-.019zm-2.93-1.454c.1-.208.235-.378.406-.51.17-.133.37-.23.599-.293.23-.063.484-.095.763-.095.21 0 .422.02.633.061.21.042.399.118.566.232.168.114.304.273.41.477.105.205.158.471.158.798v2.59c0 .239.115.359.345.359a.44.44 0 0 0 .186-.039v.502a1.735 1.735 0 0 1-.382.038.872.872 0 0 1-.358-.062.48.48 0 0 1-.21-.174.675.675 0 0 1-.097-.27 2.303 2.303 0 0 1-.023-.346h-.019a3.943 3.943 0 0 1-.32.421c-.11.124-.23.226-.364.307a1.625 1.625 0 0 1-.455.19c-.17.043-.374.066-.61.066-.223 0-.432-.028-.627-.08a1.397 1.397 0 0 1-.512-.256 1.214 1.214 0 0 1-.344-.444 1.49 1.49 0 0 1-.126-.637c0-.341.075-.607.224-.799.148-.192.345-.339.59-.44.245-.1.52-.171.828-.212.307-.041.618-.08.935-.118.124-.013.232-.028.325-.048a.557.557 0 0 0 .233-.099.453.453 0 0 0 .143-.193.84.84 0 0 0 .052-.321c0-.202-.032-.367-.098-.497a.777.777 0 0 0-.269-.307 1.074 1.074 0 0 0-.4-.156 2.703 2.703 0 0 0-.488-.042c-.372 0-.677.09-.912.27-.236.178-.36.467-.372.864h-.585c.018-.284.077-.53.176-.737zm5.085-.756v.841h.018c.11-.296.305-.534.584-.714.28-.179.587-.27.92-.27.328 0 .603.045.825.133.222.089.399.213.533.374.134.16.228.357.282.59.054.233.082.494.082.785v3.137h-.573v-3.043c0-.208-.019-.402-.055-.581-.036-.18-.1-.335-.191-.468a.941.941 0 0 0-.37-.312 1.323 1.323 0 0 0-.578-.113c-.23 0-.436.043-.615.127a1.345 1.345 0 0 0-.456.35 1.645 1.645 0 0 0-.291.529 2.24 2.24 0 0 0-.115.667v2.844h-.573V25.78h.573zm4.547 3.189c.059.249.15.47.275.666.126.195.287.354.483.477s.432.184.708.184c.307 0 .565-.061.776-.184.211-.123.384-.282.515-.477.132-.195.226-.417.285-.666a3.29 3.29 0 0 0 0-1.502 2.01 2.01 0 0 0-.285-.667 1.569 1.569 0 0 0-.515-.477c-.211-.123-.47-.184-.776-.184-.276 0-.512.061-.708.184a1.544 1.544 0 0 0-.483.477 2.133 2.133 0 0 0-.275.666 3.3 3.3 0 0 0 0 1.503zm3.175 1.687v-.927h-.018a1.419 1.419 0 0 1-.272.435 1.745 1.745 0 0 1-.408.335 2.08 2.08 0 0 1-.493.213c-.173.05-.347.076-.518.076-.362 0-.676-.068-.942-.203a1.905 1.905 0 0 1-.666-.558 2.421 2.421 0 0 1-.396-.822 3.741 3.741 0 0 1-.128-.988c0-.345.043-.675.128-.987.086-.311.218-.586.396-.822.177-.236.4-.423.666-.562.266-.139.58-.208.942-.208.178 0 .351.022.518.067a1.701 1.701 0 0 1 .865.538c.113.132.2.286.262.463h.019v-2.797h.578v6.747h-.533zM64.787 8.37h1.995c.737 0 1.378-.25 1.378-1.176 0-.913-.546-1.275-1.342-1.275h-2.03v2.45zm0-3.79h1.888c.654 0 1.14-.312 1.14-1.062 0-.85-.617-1.026-1.282-1.026h-1.746v2.089zM62.923.968h3.99c1.615 0 2.709.55 2.709 2.213 0 .875-.417 1.488-1.153 1.863 1.033.313 1.555 1.15 1.555 2.264 0 1.813-1.46 2.588-2.993 2.588h-4.108V.967zm7.884 8.927h1.747V.967h-1.747zm8.578 0h-1.617v-.9h-.036a2.186 2.186 0 0 1-1.892 1.075c-1.808 0-2.264-1.063-2.264-2.663V3.431h1.702v3.65c0 1.063.3 1.589 1.09 1.589.922 0 1.316-.538 1.316-1.851V3.43h1.701v6.464zm5.089-3.926c-.153-.9-.515-1.375-1.32-1.375-1.052 0-1.355.875-1.379 1.375h2.699zm-2.699 1.125c.047 1.126.56 1.638 1.484 1.638.665 0 1.203-.437 1.308-.838h1.46c-.467 1.526-1.46 2.176-2.827 2.176-1.904 0-3.084-1.4-3.084-3.401 0-1.938 1.25-3.414 3.084-3.414 2.055 0 3.05 1.85 2.932 3.84h-4.357zm15.897-3.727h1.478v1.212h.022c.285-.821 1.05-1.39 1.806-1.39.11 0 .242.026.34.064v1.666a2.485 2.485 0 0 0-.559-.063c-1.139 0-1.532.948-1.532 2.097v2.942h-1.555V3.367zm7.171 5.359c1.194 0 1.551-1.043 1.551-2.072 0-1.043-.357-2.085-1.551-2.085-1.182 0-1.539 1.042-1.539 2.085 0 1.03.357 2.072 1.539 2.072m0-5.501c2.007 0 3.299 1.356 3.299 3.429 0 2.06-1.292 3.416-3.3 3.416-1.993 0-3.286-1.356-3.286-3.416 0-2.073 1.293-3.43 3.287-3.43m5.726 4.543c.012.785.641 1.101 1.32 1.101.496 0 1.125-.203 1.125-.834 0-.544-.714-.734-1.948-1.013-.993-.228-1.986-.594-1.986-1.746 0-1.67 1.38-2.1 2.723-2.1 1.368 0 2.628.482 2.76 2.088h-1.634c-.048-.696-.557-.885-1.174-.885-.387 0-.957.075-.957.607 0 .645.97.733 1.95.974 1.005.24 1.986.62 1.986 1.834 0 1.72-1.429 2.277-2.857 2.277-1.453 0-2.87-.57-2.943-2.303h1.635zm6.694 0c.012.785.642 1.101 1.32 1.101.497 0 1.126-.203 1.126-.834 0-.544-.714-.734-1.949-1.013-.993-.228-1.986-.594-1.986-1.746 0-1.67 1.38-2.1 2.724-2.1 1.369 0 2.628.482 2.761 2.088h-1.635c-.048-.696-.557-.885-1.174-.885-.388 0-.956.075-.956.607 0 .645.969.733 1.948.974 1.005.24 1.986.62 1.986 1.834 0 1.72-1.429 2.277-2.857 2.277-1.453 0-2.869-.57-2.94-2.303h1.632zM64.791 19.301h2c.738 0 1.381-.25 1.381-1.175 0-.913-.547-1.276-1.345-1.276H64.79v2.451zm0-3.789h1.893c.655 0 1.143-.313 1.143-1.063 0-.85-.62-1.025-1.286-1.025h-1.75v2.088zM62.923 11.9h4c1.618 0 2.714.55 2.714 2.213 0 .875-.418 1.488-1.155 1.863 1.035.313 1.559 1.15 1.559 2.263 0 1.814-1.464 2.589-3 2.589h-4.118V11.9zm7.899 8.927h1.675v-8.928h-1.675zm8.538 0h-1.6v-.9h-.035a2.162 2.162 0 0 1-1.874 1.075c-1.791 0-2.242-1.063-2.242-2.663v-4.076h1.685v3.75c0 1.063.296 1.588 1.079 1.588.913 0 1.304-.537 1.304-1.85v-3.488h1.684v6.564zm5.091-3.989c-.151-.914-.512-1.397-1.316-1.397-1.048 0-1.351.89-1.375 1.397h2.691zm-2.69 1.143c.046 1.142.558 1.662 1.478 1.662.664 0 1.2-.444 1.306-.85H86c-.466 1.549-1.456 2.208-2.82 2.208-1.899 0-3.075-1.42-3.075-3.452 0-1.968 1.246-3.466 3.075-3.466 2.051 0 3.041 1.88 2.925 3.898H81.76zm9.009-.118c0 1.188.877 1.65 1.874 1.65.653 0 1.649-.199 1.649-1.112 0-.963-1.27-1.126-2.515-1.475-1.259-.35-2.527-.864-2.527-2.539 0-1.826 1.636-2.7 3.167-2.7 1.768 0 3.394.812 3.394 2.875h-1.804c-.059-1.075-.783-1.35-1.674-1.35-.592 0-1.28.262-1.28 1.013 0 .688.403.775 2.527 1.35.617.163 2.515.575 2.515 2.6 0 1.64-1.221 2.864-3.524 2.864-1.875 0-3.63-.975-3.607-3.176h1.805zm5.972-6.03h1.676v3.265h.035c.426-.746 1.158-1.106 1.784-1.106 1.783 0 2.231 1.094 2.231 2.742v4.093h-1.676v-3.759c0-1.094-.296-1.635-1.075-1.635-.91 0-1.3.554-1.3 1.905v3.489h-1.675v-8.994zm6.838 8.994h1.748v-6.56h-1.747v6.56zm0-7.575h1.748v-1.484h-1.747v1.484zm6.752 3.547c-.151-.923-.512-1.41-1.316-1.41-1.048 0-1.35.897-1.375 1.41h2.691zm-2.69 1.153c.047 1.153.559 1.679 1.48 1.679.663 0 1.2-.449 1.304-.86h1.457c-.466 1.564-1.457 2.23-2.82 2.23-1.9 0-3.076-1.434-3.076-3.485 0-1.986 1.246-3.498 3.075-3.498 2.051 0 3.042 1.896 2.926 3.934h-4.347zm5.04 2.875h1.65v-8.928h-1.65zm5.594-5.48c-1.09 0-1.464 1.033-1.464 2.13 0 1.046.433 2.143 1.464 2.143 1.102 0 1.429-1.058 1.429-2.156 0-1.084-.351-2.117-1.429-2.117zm1.452 4.622h-.023c-.386.723-1.066 1.032-1.839 1.032-1.826 0-2.716-1.73-2.716-3.575 0-1.795.901-3.46 2.68-3.46.715 0 1.418.335 1.793.994h.023v-3.127h1.663v8.988h-1.581v-.852zM93.354 8.457c-1.619 0-2.227-1.5-2.227-2.988 0-1.563.608-3.064 2.227-3.064.85 0 1.595.608 1.767 1.427h1.752C96.604 1.855 95.117.754 93.354.754c-2.538 0-4.03 2.064-4.03 4.715 0 2.575 1.492 4.639 4.03 4.639 1.873 0 3.227-1.24 3.551-3.21h-1.77c-.23.935-.823 1.56-1.781 1.56"/></g></svg>