<svg width="122" height="51" viewBox="0 0 122 51" xmlns="http://www.w3.org/2000/svg"><title>brown</title><g fill="#FFF"><path d="M73.853 20.667c-2.269.155-3.867 1.06-5.027 2.327a7.798 7.798 0 0 0-1.96 5.325c.052 2.378.851 3.955 2.089 5.195 1.211 1.215 2.99 2.068 5.31 1.965 4.15-.181 6.935-3.231 6.935-7.6 0-2.249-.825-4.032-2.037-5.247a6.899 6.899 0 0 0-5.31-1.965zm.309 14.062c-1.573-.052-2.733-.801-3.532-1.783-1.34-1.629-2.217-5.79-1.082-8.556.567-1.422 1.83-2.792 3.815-2.973 2.062-.207 3.583.853 4.408 2.042 2.5 3.593 1.753 11.503-3.609 11.27zm-30.098-7.443c1.422-.541 2.767-1.263 2.844-3.016.207-4.433-5.896-3.067-10.137-3.273-.026 0-.026.077-.052.18v.387c.362.026 1.086.026 1.397.258.543.36.491 1.83.491 2.86v6.703c0 1.108.052 2.5-.44 2.912-.362.31-1.215.18-1.577.439v.386c3.077-.025 6.827.413 9.051-.696 1.241-.618 2.25-1.83 2.172-3.608-.077-2.217-1.784-3.094-3.75-3.532zm-3.57-5.413c.828-.412 2.587-.232 3.311.18 1.448.825 1.552 3.584.13 4.563-.802.541-1.966.541-3.492.516.026-1.727-.052-3.583.052-5.259zm4.837 11.058c-.259.464-.854 1.031-1.448 1.263-.724.31-2.405.516-3.052-.077-.517-.49-.388-1.856-.388-2.913v-3.273c0-.078 0-.13.026-.13 1.888-.077 3.362.104 4.293 1.006.905.85 1.267 2.784.569 4.124zm18.252 1.58c-.953-.594-1.7-1.833-2.447-2.917a38.143 38.143 0 0 1-2.035-3.303c1.443-.645 2.705-1.6 2.833-3.432.387-4.98-5.743-3.716-10.353-3.87-.051 0-.026.077-.077.077v.361c.412.103 1.107.078 1.442.31.618.439.49 1.987.49 3.148v6.27c0 1.059.102 2.4-.258 2.916s-1.288.362-1.752.62v.335c1.752.155 4.096.155 5.795 0v-.387c-.644-.206-1.287-.052-1.648-.516-.36-.464-.283-1.548-.309-2.451-.026-.981 0-2.013 0-2.787.618.051 1.39-.13 1.88.077.464.18.824.877 1.056 1.265.283.49.567 1.032.824 1.47 1.185 1.962 1.855 3.33 4.559 3.536.438.051.876.154.876-.207 0-.258-.567-.335-.876-.516zm-8.293-6.22c.077-2.142-.155-4.593.128-6.503.155-.051.258-.103.438-.129 2.55-.31 4.07.955 4.121 3.045.077 2.323-1.468 4.026-4.687 3.587zm44.234-7.235v.49c.414.18 1.346.026 1.527.568.103.335-.078.903-.181 1.316a99.087 99.087 0 0 1-2.485 8.721c-1.397-3.56-2.588-7.328-4.01-10.863h-.44c-1.269 3.535-2.278 7.354-3.572 10.889a228.472 228.472 0 0 0-1.578-5.006c-.518-1.651-1.14-3.303-1.476-5.109.233-.49 1.14-.31 1.605-.568v-.387c-1.682-.103-3.571-.026-5.331-.051-.104.077 0 .335-.078.49.31.103.75.052 1.061.206.958.439 1.346 2.477 1.708 3.613 1.035 3.302 2.226 7.018 3.235 9.986h.518c1.345-3.432 2.354-7.174 3.674-10.631 1.035 2.967 2.33 6.296 3.442 9.366.207.568.285 1.497 1.01 1.265 1.035-3.149 2.121-6.838 3.234-10.167.362-1.032.595-2.477 1.32-3.174.388-.335 1.01-.335 1.45-.516v-.387c-1.45-.103-3.106-.026-4.633-.051zm17.731-.095c-.36.026-.49-.13-.49.259 0 .362.155.207.439.259.619.13 1.366.233 1.598.75.207.519.18 1.45.207 2.28.051 2.304.051 5.1.051 7.352-.154.13-.206-.13-.258-.207-3.017-3.392-5.93-7.224-8.922-10.667h-2.475c-.387 0-.593-.078-.697.13-.18.388.207.388.516.44.877.155 1.547.388 1.754 1.398.18.802.051 1.916.051 2.848 0 1.786.078 3.858 0 5.696-.077 1.709.052 2.848-1.263 3.107-.516.13-.8-.078-.774.362.026.415.645.26 1.212.26 1.186 0 2.295.155 3.61 0 .335-.027.413.051.439-.26.025-.466-.748-.31-1.084-.388-1.315-.337-1.108-1.45-1.186-3.03-.129-2.356-.026-5.307-.051-7.611.129-.078.412.414.567.621 2.81 3.392 5.647 6.887 8.484 10.357.206.258.464.57.877.44.206-2.77 0-6.706.129-9.84.051-1.242-.155-2.976.49-3.572.386-.337.98-.363 1.521-.388v-.518c-1.29.077-3.146-.104-4.745-.078zm-87.544-9.566c-.18-.129-1.99-.336-2.273-.336-.285 0-1.835.026-2.43.104-.93.129-2.531.129-3.746 0-.439-.052-.93.051-1.317.18.077-.077.155-.129.258-.258.362-.361.75-1.058 1.473-1.42.18-.077.361-.18.516-.284.595.31 1.55.49 2.713-.052 1.757.878 2.79.284 3.153-.025.439-.388.697-.93.697-1.498a1.6 1.6 0 0 0-.103-.594c-.258-.749-.956-1.24-1.886-1.343a2.193 2.193 0 0 0-.233-.568c.104-.129.207-.284.284-.361.078-.104.362-.594-.387-.181l-.207.103a1.95 1.95 0 0 0-.362-.284c-.723-.439-1.679-.49-2.687-.232-.129-.542-.413-.981-.827-1.24-.439-.258-.981-.335-1.653-.258.052-.103.077-.18.103-.258.284-.62.13-.749-.18-.49-.337.31-.57.516-.724.697-.62-.982-1.421-1.653-2.403-1.911-.827-.232-1.731-.103-2.558.284-.052-.413-.103-.749-.155-.93-.155-.49-.336-.103-.362.052-.026.207-.077.49-.129.826a3.29 3.29 0 0 0-2.558-.284c-.93.284-1.628.981-2.041 1.937-.336-.13-.646-.18-.93-.233a4.36 4.36 0 0 0-.775-.8c-.233-.207-.44-.103-.285.31.052.155.104.31.155.439a2.487 2.487 0 0 0-1.472.516 2.537 2.537 0 0 0-.956 1.653c-.026 0-.078.026-.078.026-.542.129-1.266.335-1.731 1.032-.078-.051-.13-.077-.155-.103-1.37-.904-.724.258-.207.775C1.445 6.644.928 7.496.8 8.013a1.977 1.977 0 0 0-.052.387c0 .594.31 1.162.827 1.523.594.413 1.343.388 1.99-.026.852.285 2.04.233 2.919-.387.49.542.904.904 1.111 1.136.543.543 1.344.956 1.731 1.11-.413-.154-1.06-.31-1.731-.232-1.447.207-2.403-.051-3.023-.129-1.008-.103-2.067.078-2.584.078-.542 0-1.343.258-1.705.31-.414.051-.388.335.18.49.57.155 1.629.258 1.913.362.93.387 2.454.723 3.54.645.775-.052 1.55.31 1.757.387.387.13 1.317.388 1.73.362 0-.026 0 .542.052.826a7.074 7.074 0 0 0-.413.155c-.44-.258-2.325-1.033-4.625-.077-.49-.155-1.524-.75-2.92-.284-1.757.568-1.473 2.169-.878 2.892.775.98 2.222.8 2.635.284.93.62 1.886.413 2.584-.026.465.258 2.687.723 4.418.026.233.18 1.163.671 2.377.051.698.413 1.835.44 2.43-.077.206.18.852.439 2.221.413 1.628-.026 2.016-.258 2.248-.465.362.155 1.266.646 2.403.155.62.387 1.835.362 2.506-.077 1.215.542 3.411.31 3.954-.078.981-.697.516-2.091-.569-2.737-2.144-1.084-4.134-.232-4.65.026-.62-.413-1.938-.697-3.308-.44.026-.154 0-.36 0-.567v-.052c.284-.077.646-.361 1.447-.413 1.06-.077 3.591-.026 4.858-.697.723-.362 3.23-.852 3.565-1.059.233-.155.13-.31-.026-.413zM3.77 17.437a4.216 4.216 0 0 1-.517-.439c-.155-.154-.31-.335-.465-.49-.258-.284-.517-.465-.775-.387-.18.051-.207.31-.078.413.026.025.078.025.13.051.026 0 .051 0 .077.026.207.103.517.542.698.749-.052.284-.775.568-1.525.129a1.326 1.326 0 0 1-.206-.18 1.26 1.26 0 0 1-.207-1.55c.258-.439.982-.697 1.86-.671.93.025 1.499.62 1.886 1.213.31.465.491.93.672 1.085 0 .18-.904.516-1.55.051zM20.513 9.95c-.904 1.059-1.37 1.446-1.524 1.446-.181-.336-.569-.774-.827-1.007.336-.361 1.757-1.033 2.403-1.523.103-.078.387-.259.516-.31.078.103.181.206.259.284.103.103.206.18.336.284-.569.284-.879.465-1.163.826zm-5.09-3.59c.62.027 1.24-.154 1.86-.49.052.13.104.259.181.388-.362.284-1.214 1.213-1.524 2.04-.13.335-.181.49-.233.697.103-.697-.103-1.73-.284-2.634zm2.144.569c.078-.077.155-.155.233-.206.18.206.413.36.646.49a2.74 2.74 0 0 0-.336.568c-.258.568-.13 1.317-.8 1.988-.104-.077-.776-.413-1.034-.516.077-.775.749-1.756 1.291-2.324zm.672 2.401c.233-.542.181-.98.595-1.73a.562.562 0 0 0 .077-.129c.517.181 1.06.207 1.602.155.052.181.13.362.258.568-.258.13-1.085.697-2.3 1.369-.31.18-.49.335-.62.439a3.22 3.22 0 0 0 .388-.672zM6.87 7.78c-.025.517-.232.955-.62 1.265-.439.362-1.059.517-1.627.517-.362 0-.672-.052-.956-.18-.104-.027-.207-.027-.285.025-.49.336-1.007.387-1.447.077a1.253 1.253 0 0 1-.542-1.29c.18-.672.982-1.111 2.196-1.24.13-.026.233-.103.258-.233.233-1.11.957-1.29 1.654-1.446l.31-.077a.295.295 0 0 0 .207-.18v-.104c-.026-.207.155-.93.75-1.394.697-.594 1.73-.594 2.996-.078a.359.359 0 0 0 .233 0c.026 0 .052-.026.077-.051.026-.026.052-.052.052-.078 0-.026.026-.026.026-.052.31-.93.956-1.575 1.783-1.833.206-.077.439-.103.646-.103.646-.026 1.317.18 1.938.62a.272.272 0 0 0 .335 0c.776-.491 1.706-.672 2.533-.44.93.259 1.705.93 2.273 2.015.078.129.207.18.362.129.44-.155.827-.233 1.163-.233.336 0 .646.078.878.207.44.284.595.749.646 1.11.026.078.052.155.13.207.025.026.077.026.103.051.051 0 .077 0 .129-.025.93-.31 1.86-.259 2.48.129.414.258.672.62.75 1.084.026.13.129.233.258.233.801.051 1.37.413 1.576.98.181.517 0 1.111-.44 1.473-.62.516-1.575.49-2.66-.104a.235.235 0 0 0-.259 0c-.827.44-1.628.465-2.351.078-.853-.44-1.344-1.291-1.395-1.73a.217.217 0 0 0-.104-.181c-.051-.052-.129-.052-.206-.052a4.07 4.07 0 0 1-.646.052c-.827 0-2.016-.258-2.326-1.678-.026-.104-.077-.181-.18-.207-.078-.026-.181.026-.259.078-1.292.852-2.558.8-3.772-.181a.281.281 0 0 0-.388 0c-1.395 1.394-2.506 1.29-3.075 1.084a.32.32 0 0 0-.361.104c-.543.852-1.68 1.032-2.48.774-.104-.026-.207-.026-.285.026-.078.052-.103.155-.103.258.025.233.051.413.025.594zm8.243 1.24v.025a8.331 8.331 0 0 0-1.137 0c-.078-.18-.078-.878-.052-1.368.052-.878.207-1.472.233-1.575h.026c.18.077.413.155.594.232.18.362.465 1.808.336 2.686zm-1.809.025l.026.052s-.413-.62-.465-.723c-.155-.232-.336-.439-.543-.697-.336-.387-.62-.723-.852-.955.542-.13 1.188-.44 1.86-1.085.078.052.155.103.207.13-.026.206-.078.412-.104.567-.155.852-.155 1.524-.18 1.782.025.258.051.671.051.93zM10.54 7.16c-.104-.154-.155-.258-.207-.361l-.026-.026c.18.078.491.052.646.052.052.103.517.568 1.163 1.42.336.439.646.955.697 1.059 0 0-.026 0-.026.025a5.562 5.562 0 0 0-.8.388c-.078.051-.156.077-.207.129-.569-.568-.982-2.247-1.24-2.686zm.749 3.022c-.956-.93-1.809-.93-3.204-1.653-.233-.13-.594-.362-.698-.413.026-.13.026-.233.026-.362v-.129c.775.13 1.654-.051 2.3-.645.8 1.265.827 2.427 1.576 3.202zm-4.367-.904c.13-.181.284-.465.336-.697 0 0 .026 0 .026.025.052.052.103.078.13.078.025.026.49.31.748.439 1.189.568 1.938.697 2.765 1.368a8.52 8.52 0 0 0-.8 1.007v.026c-1.68-.465-3.024-2.014-3.205-2.246zm2.48 4.209c-.387.025-1.162-.233-1.601-.388-.155-.051-1.008-.361-1.602-.361h-.336c-1.163.026-2.532-.31-3.256-.594 0 0-.026 0-.051-.026-.181-.052-.672-.103-.827-.129-.13-.026-.052-.052.646-.052.336 0 .723-.051 1.214-.077.284 0 .62 0 1.008.077.387.052.956.104 1.731.104.465 0 .982-.026 1.576-.052h.052c.775-.052 1.37.206 1.653.49-.077.233-.18.801-.206 1.008zm3.592 4.054c-.207-.155-.775-.878-.982-1.137-.206-.258-.594-.49-.775-.258-.103.103-.026.284.13.362.025 0 .025.026.051.026.155.103.568.593.723.8.026.026.026.052.026.077-.026.207-.904.517-1.472-.077l-.052-.052c-.284-.335-.827-1.368-1.163-1.807 1.189-.413 2.584-.568 3.592-.103.439.206.697.516.904.852.233.413.388.852.594 1.136.104.361-1.007.568-1.576.18zm2.274-2.815c-.465.103-.93.258-1.318.49-.646-.516-1.964-.62-3.152-.49a6.943 6.943 0 0 0-.775.13 3.84 3.84 0 0 1-.078-.646c0-2.608 2.119-4.726 4.703-4.726.155 0 .336 0 .49.026.93.103 1.784.44 2.455.981.026.026.052.026.078.052.077.052.129.13.207.18.051.052.103.078.129.13.051.052.077.077.103.129.078.077.13.13.18.207l.053.051a4.826 4.826 0 0 1 1.007 2.479c.026.155.026.31.026.49 0 .181 0 .44-.052.698a3.89 3.89 0 0 0-.878.31c-.956-.543-2.119-.697-3.178-.491zm7.183.697c.956.44 1.188 1.472 1.498 1.988.078.207-.361.336-.826.31-.285 0-.569-.051-.776-.155-.206-.103-.775-.878-.981-1.136-.207-.258-.543-.413-.698-.18-.026.025-.026.077-.026.103 0 .103.104.232.233.31.232.129.594.671.671.8-.025.155-.439.31-.904.18a1.19 1.19 0 0 1-.568-.335c-.31-.31-.853-1.394-1.06-1.807 1.163-.413 2.43-.543 3.437-.078zm5.555-3.615c-.594.13-1.344.284-2.222.646-1.189.465-3.514.594-4.47.568-.543-.026-.853.129-1.111.232-.13.052-.233.103-.31.103h-.13c-.025-.49-.31-1.213-.31-1.213.259-.13 1.137-.44 1.887-.413 1.007.026 2.842.103 3.798-.026.465-.078 2.145-.078 2.403-.078.207 0 .49.052.594.052.388.052.078.103-.129.13z"/><path d="M3.652 7.328c-.72-.078-1.921.287-1.948 1.277 0 .209.267.391.374.287.08-.078-.027-.313.373-.73.374-.39.774-.39 1.307-.39.24 0 .187-.418-.106-.444zm2.189-1.6c-.356-.078-1.323.155-1.526 1.06-.05.31.356.413.407.258.127-.413.33-.775 1.068-.853.127-.026.178-.44.05-.465zm2.432-1.635c.204 0 .432.05.686.127h.051c.204.025.305-.482.102-.508-.229-.05-.458-.076-.635-.101-1.322-.05-1.906.913-2.058 1.598a.257.257 0 0 0 .254.305c.076 0 .152 0 .152-.051.153-.61.61-1.37 1.448-1.37zm2.978-.775c.501-.57 1.477-1.214 2.717-.42.132.074.29-.15.264-.348a.255.255 0 0 0-.053-.148c-1.372-1.115-2.876-.1-3.324.57 0 0 0 .024-.026.024v.05c-.027.198.21.52.422.273zm3.874.11c.467-.688 2.02-1.12 3.134-.05.155.152.285.305.414.51.052.076.104.178.13.203.026.026.052.026.103 0 .156-.076.337-.23.182-.459a3.501 3.501 0 0 0-.518-.662c-1.321-1.3-3.29-.688-3.704-.026-.051.077-.026.179 0 .28.052.179.208.306.26.204zm5.116 1.221c.026.027.079.027.132 0 .5-.186.948-.24 1.29.08.106.107.211.266.29.48 0 .026.027.026.027.053.131.133.421 0 .369-.32-.185-.719-.712-.932-1.239-.932-.316 0-.606.08-.87.16-.078.053-.157.373 0 .48zm3.105 1.45c.28-.1.559-.174.838-.15.483.026.94.249 1.27.844.05.1.102.124.152.124.153 0 .28-.223.254-.372-.457-1.24-1.879-1.314-2.565-.918-.076.025-.101.075-.127.15-.05.148.077.371.178.322zm3.067 1.478c.542 0 .929.049.877.823 0 .073.078.121.181.121s.232-.048.258-.121c.207-.799-.439-1.282-1.084-1.282-.077 0-.18 0-.258.024-.155.024-.18.435.026.435zM14.08 12.12c-.278-.106-.883-.212-1.363-.186-.277.027-.605.212-.933.503-.302.265-.1.345.076.239.378-.239.605-.16.656-.08v.053a.549.549 0 0 0 .504.583c.278.026.53-.212.555-.53.177-.026.379.053.48.08.025 0 .15-.61.025-.662zm1.082 1.517c-.075-.026 0 .183-.125.209-.15.026-.9.13-1.125 0-.15-.078-.05.288.025.445.175.366 1.125.287 1.225 0 .1-.262.1-.602 0-.654zm-.032-1.578c-.177.08-.05.666-.026.666.051.027.355-.08.557-.027v.027a.547.547 0 0 0 .582.507c.279-.027.507-.294.481-.614v-.053c.127-.08.43 0 .684.213.126.107.152-.026.126-.133-.455-.88-1.949-.773-2.404-.586zM.1 35.47c0 5.03 1.265 8.513 3.95 10.964 2.66 2.425 6.662 3.663 10.586 4.591 4.028-.954 7.875-2.14 10.586-4.591 2.685-2.451 3.95-5.934 3.95-10.964V20.25H.1v15.22zm16.99-14.55h11.334v10.268H17.089V20.92zm0 28.66V35.806h11.334v.465c-.052.877-.103 1.676-.207 2.425-.258 1.909-.697 3.405-1.471 4.695v-4.953h-.697V37.43c-.697.18-1.86-.207-2.376-.207-.568 0-.852.258-.852.258s-.284-.258-.852-.258c-.516 0-1.652.387-2.375.207v1.006h-.697v5.494h3.253v.413h1.343v-.413h2.917a11.056 11.056 0 0 1-1.704 1.987c-1.91 1.754-4.75 2.863-7.616 3.663zm8.39-11.504v4.72s-.102.078-.36.103a2.02 2.02 0 0 1-.595-.103c-.361-.103-.62-.129-.826-.103-.335.026-.49.13-.49.13V38.05s.103-.207.464-.207h.026c.594.026 1.188.232 1.601.232h.18zm-3.02-.026v4.772s-.155-.103-.49-.129c-.207 0-.465 0-.827.103-.697.207-.955 0-.955 0v-4.72c.052 0 .103.025.155.025.413 0 1.007-.206 1.626-.232.388-.026.49.18.49.18zM.797 20.92h11.36v10.268H.797V20.92zm11.36 14.885v13.776c-2.917-.852-5.757-2.012-7.564-3.69a10.744 10.744 0 0 1-1.653-1.96h2.892v.413h1.342v-.413h3.254v-5.494H9.73V37.43c-.052 0-.13.026-.181.026-.697.078-1.73-.232-2.195-.232-.568 0-.852.258-.852.258s-.284-.258-.852-.258c-.284 0-.774.13-1.265.206h-.052c-.077 0-.129.026-.206.026-.078 0-.155.026-.232.026h-.052c-.207 0-.413 0-.594-.052v1.007H2.58v4.9C1.469 41.404.952 39.082.823 36.245l-.026-.439h11.36zm-8.313 6.991v-4.72c.052 0 .103.025.155.025.413 0 1.007-.232 1.652-.258.387-.026.49.207.49.207v4.772s-.154-.103-.516-.129c-.206 0-.464 0-.8.103-.284.078-.49.103-.62.103-.258-.025-.361-.103-.361-.103zm3.02.026V38.05s.104-.207.465-.207h.026c.594.026 1.214.232 1.627.232h.18v4.721s-.103.078-.361.103c-.155 0-.336-.025-.594-.103-.361-.103-.62-.129-.826-.103-.361.026-.516.129-.516.129z"/><path d="M9.722 22.662c-.703.156-1.875-.207-2.396-.207-.573 0-.86.26-.86.26s-.287-.26-.86-.26c-.52 0-1.667.388-2.397.207v1.01h-.703v5.487H5.79v.414h1.354v-.414h3.283v-5.513h-.704v-.984zm-3.647 5.41l-.026-.026c-.026-.026-.182-.078-.469-.104-.208 0-.469 0-.807.104-.261.077-.47.103-.626.077-.234 0-.338-.077-.338-.077v-4.737h.156c.417 0 1.016-.233 1.667-.233.13 0 .235.026.287.052.13.052.182.155.182.155l-.026 4.789zm3.048-.026s-.26.207-.964 0c-.338-.104-.625-.13-.833-.104-.34.026-.495.13-.495.13v-4.789s.104-.207.495-.207c.677.026 1.38.311 1.797.233h.026l-.026 4.737zm16.94-5.384c-.704.156-1.876-.207-2.397-.207-.573 0-.86.26-.86.26s-.287-.26-.86-.26c-.52 0-1.667.388-2.396.207v1.01h-.704v5.487h3.283v.414h1.354v-.414h3.283v-5.513h-.704v-.984zm-3.7 5.41h-.026l-.026-.026c-.026-.026-.208-.078-.469-.104-.208 0-.469 0-.807.104a2.362 2.362 0 0 1-.626.103c-.234 0-.338-.103-.338-.103v-4.737h.156c.417 0 1.042-.233 1.667-.233.13 0 .235.026.287.052.13.052.182.155.182.155v4.789zm3.022-.026s-.26.207-.964 0c-.338-.104-.625-.13-.833-.104-.339.026-.495.13-.495.13v-4.789s.104-.207.495-.207c.677.026 1.38.311 1.797.233h.026l-.026 4.737z"/></g></svg>