<svg width="122" height="18" viewBox="0 0 122 18" xmlns="http://www.w3.org/2000/svg" xmlns:xlink="http://www.w3.org/1999/xlink"><title>ck</title><defs><path id="a" d="M0 .044h120.621v17.694H0z"/></defs><g fill="none" fill-rule="evenodd"><mask id="b" fill="#fff"><use xlink:href="#a"/></mask><path d="M48.277 2.436v11.747c0 2.33 1.45 3.564 3.587 3.564a7.549 7.549 0 0 0 2.139-.335v-1.926a5.62 5.62 0 0 1-1.64.241c-1.25 0-1.822-.778-1.822-1.802V7.267h3.144V5.36h-3.144V4.113c0-1.193-.71-1.798-1.616-1.798-.214 0-.434.041-.648.12zM93.82 6.954v-.05c0-1.193-.633-1.799-1.538-1.799-.214 0-.434.042-.649.122v12.265h2.264V9.1c.674-.912 2.036-1.976 3.232-1.976 1.322 0 1.982.856 1.982 2.103v8.266h2.264V9.1c.78-1.055 2.036-1.976 3.232-1.976 1.322 0 1.982.856 1.982 2.103v8.266h2.264V9.1c0-2.286-1.034-3.994-3.833-3.994-1.704 0-2.964.914-3.985 2.028-.342-.817-1.115-2.028-3.5-2.028-1.616 0-2.804.857-3.715 1.849zm-7.91-.05c0-1.193-.67-1.799-1.575-1.799-.214 0-.434.042-.649.122v12.265h2.264V10.32c.642-1.523 2.162-2.928 4.171-2.928V5.105c-2.147 0-3.376 1.038-4.21 2.579v-.78zm-72.035 0c0-1.193-.67-1.799-1.576-1.799-.214 0-.434.042-.649.122v12.265h2.264V10.32c.642-1.523 2.163-2.928 4.171-2.928V5.105c-2.147 0-3.376 1.038-4.21 2.579v-.78zM66.408 11.3a19.53 19.53 0 0 0 3.696-6.034l-2.092-.765c-1.334 3.506-3.328 5.86-5.737 7.81V.33h-2.263v17.162h2.263V14.96a24.903 24.903 0 0 0 2.503-2.031l2.066 3.495c.517.87 1.204 1.323 2.234 1.323.579 0 .921-.185 1.049-.254l-3.72-6.19zm-64.04.112c0-2.823 1.47-4.29 3.698-4.29 1.689 0 2.798.633 3.151.86.278-.264.5-.723.5-1.204 0-.803-.949-1.674-3.742-1.674C2.718 5.105 0 7.293 0 11.44c0 4.044 2.47 6.308 5.725 6.308 1.955 0 3.512-.626 3.966-.861v-2.25c-.496.34-2.094 1.091-3.592 1.091-2.137 0-3.732-1.463-3.732-4.314zM38.223 7.8a5.189 5.189 0 0 0-2.518-.678c-2.092 0-3.527 1.452-3.527 4.454 0 2.67 1.342 4.148 4.223 4.148.665 0 1.295-.102 1.822-.26V7.8zm2.237 9.33c-.473.122-1.922.618-4.059.618-4.67 0-6.472-2.606-6.472-6.108 0-4.426 2.517-6.54 5.367-6.54 1.58 0 2.64.492 2.927.64V.331h2.237v16.8zm-19.903-6.47c.098-1.785 1.252-3.614 3.758-3.614 1.12 0 1.793.639 1.793 1.412 0 1.73-3.16 2.202-5.55 2.202zm.016 1.756c3.369 0 7.828-.51 7.828-4.068 0-1.779-1.483-3.242-3.973-3.242-4.203 0-6.226 2.953-6.226 6.511 0 3.411 2.202 6.13 6.13 6.13 2.187 0 3.82-.594 3.82-1.836 0-.582-.375-1.046-.458-1.128-.216.144-1.4.945-3.226.945-2.572 0-3.634-1.665-3.895-3.312zm22.65 5.077h2.264V5.36h-2.263v12.132zm1.145-14.574c-.788 0-1.45-.636-1.45-1.425 0-.788.662-1.45 1.45-1.45.789 0 1.425.662 1.425 1.45 0 .789-.636 1.425-1.425 1.425zm73.99 11.242c-1.018 1.043-2.05 1.57-3.372 1.57-1.284 0-1.957-.82-1.957-1.681 0-1.246.993-2.294 5.328-2.712v2.823zm-2.635-9.055c-2.892 0-4.02.778-4.02 1.673 0 .679.396 1.098.5 1.2.38-.244 1.46-.86 3.197-.86 2.186 0 2.957 1.036 2.957 2.153v.336c-5.061.534-7.656 1.49-7.656 4.517 0 2.06 1.543 3.623 3.73 3.623 2.19 0 3.429-1.141 3.98-1.644v1.39h2.21V9.196c0-2.696-1.947-4.092-4.898-4.092zm-37.09 9.055c-1.017 1.043-2.048 1.57-3.37 1.57-1.284 0-1.958-.82-1.958-1.681 0-1.246.994-2.294 5.329-2.712v2.823zM76 5.105c-2.893 0-4.02.778-4.02 1.673 0 .679.396 1.098.5 1.2.38-.244 1.459-.86 3.196-.86 2.186 0 2.958 1.036 2.958 2.153v.336c-5.062.534-7.656 1.49-7.656 4.517 0 2.06 1.542 3.623 3.73 3.623 2.19 0 3.428-1.141 3.98-1.644v1.39h2.21V9.196c0-2.696-1.948-4.092-4.898-4.092z" fill="#FFF" mask="url(#b)"/><path d="M121.67 4.305c0-.376-.042-.84-.116-1.228-.182.269-.31.6-.369.906h-.173a2.389 2.389 0 0 0-.364-.906 6.547 6.547 0 0 0-.116 1.228h-.29c0-.475.058-1.038.178-1.505h.257c.157.186.322.488.422.765.099-.277.264-.583.421-.765h.261c.116.467.174 1.034.174 1.505h-.286zM119.034 2.8h1.116v.232h-.413v1.273h-.29V3.032h-.413V2.8z" fill="#FFF"/></g></svg>