<svg width="90" height="22" viewBox="0 0 90 22" xmlns="http://www.w3.org/2000/svg"><title>pivotal</title><path d="M19.97 3.4h-3.197V.317h3.197V3.4zm0 17.633h-3.206V5.683h3.206v15.35zM38.453 5.684L33.99 18.937c-.767 2.158-2.132 2.447-3.242 2.447-1.643 0-2.632-.755-3.218-2.444L23.82 7.924h-1.471v-2.24h3.837l3.835 12.328c.166.527.27.842.736.842.466 0 .58-.308.734-.842l3.911-12.328h3.058-.007zm7.891 0c4.145 0 7.036 2.733 7.036 6.654v2.413c0 3.915-2.89 6.655-7.036 6.655-4.146 0-7.04-2.74-7.04-6.655v-2.428c0-3.918 2.897-6.655 7.04-6.655m0 13.192c2.466 0 4.007-1.874 4.007-4.124v-2.413c0-2.25-1.523-4.127-4.007-4.127-2.626 0-4.007 1.874-4.007 4.127v2.413c0 2.25 1.449 4.124 4.007 4.124M78.96 6.161a27.299 27.299 0 0 0-5.934-.709c-4.207 0-6.817 2.654-6.817 6.93v1.682c0 4.272 2.61 6.966 6.817 6.966.099 0 .845 0 1.187-.031v-2.58c-.13 0-1.091.034-1.187.034-2.287 0-3.828-1.763-3.828-4.389v-1.683c0-2.626 1.541-4.389 3.828-4.389 1.05-.007 2.098.058 3.138.197l.173.037v12.807h3.202V6.69c0-.274 0-.379-.582-.533M82.624.308h3.202v20.725h-3.202zm-76.99 0H0V21.03h3.332V3.19h1.954c.416 0 .767.022 1.122.028 2.888.055 4.315 1.202 4.315 3.446v.243c0 2.078-1.14 3.455-4.29 3.455h-.925v2.774c.324.016.616.028.94.028 4.518 0 7.705-1.775 7.705-6.235V6.66c0-4.624-3.476-6.362-8.51-6.362m53.427 2.06v3.326h5.218v2.465H59.07v8.939c0 1.405.897 1.442 2.198 1.442h3.02v2.484H60.19c-3.024 0-4.37-1.21-4.37-3.926V2.802l3.251-.444zm28.242 17.331a1.338 1.338 0 1 1 1.338 1.344 1.344 1.344 0 0 1-1.338-1.344zm1.341-1.156a1.15 1.15 0 1 0 .804.337 1.15 1.15 0 0 0-.816-.334l.012-.003zm-.308 1.865h-.154v-1.461h.41c.37 0 .548.17.548.44a.428.428 0 0 1-.308.417l.376.6h-.185l-.348-.563-.348.021v.543l.009.003zm.262-.69a.336.336 0 0 0 .388-.309c0-.206-.13-.308-.41-.308h-.246v.638l.268-.021z" fill="#FFF"/></svg>