<svg width="122" height="22" viewBox="0 0 122 22" xmlns="http://www.w3.org/2000/svg"><title>sendgrid</title><g fill="none" fill-rule="evenodd"><path d="M42.22 13.747c.508-1.135 1.57-1.908 2.972-1.908 1.4 0 2.44.652 2.874 1.908h-5.845zm9.18 1.45c0-3.479-2.537-6.257-6.232-6.257a6.268 6.268 0 0 0-6.28 6.28c0 3.48 2.608 6.281 6.376 6.281 2.61 0 4.487-1.259 5.543-3.063l-2.625-1.566c-.556 1.069-1.625 1.73-2.894 1.73-1.739 0-2.826-.87-3.212-2.198H51.4v-1.208zm67.372 0c0-1.788-1.304-3.237-3.092-3.237-1.836 0-3.237 1.377-3.237 3.236 0 1.86 1.401 3.262 3.237 3.262 1.788 0 3.092-1.474 3.092-3.262zm-9.565.024c0-4.276 3.14-6.28 5.87-6.28 1.57 0 2.801.579 3.599 1.425v-6.74h3.309V21.26h-3.31v-1.353c-.797.942-2.077 1.594-3.647 1.594-2.56 0-5.821-2.029-5.821-6.28zm-2.431-7.877a1.98 1.98 0 1 0 0-3.96 1.98 1.98 0 0 0 0 3.96zm-1.655 1.838h3.31V21.26h-3.31v-8.865h-1.2l1.2-3.213zm-8.816 0h3.286v1.98c.603-1.255 1.69-1.98 3.333-1.98h1.328l-1.2 3.213h-.9c-1.764 0-2.537.917-2.537 3.164v5.7h-3.31V9.183zm-18.617 3.26c0-5.023 3.793-9.057 9.01-9.057 2.61 0 4.805.94 6.394 2.437a8.789 8.789 0 0 1 1.626 2.08l-2.947 1.787c-1.087-2.005-2.754-3.043-5.048-3.043-3.213 0-5.701 2.632-5.701 5.797 0 3.237 2.44 5.797 5.821 5.797 2.56 0 4.372-1.45 5-3.696h-5.531v-3.212h9.155v1.352c0 4.735-3.382 8.817-8.624 8.817-5.507 0-9.155-4.179-9.155-9.058zM73.7 15.197c0-1.787-1.304-3.236-3.091-3.236-1.836 0-3.237 1.377-3.237 3.236 0 1.86 1.4 3.262 3.237 3.262 1.787 0 3.091-1.474 3.091-3.262zm-9.565.025c0-4.276 3.14-6.28 5.87-6.28 1.57 0 2.802.579 3.599 1.425v-6.74h3.309V21.26h-3.31v-1.353c-.796.942-2.077 1.594-3.647 1.594-2.56 0-5.821-2.029-5.821-6.28zm-11.96-6.04h3.285v1.354c.773-.99 1.956-1.595 3.333-1.595 2.85 0 4.566 1.836 4.566 4.952v7.368H60v-6.933c0-1.618-.749-2.56-2.222-2.56-1.256 0-2.295.87-2.295 2.898v6.595h-3.31V9.182zm-27.02 9.156l3.067-2.416c.87 1.498 2.247 2.367 3.817 2.367 1.715 0 2.633-1.11 2.633-2.318 0-1.45-1.764-1.909-3.648-2.489-2.367-.724-5-1.642-5-5.024 0-2.826 2.464-5.072 5.87-5.072 2.875 0 4.517 1.087 5.942 2.56l-2.778 2.102c-.724-1.087-1.763-1.667-3.14-1.667-1.57 0-2.415.845-2.415 1.957 0 1.352 1.69 1.811 3.574 2.44 2.392.772 5.097 1.835 5.097 5.217 0 2.802-2.222 5.507-6.11 5.507-3.19 0-5.315-1.353-6.91-3.164z" fill="#FFF"/><path fill="#575D65" d="M14.247 21.245H7.194v-7.053H.141V7.14h7.053v7.053h7.053v7.053"/><path fill="#FFFFFE" d="M.141 21.245h7.053v-7.053H.141z"/><path fill="#ADACAE" d="M21.3 14.192h-7.053V7.14H7.194V.086h7.053v7.053H21.3v7.053"/><path fill="#C5C4C5" d="M7.194 14.192h7.053V7.14H7.194z"/><path fill="#FFFFFE" d="M14.247 7.139H21.3V.086h-7.053z"/></g></svg>