<svg width="53" height="32" viewBox="0 0 53 32" xmlns="http://www.w3.org/2000/svg"><title>Shape</title><path d="M43.187 15.99C49.004 13.38 52.793 9.457 53 5.09c0 0-1.532-1.21-6.48-3.075C42.172.382 38.86 0 38.86 0l.02 9.712c0 1.442-.559 2.927-1.635 4.242A45.265 45.265 0 0 0 26.52 12.68c-3.81 0-7.453.467-10.725 1.273-1.076-1.315-1.635-2.8-1.635-4.242L14.18 0s-3.312.382-7.66 2.015C1.532 3.88 0 5.068 0 5.068c.207 4.369 3.996 8.292 9.813 10.9C3.996 18.62.207 22.542 0 26.911c0 0 1.532 1.208 6.48 3.074C10.828 31.618 14.14 32 14.14 32l-.02-9.712c0-1.442.559-2.927 1.635-4.242A45.265 45.265 0 0 0 26.48 19.32c3.81 0 7.453-.467 10.725-1.273 1.076 1.315 1.635 2.8 1.635 4.242L38.82 32s3.312-.382 7.66-2.015c4.948-1.866 6.48-3.074 6.48-3.074-.166-4.369-3.955-8.292-9.772-10.922zm-16.811 2.184c-3.437 0-6.232-.87-8.302-2.185 2.05-1.314 4.865-2.184 8.302-2.184h.207c3.437 0 6.231.87 8.302 2.184-2.05 1.315-4.865 2.185-8.302 2.185h-.207z" fill="#FFF" fill-rule="nonzero"/></svg>