<svg width="92" height="38" viewBox="0 0 92 38" xmlns="http://www.w3.org/2000/svg" xmlns:xlink="http://www.w3.org/1999/xlink"><title>UW</title><defs><path id="a" d="M0 37.934h91.75V0H0z"/></defs><g fill="none" fill-rule="evenodd"><path d="M64.91 21.615c-.153.07-.226-.012-.27-.142a8.159 8.159 0 0 1-.464-2.716c0-4.63 3.88-8.397 8.657-8.397 4.775 0 8.658 3.767 8.658 8.397a8.16 8.16 0 0 1-.706 3.322c-.067.137-.154.17-.288.12a65.429 65.429 0 0 1-.707-.304c-.11-.05-.102-.176-.076-.237.398-.889.623-1.87.623-2.901 0-4.012-3.37-7.281-7.504-7.281-4.142 0-7.506 3.269-7.506 7.28 0 .783.122 1.537.36 2.244.055.146.08.226-.103.313-.16.076-.518.231-.674.302z" fill="#FFF"/><path d="M62.708 22.603c.183-.086.8-.36.964-.434.168-.075.13-.208.105-.274a8.916 8.916 0 0 1-.563-3.133c0-5.146 4.314-9.33 9.622-9.33 5.297 0 9.615 4.184 9.615 9.33 0 1.317-.286 2.57-.796 3.706-.03.06-.072.195.081.257.154.062.843.362.976.415.135.055.22.036.286-.118.594-1.303.916-2.748.916-4.26 0-5.928-4.974-10.75-11.078-10.75-6.115 0-11.083 4.822-11.083 10.75 0 1.306.242 2.55.686 3.714.026.07.084.209.269.127" fill="#FFF"/><path d="M59.717 23.935c.215-.097 1.521-.682 1.748-.78.233-.101.132-.274.097-.362a11.304 11.304 0 0 1-.744-4.036c0-6.428 5.387-11.656 12.015-11.656 6.623 0 12.014 5.228 12.014 11.656a11.32 11.32 0 0 1-.97 4.583c-.04.083-.085.259.134.352.214.092 1.48.628 1.654.7.169.076.3.062.415-.191a13.505 13.505 0 0 0 1.139-5.444c0-7.696-6.454-13.96-14.386-13.96-7.935 0-14.39 6.264-14.39 13.96 0 1.771.343 3.464.962 5.022.04.084.1.254.312.156" fill="#FFF"/><path d="M72.839 15.73c.849 0 1.544-.67 1.544-1.496 0-.83-.695-1.497-1.544-1.497-.857 0-1.543.667-1.543 1.497 0 .827.686 1.495 1.543 1.495" fill="#FFF"/><path d="M73.405 23.557a.54.54 0 0 0 .545-.53v-3.276c.012-.413.315-.949.611-1.258l3.187-3.087a.518.518 0 0 0 0-.75l-.578-.565a.561.561 0 0 0-.774 0l-2.879 2.797c-.19.175-.321.29-.678.29-.356 0-.492-.115-.678-.29l-2.883-2.797a.56.56 0 0 0-.772 0l-.577.564a.52.52 0 0 0 0 .751l3.183 3.087c.303.309.602.845.615 1.258v3.276c0 .291.244.53.547.53h1.131z" fill="#FFF"/><path d="M83.45 24.719c-.541.187-1.545 1.15-2.006 1.54l-.12.027c.16-.179.856-1.027 1.036-1.32.55-.88-.488-1.716-1.628-1.081-.428.237-1.149.976-1.498 1.24l-.114.024c.155-.147.797-.965.976-1.226.494-.718-.549-1.39-1.45-.866-.636.368-1.157.876-1.693 1.28l-.09.018c.147-.134.502-.54.638-.688.53-.573-.229-1.241-1.03-.84-.767.383-1.879 1.45-3.087 2.206.563.293 1.551.333 3.12.985 1.57.652 2.07 2.166 1.05 3.358-.946 1.107-2.387.734-3.632.36-1.439-.432-1.946-.891-3.683-1.474-1.136-.382-1.598-.371-1.577-.69.02-.359.996-.146 1.913.178 2.544.89 5.921 2.922 6.75.735.654-1.724-2.276-2.475-3.395-2.68-1.565-.288-2.64-1.398-3.995-2.108-2.043-1.068-3.615-1.094-4.784-.889-1.254.218-3.044 1.213-4.13 1.84-.75.434-.7 1.09.04 2.11 2.603 3.588 6.906 5.933 11.77 5.933 5.167 0 9.695-2.652 12.231-6.61.56-.874-.324-1.81-1.612-1.362" fill="#FFF"/><mask id="b" fill="#fff"><use xlink:href="#a"/></mask><path d="M54.778 37.096h36.108V.837H54.778v36.259zm-53.913 0h53.05V.837H.865v36.259zM0 37.934h91.75V0H0v37.934z" fill="#FFF" mask="url(#b)"/><path d="M42.197 34.319c.002.4 1.478.834 2.25.834.777 0 1.856-.28 2.416-1.607.59-1.4 3.021-9.48 3.021-9.48l.27-.004c.552-.095.746-.414.746-1.225 0-.286-.04-.31-.281-.31h-1.997c-.193.006-.21.031-.271.215l-1.662 6.232s-1.713-6.232-1.713-6.228c-.053-.188-.082-.213-.27-.218H42.7c-.244 0-.285.023-.285.31 0 .815.2 1.136.752 1.224l.28.004s1.597 5.42 2.44 7.69l-.124.442c-.272.85-.739 1.243-1.47 1.243-.174 0-1.16-.144-1.16-.144-.554-.047-.703.18-.771.377a3.407 3.407 0 0 0-.165.645M35.387 19.5h-2.383c-.207 0-.212.018-.247.222l-1.341 8.069-1.623-8.032c-.037-.215-.07-.258-.328-.258h-1.09c-.402 0-.415.056-.468.274l-1.69 8.016-1.268-8.07c-.03-.203-.04-.22-.244-.22H22.26c-.257 0-.298.021-.298.322 0 .889.22 1.21.872 1.282l.244.012 1.866 9.929c.059.23.09.277.31.277h1.616c.258 0 .265-.013.312-.277l1.605-7.72 1.358 7.725c.045.26.05.272.311.272h1.649c.22 0 .252-.047.311-.277l2.11-9.936.24-.005c.65-.071.866-.396.866-1.282 0-.282-.042-.311-.244-.322" fill="#FFF" mask="url(#b)"/><path d="M39.476 29.349c-.225.242-.694.726-1.345.726-.673 0-1.188-.554-1.188-1.288 0-1.623 1.992-1.533 2.533-1.495v2.057zm2.122.418c-.095-.343-.19-.773-.19-1.574v-3.129c0-1.963-.88-2.84-2.884-2.84-1.395 0-2.87.584-2.87.95 0 .05.062.333.153.592.038.119.133.389.727.344.241-.018 1.265-.207 1.694-.207 1.137 0 1.248.64 1.248 1.4v.62c-1.418 0-4.466.012-4.466 2.987 0 1.678.96 2.719 2.506 2.719 1.175 0 1.76-.626 2.107-1.001l.135-.143.044.226c.07.36.141.613.434.613h2.055c.256 0 .29-.02.29-.31 0-.89-.225-1.205-.983-1.247zM27.158 15.13h-.219V8.085c0-.17-.007-.19-.176-.19H23.89c-.249 0-.282.02-.282.307 0 .96.263 1.252 1.11 1.252h.21v5.674l-.22.002c-.85 0-1.11.292-1.11 1.253 0 .286.04.31.288.31h4.103c.239 0 .284-.024.284-.31 0-.948-.277-1.253-1.115-1.253M25.911 4.555c-.687 0-1.22.555-1.22 1.262 0 .7.545 1.272 1.22 1.272.666 0 1.203-.573 1.203-1.272 0-.696-.537-1.262-1.203-1.262M12.322 6.784h.056c.866 0 1.146-.313 1.146-1.29 0-.296-.04-.319-.294-.319H9.277c-.226 0-.262.034-.283.165l-.01.154c0 .973.277 1.286 1.13 1.29h.06v5.779c0 1.105 0 2.609-1.832 2.609-1.694 0-1.833-1.184-1.833-2.61V6.785h.058c.855-.004 1.131-.317 1.131-1.29l-.013-.186c-.021-.104-.062-.133-.282-.133h-3.95c-.25 0-.293.023-.293.319 0 .987.266 1.29 1.15 1.29h.053v5.779c0 3.106 1.19 4.436 3.98 4.436 2.786 0 3.979-1.33 3.979-4.436v-5.78zm9.164 8.346v-4.75c0-1.93-.654-2.797-2.119-2.797-1.304 0-2.029.744-2.593 1.304-.042-.203-.088-.365-.088-.365-.089-.388-.159-.626-.417-.626h-2.223c-.244 0-.28.02-.28.307 0 .906.232 1.231 1.025 1.248.11.38.18.693.18 1.6v4.08c-.837.004-1.093.3-1.093 1.253 0 .286.04.31.286.31h2.642c.166 0 .173-.026.173-.192l.002-6.372c.24-.241.787-.769 1.497-.769 1.002 0 1.002 1.105 1.002 1.58v5.56c0 .167.004.192.17.192h2.637c.24 0 .285-.023.285-.309 0-.935-.271-1.245-1.086-1.253M32.096 17c1.175 0 2.124-.297 2.124-.54a5.71 5.71 0 0 0-.109-.544c-.164-.66-.226-.905-1.471-.755a.467.467 0 0 1-.395-.11c-.243-.233-.243-.753-.243-1.17V9.456h1.12c.854 0 1.112-.293 1.112-1.252 0-.288-.038-.307-.284-.307h-1.948V5.418c0-.233-.022-.243-.11-.243-.09-.002-.5.05-.707.081-.576.092-1.195.523-1.195 1.518v1.122h-1.146c-.25 0-.282.02-.282.307 0 .96.259 1.252 1.109 1.252h.319v4.12c0 1.683 0 3.424 2.106 3.424m4.943-5.71l.013-.154c.056-.596.186-1.99 1.47-1.99 1.255 0 1.264 1.421 1.264 2.144H37.04zm4.82 1.165c0-3.228-1.108-4.87-3.291-4.87-2.16 0-3.608 1.93-3.608 4.801 0 3.812 2.008 4.614 3.694 4.614 1.359 0 2.94-.613 2.94-1.003 0-.064-.07-.358-.16-.625-.066-.196-.179-.394-.753-.365-.442.022-1.153.22-1.81.22-1.256 0-1.895-.764-1.9-2.383h4.562c.27 0 .326-.065.326-.39zm4.473 2.862c-1.224 0-1.464-1.086-1.464-2.97 0-1.996.252-3.076 1.568-3.076.524 0 .906.108 1.34.383v4.998c-.26.291-.63.665-1.444.665m3.641-.185c-.11-.345-.182-.706-.182-1.573V4.789c0-.169-.014-.191-.178-.191h-2.65c-.247 0-.29.022-.29.308 0 .927.254 1.23 1.05 1.247l.052.004v2.021l-.164-.11c-.301-.2-.71-.485-1.597-.485-2.064 0-3.16 1.76-3.16 5.072 0 2.802.998 4.344 2.811 4.344 1.435 0 2.386-1.02 2.386-1.02l.11.385c.09.297.1.33.348.33h2.328c.245 0 .287-.024.287-.31 0-.945-.258-1.253-1.151-1.253" fill="#FFF" mask="url(#b)"/></g></svg>