<svg width="200" height="41" viewBox="0 0 200 41" fill="none" xmlns="http://www.w3.org/2000/svg">
<path d="M12.3508 40.6992C9.25166 40.6992 4.87455 39.7982 0.5 35.8812L3.93268 32.083C10.0645 37.5783 16.4531 35.407 18.4289 33.5718C18.5695 33.444 18.7011 33.3162 18.8263 33.1833C12.3687 32.5571 7.64779 28.0024 7.3219 27.6816C2.37609 22.8342 1.25529 16.2474 4.77359 12.6882C8.28806 9.1316 14.9144 10.1323 19.8615 14.9695C20.2935 15.3822 25.1153 20.0865 26.0674 26.056C27.4912 25.0012 28.6487 23.6282 29.4475 22.0466C30.2463 20.4649 30.6643 18.7184 30.6682 16.9465C30.6682 13.8614 29.472 11.0039 27.302 8.90412C25.0438 6.71493 21.8654 5.51106 18.3509 5.51106V0.400391C23.2073 0.400391 27.6572 2.11801 30.8816 5.24013C34.0536 8.31241 35.8006 12.471 35.8006 16.9465C35.8006 23.7288 31.6088 29.7264 25.4872 32.2031C24.7894 34.0498 23.6047 35.7559 21.937 37.3074C20.3011 38.8257 17.1049 40.5113 13.0319 40.6813C12.8051 40.6945 12.578 40.7005 12.3508 40.6992ZM10.1897 15.6468C9.47403 15.6468 8.85804 15.8385 8.42864 16.2768C7.16471 17.5561 7.96345 21.1524 10.9233 24.0496L10.9373 24.0636C10.9808 24.102 15.6122 28.5787 21.0922 28.1199V28.1084C21.1178 23.284 16.3573 18.7114 16.3062 18.6641C16.2959 18.6539 16.2806 18.6437 16.2742 18.6322C14.5208 16.9107 12.0262 15.6468 10.1897 15.6468ZM69.9765 14.8417C69.6903 13.2902 68.4046 10.8709 64.8084 10.8812C62.1297 10.8927 60.3801 12.6065 60.3865 14.4774C60.3942 16.0276 61.3961 17.2571 63.4767 17.6494L67.4346 18.3906C72.5926 19.367 75.3594 22.6949 75.3735 26.672C75.3888 31.0056 71.7696 35.3968 65.1803 35.4185C57.6708 35.4467 54.3378 30.6465 53.8828 26.6298L58.991 25.2573C59.2414 28.0407 61.207 30.5392 65.202 30.5251C68.158 30.5149 69.79 29.035 69.7836 27.0464C69.7759 25.4183 68.5337 24.1492 66.3368 23.7186L62.3776 22.9377C57.8599 22.0393 54.9321 19.1459 54.918 14.8902C54.9001 9.88051 59.3986 6.04654 64.7508 6.02354C71.62 5.99798 74.2719 10.1259 74.9236 13.3042L69.9765 14.8417ZM86.1482 24.1275L86.1865 34.7476L80.6746 34.7693L80.5723 6.57307L91.1553 6.53473C96.7465 6.51173 100.477 10.1974 100.495 15.2889C100.513 20.4213 96.8117 24.0917 91.2205 24.1135L86.1482 24.1275ZM90.5253 19.3772C93.2819 19.367 94.9535 17.7708 94.9471 15.3439C94.9356 12.839 93.2538 11.2914 90.4972 11.3016L86.1444 11.3157L86.1738 19.3887L90.5253 19.3772ZM113.748 23.8783L110.873 23.8898L110.913 34.7476H105.361L105.257 6.57307L116.32 6.53473C121.832 6.51173 125.362 10.2792 125.38 15.1727C125.394 19.1101 123.088 22.0993 119.377 23.1869L125.491 34.6978L119.338 34.7195L113.748 23.8783ZM115.33 19.1383C118.126 19.128 119.758 17.5318 119.752 15.2251C119.744 12.8378 118.097 11.2952 115.302 11.3055L110.827 11.3234L110.856 19.1574L115.33 19.1383ZM160.93 34.6978L147.994 14.7407L148.065 34.745L142.552 34.7655L142.449 6.56924L149.318 6.54368L161.169 25.155L161.101 6.50151L166.614 6.47978L166.718 34.6773L160.93 34.6978ZM136.438 34.745L130.926 34.7668L130.823 6.56924L136.363 6.54368L136.438 34.745ZM194.962 34.3923L194.591 31.1705C193.319 33.0837 190.53 35.0006 186.257 35.0185C178.63 35.0479 172.097 29.5027 172.061 20.3971C172.029 11.2876 178.837 5.65675 186.507 5.62864C193.939 5.60052 198.069 9.92268 199.483 14.2525L194.217 16.1414C193.492 13.6403 191.122 10.7419 186.529 10.761C182.255 10.7738 177.63 13.6966 177.656 20.3792C177.68 26.7436 181.886 30.0293 186.64 30.0114C191.874 29.9935 193.899 26.4841 194.211 24.4956L185.263 24.5275L185.245 19.7555L199.383 19.7044L199.437 34.3808L194.962 34.3923Z" fill="white"/>
</svg>
