<svg width="180" height="52" viewBox="0 0 180 52" fill="none" xmlns="http://www.w3.org/2000/svg">
<g clip-path="url(#clip0_2346_50136)">
<path d="M109.681 15.6376C112.681 15.6376 115.119 13.3368 115.119 10.0774C115.119 7.00973 112.681 4.70898 109.681 4.70898C106.682 4.70898 104.432 7.20146 104.432 10.2691C104.432 13.3368 106.682 15.6376 109.681 15.6376Z" fill="white"/>
<path d="M179.99 45.1645C179.427 45.5479 178.865 45.7397 178.115 45.7397C176.053 45.7397 175.49 43.6306 175.49 41.3299V19.281C174.178 20.0479 172.678 20.6231 171.365 21.1983C169.116 19.6645 165.928 19.0893 163.491 19.0893C155.054 19.0893 147.367 25.0329 147.367 35.578C147.367 36.3449 147.367 37.1118 147.367 37.687C145.492 42.672 142.117 45.3562 137.992 45.3562C131.993 45.3562 128.243 40.3712 128.43 32.3186C128.43 26.1833 131.243 21.5818 134.43 21.5818C135.93 21.5818 137.055 22.7321 137.055 24.8412C137.055 26.9502 136.305 28.8675 134.992 30.0179C135.93 31.7434 137.992 32.8938 140.055 32.8938C142.867 32.8938 144.929 30.7848 144.929 27.5254C144.929 22.3487 140.805 18.8976 134.43 18.8976C125.43 18.8976 119.431 25.4163 119.431 35.1945C119.431 36.7284 119.618 38.2622 119.993 39.7961C118.681 43.0555 116.806 45.3562 115.119 45.3562C113.806 45.3562 113.244 44.3976 113.244 41.7133V18.8976C110.244 20.6231 107.244 21.7735 104.619 22.5404V39.0291C103.307 42.8637 101.432 45.3562 99.5569 45.3562C98.2445 45.3562 97.682 44.3976 97.682 41.7133V28.484C97.682 21.5818 94.8697 18.8976 90.5574 18.8976C85.4952 18.8976 81.9329 23.3073 80.2455 28.1006C80.058 21.5818 77.2457 18.8976 73.1209 18.8976C68.0587 18.8976 64.3089 23.4991 62.809 28.2923V21.9652V21.7735V18.8976C58.1217 21.39 52.6845 23.4991 46.6849 24.8412V0.299805C32.0607 1.64191 25.3111 8.35244 21.7488 24.266C21.5613 25.0329 21.3738 25.7998 21.1863 26.5667C7.49958 27.9088 0 35.1945 0 43.0555C0 48.2321 3.74979 51.2998 8.81201 51.2998C16.8741 51.2998 21.5613 44.3976 24.9361 29.4427L37.4979 28.8675V49.9577H46.6849V27.9088C49.4972 27.3336 51.9346 26.7585 54.1845 25.9915V50.1494H62.809V38.0705C62.809 30.0179 66.9337 25.6081 69.3711 25.6081C71.246 25.6081 71.8085 27.5254 71.8085 31.9351V50.1494H80.433V38.0705C80.433 30.2096 84.1828 25.6081 86.6201 25.6081C88.3075 25.6081 89.245 27.5254 89.245 31.9351V44.0141C89.245 48.6156 91.3074 50.9164 95.2447 50.9164C99.3694 50.9164 102.369 48.4239 104.619 44.3976C104.807 48.8073 107.056 50.9164 110.994 50.9164C115.681 50.9164 119.056 47.8487 121.118 43.0555C123.368 47.4652 127.868 50.9164 134.617 50.9164C140.43 50.9164 145.304 47.4652 147.929 41.7133C149.804 47.8487 154.304 50.9164 158.804 50.9164C162.553 50.9164 165.553 48.9991 167.428 45.5479C168.366 48.8073 170.428 50.9164 173.803 50.9164C177.74 50.7246 180.177 48.4239 179.99 45.1645ZM10.8744 46.1231C8.81201 46.1231 7.31209 44.5893 7.31209 42.2885C7.31209 36.7284 13.1243 31.36 20.9988 30.0179C18.1865 40.3712 14.8117 46.1231 10.8744 46.1231ZM26.2485 26.5667C29.2484 12.3788 33.5606 8.54417 38.2479 6.8186V25.9915L26.2485 26.5667ZM163.303 45.5479C159.366 45.5479 156.366 40.563 156.366 33.2773C156.366 26.1833 158.991 21.7735 163.303 21.7735C164.616 21.7735 166.303 22.1569 167.616 23.6908V42.2885C167.616 42.2885 167.616 42.2885 167.616 42.4803C166.678 44.3976 165.178 45.5479 163.303 45.5479Z" fill="white"/>
</g>
<defs>
<clipPath id="clip0_2346_50136">
<rect width="180" height="51" fill="white" transform="translate(0 0.299805)"/>
</clipPath>
</defs>
</svg>
