<svg width="216" height="49" viewBox="0 0 216 49" fill="none" xmlns="http://www.w3.org/2000/svg">
<g clip-path="url(#clip0_2346_49801)">
<path d="M25.0041 38.7193V34.3333H24.905C23.9624 36.0022 22.5438 37.3473 20.8332 38.194C19.141 39.0236 17.2825 39.4513 15.4006 39.4441C13.2199 39.4847 11.0555 39.0586 9.05037 38.194C7.31326 37.4417 5.74655 36.3406 4.44588 34.958C3.14522 33.5754 2.13789 31.9402 1.48538 30.1523C0.8325 28.4098 0.498641 26.5625 0.500004 24.7C0.50975 22.9105 0.816366 21.1351 1.40718 19.4474C2.01198 17.6822 2.94243 16.048 4.14955 14.6308C5.53713 13.0226 7.26347 11.7468 9.20268 10.8962C11.1419 10.0457 13.2451 9.6419 15.3589 9.71433C18.1049 9.76573 20.801 10.4637 23.2315 11.7523C27.5223 14.0425 30.2282 18.7856 30.2282 22.7828V38.7193H25.0041ZM25.1032 24.6528C25.1221 23.248 24.8633 21.8535 24.342 20.5505C23.8658 19.3577 23.1566 18.2735 22.2565 17.3621C21.3731 16.4767 20.324 15.7768 19.17 15.3031C17.9666 14.803 16.6763 14.5495 15.3745 14.5572C13.9104 14.5218 12.4595 14.8444 11.1463 15.4975C9.9923 16.0929 8.9692 16.9165 8.13798 17.9189C7.34224 18.884 6.73223 19.9902 6.33928 21.1808C5.9654 22.2982 5.77006 23.4684 5.76056 24.6475C5.75631 25.9216 5.9971 27.1845 6.46962 28.3664C6.92823 29.5302 7.59636 30.5987 8.44037 31.5179C9.30062 32.4469 10.331 33.1995 11.4747 33.7345C12.6788 34.3009 13.9936 34.5881 15.3224 34.575C16.6445 34.5878 17.9542 34.3174 19.1648 33.7818C21.5009 32.7586 23.3501 30.8597 24.3211 28.4872C24.8311 27.2727 25.0901 25.9662 25.0823 24.6475L25.1032 24.6528Z" fill="white"/>
<path d="M72.6979 38.9667V23.1353C72.6891 22.3435 72.6387 21.5527 72.5467 20.7663C72.4425 19.7945 72.1745 18.8477 71.7543 17.9667C71.2548 16.8819 70.4373 15.9776 69.4118 15.3755C68.3863 14.7735 67.2022 14.5027 66.0193 14.5998C64.3144 14.5998 63.011 14.9307 62.1142 15.603C61.2623 16.2082 60.577 17.0215 60.1226 17.9667C59.7043 18.8451 59.4531 19.7947 59.3823 20.7663C59.3145 21.7276 59.278 22.4997 59.278 23.0827V38.9667H53.9705V23.1353C54.0141 22.0971 53.9723 21.057 53.8454 20.0257C53.6881 19.0461 53.3332 18.1094 52.8027 17.2734C52.2335 16.344 51.397 15.6111 50.4044 15.1723C49.4981 14.7965 48.5274 14.6038 47.5473 14.605C45.8164 14.605 44.4661 14.9464 43.5172 15.6556C42.6292 16.269 41.9114 17.1006 41.4318 18.0718C40.9993 18.944 40.7323 19.8899 40.6445 20.8609C40.5767 21.8221 40.5402 22.5575 40.5402 23.0722V38.9667H35.2432V22.6468C35.2432 18.1663 36.7395 12.5828 44.6746 10.2086C45.8766 9.88214 47.1158 9.71614 48.3607 9.71484C49.2384 9.71854 50.113 9.8225 50.9675 10.0247C51.8416 10.2259 52.69 10.5273 53.4961 10.9229C54.2808 11.3087 55.0032 11.8116 55.6389 12.4147C56.2654 13.0143 56.7747 13.727 57.1404 14.5157C57.3803 14.1743 57.7035 13.7278 58.1102 13.1816C58.5892 12.5736 59.157 12.0423 59.7942 11.6058C60.6169 11.035 61.5203 10.5923 62.474 10.2926C63.7742 9.90378 65.1276 9.72646 66.4833 9.76737C68.5869 9.70577 70.6727 10.1733 72.5519 11.1278C74.1748 11.9922 75.5201 13.3039 76.4309 14.9097C77.529 17.0511 78.0674 19.4392 77.995 21.8484V38.9667H72.6979Z" fill="white"/>
<path d="M82.959 23.0147C82.959 18.0667 85.5137 13.4024 91.7753 10.8129C93.732 9.9899 95.8457 9.61495 97.9638 9.71508C100.143 9.71411 102.299 10.1703 104.293 11.0545C106.048 11.8825 107.611 13.0725 108.881 14.5475C110.114 15.999 111.059 17.675 111.665 19.4849C112.282 21.2881 112.596 23.1823 112.593 25.0895C112.593 26.9077 112.264 28.7106 111.624 30.4104C110.984 32.1312 110.031 33.7166 108.813 35.0852C107.563 36.5004 106.035 37.638 104.324 38.4259C102.436 39.2941 100.378 39.7266 98.3027 39.6917C96.9825 39.7117 95.6665 39.5347 94.3977 39.1665C93.395 38.8665 92.4294 38.4524 91.5198 37.9321C90.7805 37.5116 90.1089 36.9803 89.5282 36.3563C89.0919 35.8875 88.6992 35.3794 88.3551 34.8383H88.2508V48.4794H82.959V23.0147ZM107.301 24.7796C107.299 23.5022 107.056 22.2369 106.587 21.0502C106.123 19.8515 105.448 18.7467 104.596 17.7883C103.735 16.8224 102.696 16.0355 101.535 15.4719C100.309 14.8814 98.9635 14.5831 97.6041 14.6C96.2806 14.5844 94.9713 14.8755 93.7773 15.4509C92.6459 15.9997 91.6327 16.7671 90.7951 17.7096C89.9522 18.6475 89.294 19.7384 88.8556 20.9242C88.3968 22.1295 88.1635 23.4099 88.1674 24.7008C88.155 26.0735 88.4046 27.4359 88.9025 28.7138C89.3769 29.8944 90.0706 30.973 90.9463 31.8916C91.8149 32.8011 92.8555 33.5263 94.0067 34.0242C95.168 34.5211 96.4154 34.7816 97.6771 34.7906C98.9388 34.7997 100.19 34.557 101.358 34.0767C103.688 33.0972 105.539 31.2301 106.509 28.8819C107.048 27.5833 107.318 26.1872 107.301 24.7796Z" fill="white"/>
<path d="M121.922 38.9671H116.614V0.901367H121.922V38.9671Z" fill="white"/>
<path d="M134.14 3.34799C134.14 3.86742 133.988 4.37519 133.701 4.80709C133.415 5.23898 133.008 5.5756 132.531 5.77438C132.055 5.97316 131.531 6.02517 131.025 5.92383C130.519 5.82249 130.055 5.57236 129.69 5.20507C129.326 4.83777 129.077 4.36981 128.977 3.86035C128.876 3.3509 128.928 2.82284 129.125 2.34294C129.322 1.86305 129.657 1.45287 130.085 1.16429C130.514 0.87571 131.018 0.72168 131.534 0.72168C132.225 0.72168 132.888 0.998379 133.377 1.49091C133.866 1.98344 134.14 2.65145 134.14 3.34799Z" fill="white"/>
<path d="M141.47 38.9658V9.09945C141.426 7.74404 141.724 6.3995 142.336 5.19151C142.945 4.0997 143.803 3.16903 144.838 2.47591C145.357 2.16599 145.895 1.89052 146.449 1.65125C146.942 1.44601 147.453 1.29115 147.977 1.18902C148.533 1.08565 149.096 1.01724 149.661 0.984167C150.255 0.947398 150.943 0.931641 151.746 0.931641H154.968V5.83758H151.746C149.98 5.83758 148.715 6.13873 147.951 6.74103C147.581 7.0156 147.283 7.37656 147.082 7.79287C146.881 8.20918 146.784 8.66838 146.798 9.13097V10.5177H154.968V15.4026H146.778V38.9658H141.47Z" fill="white"/>
<path d="M166.468 3.34799C166.468 3.86742 166.315 4.37519 166.028 4.80709C165.742 5.23898 165.335 5.5756 164.858 5.77438C164.382 5.97316 163.858 6.02517 163.352 5.92383C162.846 5.82249 162.382 5.57236 162.017 5.20507C161.653 4.83777 161.405 4.36981 161.304 3.86035C161.203 3.3509 161.255 2.82284 161.452 2.34294C161.65 1.86305 161.984 1.45287 162.412 1.16429C162.841 0.87571 163.345 0.72168 163.861 0.72168C164.552 0.72168 165.215 0.998379 165.704 1.49091C166.193 1.98344 166.468 2.65145 166.468 3.34799Z" fill="white"/>
<path d="M172.93 38.9667V10.487H177.883V13.0555H177.982C178.474 12.3191 179.109 11.6903 179.848 11.2066C180.498 10.7844 181.199 10.4472 181.934 10.2033C182.546 9.99749 183.179 9.8601 183.821 9.79363C184.401 9.74111 184.86 9.71484 185.197 9.71484V15.2143C183.864 15.2974 182.562 15.6549 181.371 16.2649C180.433 16.8409 179.673 17.6684 179.176 18.6548C178.564 19.7683 178.258 21.3546 178.258 23.4137V38.9667H172.93Z" fill="white"/>
<path d="M191.917 27.0648C192.202 28.3186 192.705 29.5118 193.403 30.5893C194.026 31.5217 194.803 32.339 195.702 33.0055C196.527 33.6195 197.448 34.0883 198.429 34.3922C199.321 34.6752 200.251 34.8222 201.187 34.8281C202.972 34.8827 204.73 34.372 206.213 33.3679C207.472 32.5187 208.513 31.3811 209.252 30.0483H214.56C213.966 31.7437 213.064 33.313 211.901 34.6758C210.898 35.8407 209.719 36.8387 208.407 37.633C207.214 38.3424 205.925 38.8732 204.581 39.2088C203.405 39.5166 202.198 39.6806 200.983 39.6973C199.038 39.7126 197.113 39.3003 195.342 38.4892C193.634 37.7113 192.09 36.6092 190.796 35.2431C189.494 33.8502 188.456 32.2283 187.735 30.458C186.985 28.6261 186.603 26.6619 186.614 24.6801C186.592 20.7054 188.122 16.8813 190.874 14.033C192.21 12.67 193.803 11.5904 195.56 10.8579C197.317 10.1253 199.202 9.75474 201.103 9.76792C202.98 9.76169 204.838 10.1369 206.567 10.871C208.274 11.5943 209.832 12.6329 211.16 13.9332C212.501 15.2559 213.576 16.8272 214.325 18.5608C215.115 20.3933 215.514 22.3724 215.498 24.3702C215.498 24.8482 215.498 25.3787 215.446 25.946C215.394 26.5133 215.373 26.9072 215.347 27.0753L191.917 27.0648ZM210.191 22.9625C210.112 21.8989 209.834 20.8598 209.372 19.9002C208.896 18.8955 208.238 17.9889 207.433 17.2266C206.595 16.4394 205.629 15.8049 204.575 15.3514C203.457 14.8765 202.255 14.6318 201.041 14.6318C199.826 14.6318 198.625 14.8765 197.506 15.3514C196.464 15.8115 195.507 16.4455 194.675 17.2266C193.869 17.9889 193.212 18.8955 192.735 19.9002C192.276 20.8607 191.998 21.8993 191.917 22.9625H210.191Z" fill="white"/>
<path d="M134.274 10.4824H129.05V38.9621H134.274V10.4824Z" fill="white"/>
<path d="M166.654 10.4824H161.43V38.9621H166.654V10.4824Z" fill="white"/>
</g>
<defs>
<clipPath id="clip0_2346_49801">
<rect width="215" height="47.7778" fill="white" transform="translate(0.5 0.701172)"/>
</clipPath>
</defs>
</svg>
