<svg width="127" height="75" viewBox="0 0 127 75" fill="none" xmlns="http://www.w3.org/2000/svg">
<g clip-path="url(#clip0_2346_27534)">
<path d="M39.5117 0.299805H32.2832H24.875L19.8691 30.7811C19.7633 30.7949 19.6575 30.8018 19.5481 30.8156C8.48856 32.2522 -0.0944635 41.3446 0.00078508 51.5118C0.0431191 55.7635 1.5283 59.0848 4.19176 61.8066C6.5977 64.2666 9.87499 65.6001 13.184 65.6001C14.4787 65.6001 15.777 65.3968 17.0293 64.9764C22.9912 62.9712 24.9703 58.0857 25.8981 53.6136C25.8981 53.617 25.8945 53.6239 25.8945 53.6308C26.1626 48.6385 23.4321 43.7081 18.2251 40.7899L16.5777 50.9503C16.0486 53.8341 15.3606 55.5568 13.886 56.053C13.0041 56.3492 11.9176 56.0426 11.1838 55.2915C10.2383 54.3233 9.68448 53.245 9.66683 51.4223C9.61746 46.3404 13.7096 42.3507 18.2251 40.7899C19.6434 40.2902 21.118 40.056 22.7654 40.056C24.4375 40.056 26.198 40.3695 27.8066 40.8966C33.9061 42.3025 37.6031 48.6212 38.5168 55.4637L39.053 59.2985H49.2024L39.5117 0.299805ZM29.1012 31.4357L32.0116 9.62299H32.0998H32.3715L35.6205 33.9647C33.5569 32.8655 31.3625 32.0077 29.1012 31.4357ZM126.471 16.7549V59.295H116.343V16.7549H126.471ZM96.9082 74.031C110.208 74.031 111.235 66.6268 111.235 56.1632L111.323 16.7584H106.08C104.193 16.7584 101.879 18.1399 101.72 19.9213L101.597 21.2959L101.106 20.0004C100.129 17.4268 97.6702 16.0658 93.9944 16.0658C90.3008 16.0658 87.5738 17.4508 85.8875 20.1797C84.2471 22.8326 83.9049 26.2642 83.9049 28.676V45.2172C83.9049 49.3206 84.5187 52.3422 85.7817 54.4509C87.3163 57.0142 89.7999 58.2615 93.3805 58.2615C96.7672 58.2615 99.3283 56.8556 100.591 54.3027L101.194 53.0864V54.4371V59.1743C101.194 63.3398 100.93 66.2891 97.5257 66.2891C96.746 66.2891 94.2096 66.0307 94.2096 62.7059V62.5854H83.9931V62.7921C83.9931 66.0238 84.8891 68.6251 86.6567 70.5201C88.8227 72.8491 92.2728 74.031 96.9082 74.031ZM101.018 43.498C101.018 47.5532 100.432 49.7513 97.3492 49.7513C94.4283 49.7513 94.0331 47.0259 94.0331 44.3592V29.5408C94.0331 26.2022 95.2608 24.5794 97.7903 24.5794C100.634 24.5794 101.018 27.3047 101.018 29.9714V43.498ZM127 7.40074C127 10.4154 124.545 12.7755 121.409 12.7755C118.322 12.7755 115.905 10.4154 115.905 7.40074C115.905 4.33779 118.322 1.9398 121.409 1.9398C124.492 1.9398 127 4.38947 127 7.40074ZM62.562 30.4883V59.2985H52.3456L52.2575 16.7584H57.9371C59.888 16.7584 62.1386 18.1021 62.3857 20.1038L62.4986 21.0203L62.9748 20.2244C64.6222 17.4681 67.2892 16.0694 70.9052 16.0694C76.7224 16.0694 79.6751 19.7318 79.6751 26.9601V59.3019H69.5471V29.1962C69.5471 26.1333 68.4604 24.5794 66.3191 24.5794C63.5463 24.5794 62.562 26.1264 62.562 30.4883Z" fill="white"/>
<path d="M25.8965 53.6295C26.4081 51.4967 27.5933 43.3071 27.8051 40.8955C26.2 40.3717 24.436 40.0547 22.764 40.0547C21.1165 40.0547 19.6418 40.2924 18.2236 40.7886C23.4342 43.7068 26.1647 48.6371 25.8965 53.6295Z" fill="white"/>
</g>
<defs>
<clipPath id="clip0_2346_27534">
<rect width="127" height="73.7311" fill="white" transform="translate(0 0.299805)"/>
</clipPath>
</defs>
</svg>
