<svg width="278" height="59" viewBox="0 0 278 59" fill="none" xmlns="http://www.w3.org/2000/svg">
<g clip-path="url(#clip0_2346_33920)">
<path d="M119.422 25.0936V3.02284H127.786C131.776 2.7662 135.765 4.43435 135.765 8.79718C135.765 11.2352 134.092 12.9034 131.904 13.6733C134.736 14.3149 136.795 16.2397 136.795 19.4476C136.795 23.8104 131.261 25.4786 127.915 25.222H119.422V25.0936ZM127.915 11.8768C129.974 11.8768 131.004 11.1069 131.004 9.31045C131.004 7.51399 129.845 6.74408 127.915 6.74408H124.183V12.0051H127.915V11.8768ZM127.915 21.3724C130.103 21.3724 131.647 20.9874 131.647 18.4211C131.647 15.8547 130.103 15.4697 127.915 15.4697H124.183V21.3724H127.915ZM144.387 3.02284V25.0936H139.754V3.02284H144.387ZM158.414 23.1689C157.384 24.5804 155.969 25.4786 153.652 25.4786C152.108 25.4786 149.148 24.3237 148.634 22.1423C148.376 21.2441 148.376 20.2175 148.376 19.7043V9.69541H153.009V18.9343C153.009 20.6025 153.524 22.5273 155.711 22.5273C157.127 22.5273 158.414 21.2441 158.414 18.9343V9.69541H163.046V22.2706C163.046 23.1689 163.175 24.0671 163.175 24.9653H158.542L158.414 23.1689ZM171.154 18.6777C171.154 20.7308 171.411 22.5273 173.856 22.5273C175.4 22.5273 176.301 21.8857 176.687 20.4742H180.805C180.419 24.3237 177.459 25.4786 173.856 25.4786C168.58 25.4786 166.392 22.5273 166.392 17.3945C166.392 12.7751 169.095 9.18213 173.856 9.18213C176.687 9.18213 179.132 10.2087 180.419 12.9034C180.805 13.8016 181.063 14.6998 181.191 15.5981C181.32 16.4963 181.32 17.5228 181.32 18.5494H171.154V18.6777ZM176.559 15.5981C176.559 13.9299 176.044 12.3901 173.856 12.3901C171.797 12.3901 171.282 13.9299 171.154 15.5981H176.559ZM196.891 10.0804C196.891 7.77063 195.475 5.84585 192.644 5.84585C189.298 5.84585 188.398 10.8503 188.398 13.9299C188.398 17.0096 189.298 22.014 192.644 22.014C195.475 22.014 196.891 20.0892 196.891 17.7795H201.91C201.652 23.2972 197.663 25.3503 192.644 25.3503C186.21 25.3503 183.379 20.3458 183.379 13.8016C183.379 7.38567 186.21 2.25293 192.644 2.25293C197.792 2.25293 201.781 4.30603 201.91 9.82373H196.891V10.0804ZM208.601 9.69541L208.73 12.5184C209.76 10.0804 211.69 9.43877 214.006 9.56709V13.6733H211.947C211.175 13.6733 210.146 14.1866 209.76 14.8281C209.245 15.7264 209.116 16.4963 209.116 17.5228V25.0936H204.483V12.7751C204.483 12.1335 204.355 10.8503 204.355 9.69541H208.601ZM224.044 25.6069C219.025 25.6069 215.937 22.2706 215.937 17.3945C215.937 12.5184 218.896 9.18213 224.044 9.18213C229.063 9.18213 232.151 12.5184 232.151 17.3945C232.151 22.2706 229.063 25.6069 224.044 25.6069ZM224.044 22.5273C226.875 22.5273 227.39 19.8326 227.39 17.3945C227.39 14.9565 226.875 12.2618 224.044 12.2618C221.213 12.2618 220.698 14.9565 220.698 17.3945C220.827 19.8326 221.213 22.5273 224.044 22.5273ZM243.218 13.8016C243.218 12.7751 242.189 12.2618 241.159 12.2618C239.872 12.2618 239.357 12.6467 239.357 13.6733C239.357 16.1113 248.237 14.6998 248.237 20.4742C248.237 23.8104 244.119 25.4786 241.288 25.4786C237.685 25.4786 234.596 24.0671 234.467 20.6025H238.714C238.843 21.7574 239.872 22.5273 241.288 22.5273C242.575 22.5273 243.475 22.014 243.475 20.8591C243.475 19.5759 241.288 19.0627 240.387 18.9343C237.427 18.2928 234.725 17.5228 234.725 14.0582C234.725 10.8503 238.585 9.43877 241.288 9.43877C244.505 9.43877 247.336 10.5936 247.465 14.0582H243.218V13.8016ZM258.532 13.8016C258.532 12.7751 257.502 12.2618 256.473 12.2618C255.186 12.2618 254.671 12.6467 254.671 13.6733C254.671 16.1113 263.55 14.6998 263.55 20.4742C263.55 23.8104 259.432 25.4786 256.601 25.4786C252.998 25.4786 249.91 24.0671 249.781 20.6025H254.028C254.156 21.7574 255.186 22.5273 256.601 22.5273C257.888 22.5273 258.789 22.014 258.789 20.8591C258.789 19.5759 256.601 19.0627 255.701 18.9343C252.741 18.2928 250.038 17.5228 250.038 14.0582C250.038 10.8503 253.899 9.43877 256.601 9.43877C259.819 9.43877 262.65 10.5936 262.778 14.0582H258.532V13.8016ZM119.422 55.1202V33.0494H127.786C131.776 32.7927 135.765 34.4609 135.765 38.8237C135.765 41.2618 134.092 42.9299 131.904 43.6998C134.736 44.3414 136.795 46.2662 136.795 49.4742C136.795 53.837 131.261 55.5051 127.915 55.2485H119.422V55.1202ZM127.915 41.9034C129.974 41.9034 131.004 41.1335 131.004 39.337C131.004 37.5405 129.845 36.7706 127.915 36.7706H124.183V42.0317L127.915 41.9034ZM127.915 51.3989C130.103 51.3989 131.647 51.014 131.647 48.4476C131.647 45.8812 130.103 45.4963 127.915 45.4963H124.183V51.3989H127.915ZM144.387 33.0494V55.1202H139.754V33.0494H144.387ZM158.414 53.1954C157.384 54.6069 155.969 55.5051 153.652 55.5051C152.108 55.5051 149.148 54.3503 148.634 52.0405C148.376 51.1423 148.376 50.1158 148.376 49.6025V39.5936H153.009V48.9609C153.009 50.629 153.524 52.5538 155.711 52.5538C157.127 52.5538 158.414 51.2706 158.414 48.9609V39.722H163.046V52.2972C163.046 53.1954 163.175 54.0936 163.175 54.9919H158.542L158.414 53.1954ZM171.154 48.7043C171.154 50.7574 171.411 52.5538 173.856 52.5538C175.4 52.5538 176.301 51.9122 176.687 50.5007H180.805C180.419 54.3503 177.459 55.5051 173.856 55.5051C168.58 55.5051 166.392 52.5538 166.392 47.4211C166.392 42.8016 169.095 39.2087 173.856 39.2087C176.687 39.2087 179.132 40.2352 180.419 42.9299C180.805 43.8281 181.063 44.7264 181.191 45.6246C181.32 46.5228 181.32 47.5494 181.32 48.5759L171.154 48.7043ZM176.559 45.6246C176.559 43.9565 176.044 42.4166 173.856 42.4166C171.797 42.4166 171.282 43.9565 171.154 45.6246H176.559ZM196.248 39.337C196.119 37.1556 194.832 36.0007 192.516 36.0007C190.714 36.0007 189.041 36.8989 189.041 38.8237C189.041 41.2618 191.229 41.5184 193.159 41.9034C196.505 42.8016 201.524 43.6998 201.524 48.191C201.524 53.7087 196.762 55.6335 192.001 55.6335C186.982 55.6335 183.379 53.7087 183.508 48.0627H188.398C188.269 50.5007 189.685 52.1689 192.13 52.1689C194.06 52.1689 196.505 51.5273 196.505 49.2175C196.505 46.6512 193.288 46.3945 191.486 45.8812C188.398 45.1113 184.151 43.6998 184.151 39.722C184.151 34.7175 188.784 32.4078 193.416 32.4078C197.663 32.4078 201.009 34.7175 201.009 39.2087L196.248 39.337ZM204.741 55.1202V33.0494H209.374V41.6467C210.274 40.2352 211.819 39.337 214.135 39.337C215.679 39.337 218.639 40.4919 219.154 42.6733C219.411 43.5715 219.411 44.5981 219.411 45.1113V55.1202H214.907V45.8812C214.907 44.2131 214.392 42.4166 212.205 42.4166C210.789 42.4166 209.502 43.6998 209.502 45.8812V55.1202H204.741ZM228.29 33.0494V37.0273H223.4V33.0494H228.29ZM228.033 39.722V55.1202H223.4V39.722H228.033ZM236.14 48.7043C236.14 50.7574 236.398 52.5538 238.843 52.5538C240.387 52.5538 241.288 51.9122 241.674 50.5007H245.792C245.406 54.3503 242.446 55.5051 238.843 55.5051C233.567 55.5051 231.379 52.5538 231.379 47.4211C231.379 42.8016 234.081 39.2087 238.843 39.2087C241.674 39.2087 244.119 40.2352 245.406 42.9299C245.792 43.8281 246.049 44.7264 246.178 45.6246C246.306 46.5228 246.306 47.5494 246.306 48.5759L236.14 48.7043ZM241.416 45.6246C241.416 43.9565 240.902 42.4166 238.714 42.4166C236.655 42.4166 236.14 43.9565 236.012 45.6246H241.416ZM253.642 33.0494V55.1202H249.009V33.0494H253.642ZM268.312 33.0494H272.945V52.1689C272.945 53.1954 273.073 54.222 273.073 55.2485H268.441C268.441 54.4786 268.312 53.837 268.312 53.0671C267.282 54.8635 265.609 55.7618 263.55 55.7618C259.046 55.7618 256.859 51.5273 256.859 47.5494C256.859 43.4432 259.304 39.337 264.065 39.337C265.609 39.337 267.282 40.2352 268.183 41.5184L268.312 33.0494ZM264.966 52.5538C267.411 52.5538 268.312 49.6025 268.312 47.4211C268.312 45.368 267.54 42.2883 264.966 42.2883C262.006 42.2883 261.62 44.983 261.62 47.4211C261.62 49.7308 262.006 52.5538 264.966 52.5538ZM265.738 25.0936C264.966 25.0936 264.323 24.452 264.323 23.6821C264.323 22.9122 264.966 22.2706 265.738 22.2706C266.51 22.2706 267.154 22.9122 267.154 23.6821C267.154 24.452 266.639 25.0936 265.738 25.0936ZM265.738 21.8857C264.837 21.8857 264.065 22.6556 264.065 23.5538C264.065 24.452 264.837 25.222 265.738 25.222C266.639 25.222 267.411 24.452 267.411 23.5538C267.411 22.6556 266.639 21.8857 265.738 21.8857Z" fill="#14111D"/>
<path d="M265.739 23.5555H265.353V22.9139H265.868C266.125 22.9139 266.383 22.9139 266.383 23.1705C266.383 23.5555 265.997 23.5555 265.739 23.5555ZM266.64 23.1705C266.64 22.7855 266.511 22.6572 265.997 22.6572H265.096V24.582H265.353V23.6838H265.739L266.383 24.582H266.64L266.125 23.6838C266.383 23.6838 266.64 23.5555 266.64 23.1705ZM275.648 54.9935C274.876 54.9935 274.232 54.3519 274.232 53.582C274.232 52.8121 274.876 52.1705 275.648 52.1705C276.42 52.1705 277.064 52.8121 277.064 53.582C277.064 54.3519 276.42 54.9935 275.648 54.9935ZM275.648 51.7855C274.747 51.7855 273.975 52.5555 273.975 53.4537C273.975 54.3519 274.747 55.1218 275.648 55.1218C276.549 55.1218 277.321 54.3519 277.321 53.4537C277.321 52.5555 276.549 51.7855 275.648 51.7855Z" fill="#14111D"/>
<path d="M275.515 53.4539H275.129V52.8123H275.643C275.901 52.8123 276.158 52.8123 276.158 53.0689C276.158 53.4539 275.901 53.4539 275.515 53.4539ZM276.544 53.0689C276.544 52.684 276.416 52.5557 275.901 52.5557H275V54.4804H275.257V53.5822H275.643L276.158 54.4804H276.416L275.901 53.5822C276.287 53.5822 276.544 53.4539 276.544 53.0689Z" fill="#14111D"/>
<path d="M49.4158 49.4766C47.7429 49.4766 46.4561 50.7597 46.4561 52.4279C46.4561 54.096 47.7429 55.3792 49.4158 55.3792C50.9601 55.3792 52.3756 54.096 52.3756 52.4279C52.3756 50.7597 51.0888 49.4766 49.4158 49.4766ZM49.4158 54.8659C48.0003 54.8659 46.9708 53.8394 46.9708 52.4279C46.9708 51.0164 48.0003 49.9898 49.4158 49.9898C50.8314 49.9898 51.8609 51.0164 51.8609 52.4279C51.8609 53.8394 50.9601 54.8659 49.4158 54.8659Z" fill="#14111D"/>
<path d="M50.9569 51.6569C50.9569 51.0153 50.6995 50.7586 49.7987 50.7586H48.3832V54.0949H48.7693V52.6834H49.5414L50.4422 54.0949H50.9569L49.9274 52.6834C50.5709 52.5551 50.9569 52.2985 50.9569 51.6569ZM49.4127 52.1702H48.7693V51.1436H49.6701C50.0561 51.1436 50.4422 51.1436 50.4422 51.6569C50.5709 52.2985 49.7987 52.1702 49.4127 52.1702ZM26.2492 32.794C26.1205 32.794 26.1205 32.794 25.9918 32.9224L21.1017 40.3648C22.646 41.0064 24.3189 41.3914 26.1205 41.3914C27.9221 41.3914 29.595 41.0064 31.1392 40.3648L26.2492 32.9224C26.3779 32.794 26.2492 32.794 26.2492 32.794ZM21.4878 26.6348L14.1527 25.9932C13.8953 26.8914 13.7666 27.9179 13.7666 28.9445C13.7666 32.0241 14.9248 34.8471 16.7264 37.0286L21.8738 27.2763C22.1312 27.0197 22.0025 26.7631 21.4878 26.6348Z" fill="#14111D"/>
<path d="M37.8338 17.2686V2.76855H14.5415V17.2686H0V40.4942H14.5415V54.9942H37.8338V40.4942H52.3753V17.2686H37.8338ZM26.252 14.5739C32.0429 14.5739 37.0616 17.9101 39.2493 22.9146H28.9544C27.5389 22.9146 26.8954 22.0163 26.7667 21.3748C26.7667 20.6048 26.8954 20.3482 27.5389 19.45C28.311 18.4234 27.7962 16.627 26.1233 16.4986C24.4504 16.4986 23.9356 18.4234 24.7078 19.45C25.3512 20.3482 25.4799 20.6048 25.4799 21.3748C25.4799 22.0163 24.8364 22.9146 23.2922 22.9146H12.9973C15.4423 18.0385 20.4611 14.5739 26.252 14.5739ZM11.8391 28.9455C11.8391 27.1491 12.2252 25.4809 12.7399 23.9411L22.3914 24.8394C24.193 25.096 24.4504 26.8924 23.9356 27.919L17.3726 40.3659C14.0268 37.6712 11.8391 33.565 11.8391 28.9455ZM34.1019 41.0075C31.7855 42.5473 29.0831 43.3172 26.1233 43.3172C23.1635 43.3172 20.4611 42.419 18.1448 41.0075L25.2225 30.6137C25.7372 29.8438 26.5094 29.9721 27.0241 30.6137L34.1019 41.0075ZM35.1313 40.2376L28.5683 27.919C28.0536 26.8924 28.311 25.096 30.1126 24.8394L39.764 23.9411C40.4075 25.4809 40.6649 27.2774 40.6649 28.9455C40.6649 33.565 38.4772 37.6712 35.1313 40.2376Z" fill="#14111D"/>
<path d="M35.6485 20.8613C34.1043 19.0648 32.0453 17.6533 29.729 17.0117C30.5011 18.1666 29.8577 19.8347 29.2142 20.6046C29.0855 20.733 29.2142 20.8613 29.2142 20.8613H35.6485ZM31.0158 26.6356C30.5011 26.6356 30.5011 26.8922 30.6298 27.1489L35.7772 36.9011C37.5788 34.7197 38.737 31.8967 38.737 28.817C38.737 27.7905 38.6083 26.7639 38.351 25.8657L31.0158 26.6356ZM22.7799 17.14C20.4636 17.7816 18.4046 19.1931 16.8604 20.9896H23.2947C23.4233 20.9896 23.4233 20.8613 23.2947 20.733C22.6512 19.8347 22.0078 18.2949 22.7799 17.14Z" fill="#14111D"/>
<path d="M78.8162 17.2456C78.7662 17.173 78.7108 17.0925 78.63 17.0119C78.5767 16.9588 78.5234 16.9496 78.4609 16.939C78.3726 16.9239 78.266 16.9056 78.1152 16.7553C78.285 16.7891 78.4727 16.8141 78.6642 16.8395C79.1982 16.9104 79.7614 16.9852 80.0455 17.2686H79.7882C79.6595 17.3969 79.5308 17.5252 79.2734 17.5252C79.0085 17.5252 78.9254 17.4044 78.8162 17.2456Z" fill="#14111D"/>
<path fill-rule="evenodd" clip-rule="evenodd" d="M88.41 12.3924C86.0937 12.6491 83.6486 12.9057 81.3323 12.9057C79.132 12.9057 76.9318 12.6742 74.6213 12.431L74.2545 12.3924C71.9382 12.0075 69.6218 11.4942 67.1768 10.8526C65.5039 15.7287 65.7613 21.888 67.1768 27.2774C69.6218 37.5429 75.9275 45.3703 81.3323 48.8349C86.8658 45.3703 93.0427 37.5429 95.4878 27.2774C96.7746 21.7597 97.1607 15.7287 95.4878 10.8526C95.1671 10.9368 94.8508 11.0209 94.5378 11.1042C92.4646 11.6559 90.5343 12.1695 88.41 12.3924ZM80.0454 44.0871C79.9619 44.4204 80.0411 44.6454 80.1069 44.8325C80.1424 44.9336 80.1741 45.0237 80.1741 45.1137C80.0454 45.4986 79.7881 45.3703 79.6594 45.1137C79.402 44.7287 79.2733 44.4721 79.2733 43.8305C79.1557 42.8921 79.5757 42.4898 79.8453 42.2316C79.8706 42.2074 79.8946 42.1844 79.9167 42.1624C80.1741 41.9057 80.4315 41.7774 80.4315 41.7774L80.5602 43.4455C80.3028 43.4455 80.0454 43.5739 80.0454 44.0871ZM82.2331 45.7553C82.2331 46.0119 82.1044 46.2686 81.5897 46.2686C81.2036 46.2686 80.9462 46.1402 80.9462 45.627C80.8175 43.5739 80.8175 39.8526 80.8175 39.8526C80.8175 39.8526 81.3323 39.9809 81.7183 40.2376C81.847 40.2376 82.1044 40.4942 82.3618 40.7508C82.3618 40.815 82.394 40.8471 82.4261 40.8792C82.4583 40.9112 82.4905 40.9433 82.4905 41.0075C82.3618 42.419 82.2331 45.1137 82.2331 45.7553ZM83.906 41.9057C83.3913 42.2907 82.8765 42.419 82.8765 42.419V40.8792C82.8765 40.8792 83.0052 40.7508 83.0052 40.4942C82.8765 40.2376 81.847 39.4677 81.3323 39.211C80.6889 38.9544 79.9167 38.6978 79.402 38.5694C78.1151 38.0562 77.6004 36.9013 78.1151 35.6181C78.231 35.1562 78.7637 34.9021 79.0567 34.7623C79.0892 34.7469 79.1189 34.7327 79.1446 34.7199C79.402 34.5916 79.9167 34.4632 79.9167 34.4632L80.0454 36.2597C80.0454 36.2597 79.9167 36.2597 79.7881 36.5163C79.6594 36.773 79.9167 37.0296 80.0454 37.0296C80.9462 37.4146 82.1044 37.9278 83.0052 38.4411C84.1634 39.0827 84.5494 39.596 84.5494 40.4942C84.6781 41.1358 84.2921 41.6491 83.906 41.9057ZM81.6003 33.6814C81.9143 33.718 82.1856 33.7496 82.6191 33.8216L82.4905 37.4146L80.9462 36.6447L80.6889 33.565C81.0837 33.6213 81.3551 33.6529 81.6003 33.6814ZM85.8363 34.3349C85.7076 34.9765 85.3216 35.4898 84.6781 35.8747C84.0347 36.2597 83.2626 36.2597 83.2626 36.2597V34.0783C83.2626 34.0783 83.3913 34.0783 83.52 33.95C83.6486 33.8216 83.6486 33.6933 83.6486 33.565C83.6486 33.4367 83.52 33.3084 83.3913 33.1801C83.1339 33.0517 82.8765 33.0517 82.7478 33.0517L79.6594 32.6668C77.8578 32.4101 76.4422 31.2553 76.5709 29.4588C76.689 28.3989 77.6743 27.9875 78.5319 27.6294C78.6087 27.5973 78.6845 27.5657 78.7586 27.534L79.402 28.8172C79.5307 29.3305 79.6594 29.5871 79.6594 29.5871C79.6594 29.5871 79.2733 29.7155 79.2733 29.9721C79.2733 30.2287 79.6594 30.357 79.7881 30.357C81.0749 30.4854 82.8765 30.742 83.7773 31.127C84.4208 31.3836 84.9355 31.6402 85.3216 32.1535C85.8363 33.0517 85.965 33.6933 85.8363 34.3349ZM79.9167 25.9942C79.9167 25.9942 80.3028 25.9942 81.461 26.1225C82.2331 26.1225 82.8765 26.3792 82.8765 26.3792L82.7478 30.2287C82.2074 30.1517 81.8059 30.0747 81.4044 29.9978C81.1367 29.9464 80.869 29.8951 80.5602 29.8438C80.3519 28.7018 80.0595 28.1477 79.6828 27.4341C79.5939 27.2658 79.5003 27.0884 79.402 26.8924C79.2733 26.6358 79.402 26.5075 79.402 26.5075C79.5307 26.3792 80.0454 26.2509 80.0454 26.2509L79.9167 25.9942ZM83.3913 29.8438C83.3913 29.8438 83.52 28.0473 83.52 27.1491C84.0347 27.0208 84.1634 26.5075 83.906 26.1225C83.7773 25.8659 83.3913 25.7376 83.2626 25.7376C82.5655 25.5638 81.9275 25.5077 81.2686 25.4498C80.9543 25.4221 80.6352 25.3941 80.3028 25.3526C79.4021 25.2243 78.63 25.096 77.8579 24.9677C76.185 24.5827 74.6406 23.6845 73.8685 22.1447C72.9677 20.2199 73.7398 17.7818 75.6701 16.8836C77.0856 16.1137 78.6299 16.242 80.0454 16.8836C80.4881 16.9939 80.7404 17.389 80.9661 17.7423C81.0028 17.7998 81.0389 17.8562 81.0749 17.9101C81.1139 17.949 81.1646 17.9878 81.22 18.0302C81.3476 18.1279 81.4999 18.2445 81.5897 18.4234C81.7184 18.5517 81.461 18.5517 81.461 18.5517C81.2036 18.6801 80.0454 18.6801 79.7881 18.5517H78.2438C78.6299 18.8084 79.1446 19.065 79.6594 19.3216C79.7881 19.3858 79.9167 19.4179 80.0454 19.45C80.1741 19.482 80.3028 19.5141 80.4315 19.5783C80.5602 19.5783 80.8175 19.7066 80.8175 19.8349C80.8175 19.9142 80.7192 19.9445 80.5834 19.9864C80.4994 20.0123 80.4011 20.0425 80.3028 20.0916C79.9167 20.2199 79.402 20.2199 78.8873 20.0916C78.575 20.0397 78.326 19.9248 78.106 19.8234C77.7819 19.674 77.5209 19.5537 77.2143 19.7066C76.8283 19.9632 76.8283 20.3482 76.957 20.8615C77.0777 21.5836 77.7645 21.8542 78.3802 22.0968L78.5012 22.1447C79.4508 22.4789 80.449 22.5713 81.443 22.6633C82.7389 22.7833 84.0277 22.9026 85.1929 23.5562C85.965 23.9411 86.9945 24.8393 87.1232 25.7376C87.7666 29.3305 83.3913 29.8438 83.3913 29.8438ZM87.2519 17.9101C87.1591 18.1876 87.0664 18.2651 86.9254 18.3828C86.8708 18.4284 86.809 18.4801 86.7371 18.5517C86.4254 18.8625 86.0194 19.1733 85.5761 19.5126C85.2873 19.7337 84.9827 19.9668 84.6781 20.2199L84.5595 20.3082C84.1029 20.6474 83.7471 20.9117 83.3913 21.5031C83.2626 21.6314 83.1339 21.888 83.1339 21.888C82.5261 21.7668 81.947 21.7029 81.3967 21.6421C80.7817 21.5741 80.2026 21.5102 79.6594 21.3747V20.3482C79.6594 20.3482 80.8175 20.3482 80.9462 19.5783C80.9462 19.5783 80.9462 19.3216 80.8175 19.1933C80.7194 19.0955 80.4716 18.9976 80.3024 18.9567C81.1605 19.1016 82.0185 19.4682 82.8765 19.8349C82.8765 19.7066 82.7478 19.3216 82.7478 19.3216C82.6192 19.1933 82.4905 19.065 82.1044 18.9367C81.5897 18.8084 80.1741 18.6801 80.1741 18.6801H81.3323C81.5897 18.6801 81.9757 18.5517 81.9757 18.4234C82.1044 18.2951 81.9757 18.0385 81.7183 17.7818L81.3323 17.3969C81.2679 17.2686 81.1714 17.1402 81.0749 17.0119C80.9784 16.8836 80.8819 16.7553 80.8175 16.627C80.5602 16.242 79.5307 15.857 79.5307 15.857C79.5307 15.857 79.402 15.2155 79.6594 14.9588C79.7881 14.7022 80.3028 14.7022 80.4315 14.8305C81.0749 15.2155 81.9757 15.6004 82.8765 15.857C83.1339 15.9854 83.1339 15.9854 83.1339 16.3703C83.2004 16.7018 83.1638 17.1019 83.1307 17.4642C83.0997 17.8031 83.0717 18.1091 83.1339 18.2951C83.1339 18.4234 83.3913 18.4234 83.3913 18.4234C83.7976 18.1919 84.1253 17.9082 84.4454 17.6312C84.8349 17.294 85.2131 16.9666 85.7076 16.7553C86.3511 16.4986 87.5092 17.0119 87.2519 17.9101Z" fill="#14111D"/>
<path fill-rule="evenodd" clip-rule="evenodd" d="M99.2195 2.76855C93.5573 5.59156 87.8951 7.13139 81.3321 7.13139C74.7691 7.13139 69.1069 5.59156 63.4447 2.76855C59.7128 10.0827 59.1981 21.888 62.4152 31.7686C65.5037 41.2641 71.552 49.9898 81.3321 55.3792C91.2409 49.9898 97.1605 41.2641 100.249 31.7686C103.595 21.888 102.951 10.0827 99.2195 2.76855ZM81.4608 50.888C73.3536 45.8836 68.9782 38.6978 66.2758 30.6137C63.8308 23.4278 63.1873 14.9588 65.8898 8.41457C69.8807 9.78253 72.1794 10.1863 74.3089 10.5603L74.5117 10.596C76.5707 10.9809 78.3723 11.1093 81.4608 11.1093C84.302 11.1093 86.1945 10.8728 88.1629 10.6268L88.4098 10.596L88.7809 10.531C90.8769 10.1646 93.2665 9.74685 97.0318 8.41457C99.6055 14.9588 99.0908 23.4278 96.6458 30.6137C93.8147 38.6978 89.568 45.8836 81.4608 50.888Z" fill="#14111D"/>
<path fill-rule="evenodd" clip-rule="evenodd" d="M99.8632 50.7597C100.764 50.7597 101.021 51.0163 101.021 51.6579C101.021 52.2995 100.507 52.5562 99.8632 52.6845L100.893 54.096H100.378L99.4772 52.6845H98.8337V54.096H98.4477V50.7597H99.8632ZM98.8337 52.2995H99.4772C99.8632 52.2995 100.507 52.2995 100.507 51.7863C100.507 51.273 100.121 51.273 99.7345 51.273H98.8337V52.2995Z" fill="#14111D"/>
<path fill-rule="evenodd" clip-rule="evenodd" d="M99.4771 49.6048C97.9328 49.6048 96.646 50.888 96.646 52.4278C96.646 53.9677 97.9328 55.2509 99.4771 55.2509C101.021 55.2509 102.308 53.9677 102.308 52.4278C102.308 50.888 101.021 49.6048 99.4771 49.6048ZM99.4771 54.8659C98.0615 54.8659 97.032 53.8393 97.032 52.4278C97.032 51.0163 98.0615 49.9898 99.4771 49.9898C100.893 49.9898 101.922 51.0163 101.922 52.4278C101.922 53.8393 100.893 54.8659 99.4771 54.8659Z" fill="#14111D"/>
</g>
<defs>
<clipPath id="clip0_2346_33920">
<rect width="277.962" height="58" fill="white" transform="translate(0 0.201172)"/>
</clipPath>
</defs>
</svg>
