<svg width="169" height="41" viewBox="0 0 169 41" fill="none" xmlns="http://www.w3.org/2000/svg">
<path fill-rule="evenodd" clip-rule="evenodd" d="M0 15.6634V30.8268H6.95348C11.4673 30.8268 14.1091 30.8072 14.4832 30.7709C15.7933 30.6439 16.8819 30.3487 17.9869 29.821C18.9909 29.3415 19.5962 28.9157 20.3625 28.15C21.102 27.4112 21.5364 26.8163 21.9699 25.9489C23.5658 22.756 23.0796 18.334 20.888 16.1083C20.4389 15.6522 20.1013 15.3951 19.4791 15.035L19.0461 14.7845L19.3736 14.5458C20.4189 13.7842 21.2471 12.5823 21.7326 11.1222C22.0428 10.1896 22.1218 9.59997 22.0851 8.49328C22.0069 6.13358 21.1675 4.17711 19.6179 2.74255C18.5195 1.72579 16.9374 0.97666 15.2704 0.684009C15.1543 0.663616 15.0119 0.638441 14.9539 0.627982C14.3846 0.525439 12.7527 0.5 6.74402 0.5H0V15.6634ZM118.59 10.8673C118.606 20.4771 118.614 21.2765 118.7 21.807C119.547 27.009 123.061 30.4409 128.334 31.2151C128.833 31.2882 129.453 31.3201 130.365 31.3194C131.402 31.3187 131.941 31.284 132.62 31.1741C132.729 31.1565 132.907 31.1279 133.016 31.1106C134.194 30.9228 135.854 30.2881 136.967 29.6009C139.412 28.0897 141.169 25.6065 141.811 22.7543C142.14 21.295 142.121 21.9903 142.14 10.7622L142.158 0.5H139.863H137.569L137.55 10.6571C137.534 19.9579 137.525 20.8519 137.442 21.261C137.125 22.8451 136.537 24.0179 135.586 24.9654C135.067 25.4828 134.516 25.8655 133.807 26.2014C133.279 26.451 132.532 26.6927 132.104 26.752C131.987 26.7682 131.834 26.7923 131.766 26.8054C131.148 26.9241 129.651 26.9222 128.941 26.8019C128.854 26.7871 128.712 26.7635 128.625 26.7493C128.267 26.6909 127.469 26.4511 127.084 26.2864C126.247 25.9281 125.64 25.5067 124.984 24.8281C123.921 23.7288 123.366 22.4863 123.167 20.7595C123.132 20.4539 123.113 16.8161 123.113 10.3943L123.112 0.5H120.843H118.574L118.59 10.8673ZM53.6314 5.45372L53.6177 8.25251H51.732H49.8463V10.276V12.2996H51.732H53.6177L53.6461 18.0548C53.6716 23.2197 53.6839 23.8613 53.7663 24.3094C54.1281 26.2772 54.81 27.6394 56.0422 28.8558C56.9454 29.7474 57.8104 30.2516 59.0083 30.5848C59.8507 30.8192 60.3657 30.8822 61.4507 30.8839C62.1046 30.8849 62.3946 30.8706 63.1123 30.8019C63.2156 30.792 63.218 30.7483 63.2315 28.658L63.2453 26.5241L62.7832 26.559C61.3637 26.6663 60.4324 26.4718 59.5858 25.8914C59.2129 25.6357 58.8755 25.2178 58.6297 24.7072C58.1877 23.7886 58.2143 24.2063 58.1944 17.8837L58.1767 12.2726L62.1478 12.2861L66.1189 12.2996L66.149 18.1074C66.1817 24.3877 66.1665 24.0488 66.4685 25.2292C66.8626 26.7698 67.8221 28.336 68.9522 29.2835C69.7717 29.9705 71.1621 30.5885 72.2903 30.7672C72.9206 30.867 73.1098 30.8804 73.9255 30.8827C74.6019 30.8847 74.8959 30.8706 75.6134 30.8019C75.7167 30.792 75.7192 30.7483 75.7327 28.658L75.7464 26.5241L75.2843 26.559C72.9593 26.7346 71.5167 25.989 70.9369 24.3119C70.6889 23.5944 70.6819 23.4131 70.6817 17.6725L70.6815 12.2708L72.5672 12.2747L74.453 12.2785V10.276V8.27364L72.5672 8.27742L70.6815 8.28126V5.46812V2.65493H68.4139H66.1462L66.1325 5.45372L66.1189 8.25251L62.1496 8.26596L58.1804 8.27947V5.46718V2.65493H55.9127H53.6451L53.6314 5.45372ZM14.5055 5.04081C16.5516 5.45761 17.4134 6.46954 17.4976 8.55399C17.5568 10.0161 17.2313 10.9446 16.3821 11.7361C15.846 12.2358 14.9108 12.642 13.9705 12.7834C13.8441 12.8024 11.6816 12.8266 9.16486 12.8372L4.58902 12.8563V8.88511V4.91389L9.24398 4.91557L13.8989 4.9172L14.5055 5.04081ZM113.126 7.52351C113.121 7.5273 112.974 7.54532 112.8 7.56356C111.174 7.73396 109.579 8.40646 108.34 9.44372C108.085 9.65669 108.017 9.68691 108.031 9.57963C108.035 9.54353 108.036 9.18875 108.033 8.79124L108.027 8.06855H105.811H103.596V19.4477V30.8268H105.89H108.185L108.191 24.086C108.194 20.3786 108.194 17.309 108.19 17.2646C108.183 17.1913 108.237 16.7965 108.319 16.3204C108.389 15.9125 108.607 15.3067 108.827 14.9082C109.537 13.621 110.605 12.7884 112.094 12.3601C112.82 12.1513 113.38 12.0873 114.396 12.097L115.2 12.1046V9.87949C115.2 8.65564 115.182 7.6434 115.161 7.6301C115.072 7.57555 113.185 7.47679 113.126 7.52351ZM156.748 7.57618C155.973 7.65444 155.829 7.67904 155.236 7.83472C153.713 8.23427 152.166 9.11133 150.961 10.2582L150.541 10.6579V9.36325V8.06855H148.326H146.11L146.123 24.2843L146.137 40.5H148.405H150.673L150.686 34.4484L150.7 28.3967L151.057 28.7314C151.695 29.3307 152.604 29.9594 153.43 30.3741C154.767 31.0449 156.127 31.3413 157.779 31.3218C158.611 31.3119 158.849 31.2968 159.403 31.2188C160.49 31.0655 161.721 30.6689 162.759 30.1372C166.16 28.3959 168.497 24.8771 168.949 20.8142C169.017 20.2041 169.017 18.5842 168.949 17.976C168.795 16.5982 168.405 15.2559 167.788 13.9815C166.375 11.0629 164.049 8.99586 161.115 8.0521C159.737 7.60882 158.144 7.43526 156.748 7.57618ZM36.1161 7.57455C36.1103 7.57933 35.9808 7.59799 35.8283 7.61602C34.6367 7.75677 33.6145 8.06167 32.466 8.61874C30.0912 9.77069 28.1819 11.6837 27.0088 14.0866C26.1548 15.8361 25.7826 17.4487 25.7777 19.4214C25.7749 20.5329 25.8348 21.1535 26.0386 22.1233C26.9434 26.4288 30.3308 29.9518 34.5787 31.0053C34.8673 31.0768 35.1924 31.1487 35.3012 31.165C36.0198 31.2727 36.1874 31.2895 36.9293 31.3278C37.4665 31.3555 38.7593 31.2981 39.3759 31.219C40.4895 31.0763 41.8453 30.67 42.8684 30.1723C44.7667 29.2489 46.1704 27.9059 47.2451 25.9849C47.5495 25.4409 48.0517 24.3083 48.1334 23.982L48.1693 23.8384L45.7048 23.8243L43.2404 23.8101L42.9081 24.3094C42.4975 24.9264 42.11 25.3814 41.6968 25.7318C40.1037 27.0827 37.3998 27.4943 35.199 26.7208C34.252 26.388 33.4826 25.912 32.7247 25.19C31.9454 24.4476 31.3783 23.6293 30.949 22.6275C30.7534 22.1712 30.488 21.2449 30.488 21.0187V20.893H39.6397H48.7913L48.7911 20.5383C48.7908 19.9415 48.6888 18.5466 48.6042 17.9835C48.086 14.5327 46.4284 11.6533 43.8441 9.71445C41.9196 8.27064 39.466 7.50233 36.9337 7.55053C36.4898 7.55894 36.1218 7.56976 36.1161 7.57455ZM87.1319 7.56545C87.1211 7.57518 87.0055 7.59604 86.875 7.61186C85.2382 7.80975 83.6861 8.38007 82.2355 9.31657C79.2347 11.254 77.2474 14.4863 76.856 18.0659C76.7741 18.8154 76.7871 20.3665 76.8813 21.0875C77.2174 23.6589 78.2989 25.9548 80.0178 27.7461C81.9262 29.7349 84.4756 30.9959 87.1651 31.2812C87.6374 31.3313 89.366 31.3313 89.8805 31.2812C93.4324 30.9355 96.2889 29.2143 98.0247 26.374C98.1798 26.1201 98.3901 25.7469 98.4919 25.5445C98.6561 25.2183 99.1318 24.0746 99.175 23.9023C99.188 23.8508 98.6635 23.8361 96.7124 23.8333L94.2332 23.8299L93.8734 24.3644C93.6755 24.6584 93.3091 25.1105 93.059 25.3689C92.192 26.2651 91.334 26.6981 89.7873 27.0204C89.6293 27.0533 88.7535 27.1204 88.4838 27.1203C85.5646 27.1191 82.9007 25.2038 81.8578 22.3563C81.6979 21.9198 81.4958 21.1556 81.4951 20.985C81.4947 20.8978 81.9659 20.893 90.6545 20.893H99.8143L99.7813 19.9338C99.7409 18.7571 99.6794 18.201 99.4794 17.2028C98.6928 13.276 96.1502 9.99217 92.7315 8.48766C91.8995 8.12148 90.9054 7.81653 90.1659 7.70058C89.966 7.66926 89.7431 7.63015 89.6706 7.6137C89.5277 7.58127 87.1641 7.53633 87.1319 7.56545ZM38.3737 11.8767C39.2464 12.0613 40.0354 12.3911 40.793 12.888C41.3094 13.2268 42.2608 14.1905 42.6648 14.7841C43.0145 15.2978 43.5557 16.3608 43.5809 16.5832L43.5957 16.7146L37.1935 16.7279L30.7912 16.7413L30.8249 16.5735C30.8741 16.3283 31.3366 15.387 31.5983 14.9996C32.8013 13.2182 34.512 12.0892 36.4412 11.8035C36.8869 11.7375 37.8964 11.7758 38.3737 11.8767ZM89.1431 11.8223C89.2156 11.8383 89.4055 11.8782 89.5651 11.911C90.3049 12.0629 91.2112 12.4676 91.886 12.9472C92.6598 13.4972 93.4861 14.4286 94.0158 15.348C94.2856 15.8164 94.6366 16.6333 94.5961 16.6986C94.5817 16.7218 91.6962 16.7408 88.184 16.7408H81.798L81.8317 16.5733C81.8886 16.2893 82.3668 15.3492 82.703 14.8601C83.819 13.2365 85.4896 12.1396 87.32 11.8286C87.7262 11.7596 88.8406 11.7558 89.1431 11.8223ZM158.691 11.8895C160.357 12.1732 161.943 13.2233 162.973 14.724C163.938 16.1301 164.414 17.6723 164.413 19.3872C164.413 21.169 163.972 22.6232 162.984 24.1016C162.573 24.716 161.688 25.6142 161.121 25.9911C159.317 27.1923 157.157 27.403 155.192 26.5697C153.022 25.6495 151.418 23.6174 150.844 21.0603C150.746 20.6247 150.73 20.3886 150.73 19.4214C150.73 18.4499 150.746 18.2162 150.847 17.7559C151.701 13.8475 155.13 11.283 158.691 11.8895ZM14.4765 17.2845C14.5621 17.3067 14.7884 17.3576 14.9794 17.3977C15.5297 17.513 16.1966 17.7751 16.6548 18.056C17.6849 18.6877 18.1844 19.6497 18.3024 21.2297C18.4193 22.7947 18.0537 24.0619 17.2384 24.9171C16.6137 25.5723 15.8813 25.9863 14.9683 26.1999C14.7283 26.2561 14.4607 26.32 14.3737 26.3418C14.2866 26.3636 12.0495 26.3891 9.40222 26.3983L4.58902 26.4149V21.8128V17.2107L9.45497 17.2274C12.1313 17.2366 14.391 17.2623 14.4765 17.2845Z" fill="#14111D"/>
</svg>
