<svg width="208" height="32" viewBox="0 0 208 32" fill="none" xmlns="http://www.w3.org/2000/svg">
<g clip-path="url(#clip0_2346_38392)">
<path fill-rule="evenodd" clip-rule="evenodd" d="M83.1282 4.68922V25.2576C83.1282 29.3375 85.6265 31.4954 89.3057 31.4954C91.0643 31.4954 92.6186 31.0302 92.9896 30.9093V27.5376C92.0737 27.8198 91.1217 27.9622 90.1646 27.9602C88.0124 27.9602 87.0276 26.5968 87.0276 24.8051V13.1483H92.4416V9.80887H87.0276V7.62329C87.0276 5.53559 85.8046 4.47619 84.2457 4.47619C83.877 4.47619 83.4981 4.54874 83.1282 4.68807V4.68922ZM161.55 12.6001V12.5103C161.55 10.4226 160.461 9.36323 158.904 9.36323C158.534 9.36323 158.155 9.43578 157.786 9.57511V31.0509H161.683V16.3541C162.844 14.7581 165.189 12.8949 167.248 12.8949C169.526 12.8949 170.663 14.3954 170.663 16.5775V31.0509H174.56V16.3541C175.904 14.5071 178.066 12.8949 180.125 12.8949C182.402 12.8949 183.54 14.3954 183.54 16.5775V31.0509H187.437V16.3552C187.437 12.3526 185.656 9.36208 180.837 9.36208C177.902 9.36208 175.732 10.9627 173.975 12.9122C173.385 11.482 172.055 9.36208 167.948 9.36208C165.165 9.36208 163.119 10.8637 161.55 12.599V12.6001ZM147.933 12.5103C147.933 10.4226 146.777 9.36323 145.219 9.36323C144.849 9.36323 144.47 9.43578 144.101 9.57511V31.0509H147.998V18.4925C149.105 15.8255 151.723 13.3659 155.181 13.3659V9.36208C151.485 9.36208 149.368 11.1803 147.931 13.8772V12.5103H147.933ZM23.8921 12.5103C23.8921 10.4226 22.7371 9.36323 21.1783 9.36323C20.8096 9.36323 20.4306 9.43578 20.0608 9.57511V31.0509H23.959V18.4925C25.0652 15.8255 27.6826 13.3659 31.1417 13.3659V9.36208C27.4443 9.36208 25.3284 11.1803 23.8921 13.8772V12.5103ZM114.348 20.2117C116.878 17.3248 119.119 13.8668 120.714 9.64535L117.112 8.30729C114.815 14.4449 111.381 18.565 107.234 21.9804V1.00206H103.335V31.0509H107.234V26.6153C108.744 25.5253 110.183 24.3371 111.543 23.0582L115.102 29.1785C115.99 30.702 117.173 31.4954 118.946 31.4954C119.945 31.4954 120.534 31.1707 120.753 31.0509L114.349 20.2117H114.348ZM4.07637 20.4074C4.07637 15.464 6.60864 12.8961 10.4445 12.8961C13.3523 12.8961 15.2628 14.0038 15.8721 14.4011C16.3486 13.9394 16.7321 13.1344 16.7321 12.2938C16.7321 10.8878 15.0983 9.36323 10.2879 9.36323C4.67994 9.36323 0 13.1932 0 20.4523C0 27.533 4.25109 31.4954 9.85794 31.4954C13.2241 31.4954 15.905 30.4015 16.6878 29.9881V26.0499C15.8335 26.6452 13.0823 27.9614 10.5012 27.9614C6.82193 27.9614 4.07637 25.3993 4.07637 20.4074ZM65.8175 14.0833C65.341 13.792 63.6392 12.8961 61.4814 12.8961C57.8781 12.8961 55.4082 15.4375 55.4082 20.693C55.4082 25.3682 57.7181 27.9568 62.6806 27.9568C63.742 27.958 64.798 27.8045 65.8164 27.5008V14.0833H65.8175ZM69.6693 30.4199C68.8535 30.6329 66.3587 31.5 62.6806 31.5C54.639 31.5 51.5349 26.9365 51.5349 20.8059C51.5349 13.0573 55.8688 9.35517 60.778 9.35517C63.4963 9.35517 65.3218 10.2165 65.8164 10.4756V1.00206H69.6693V30.4199ZM35.3974 19.0866C35.5664 15.9614 37.553 12.7591 41.8687 12.7591C43.7974 12.7591 44.9569 13.876 44.9569 15.2314C44.9569 18.2599 39.5157 19.0866 35.3974 19.0866ZM35.4246 22.1612C41.2254 22.1612 48.904 21.2688 48.904 15.0391C48.904 11.9242 46.3513 9.36208 42.0627 9.36208C34.8267 9.36208 31.3426 14.5324 31.3426 20.7621C31.3426 26.735 35.1353 31.4965 41.8994 31.4965C45.6637 31.4965 48.4762 30.4556 48.4762 28.2804C48.4762 27.2624 47.8296 26.4494 47.6866 26.3055C47.3145 26.5565 45.278 27.9602 42.1331 27.9602C37.7039 27.9602 35.8739 25.0446 35.4246 22.1612ZM74.4275 31.0509H78.3257V9.80772H74.4275V31.0509ZM76.3982 5.53328C75.0413 5.53328 73.9022 4.41861 73.9022 3.0391C73.9022 1.65727 75.0413 0.5 76.3982 0.5C77.7562 0.5 78.851 1.65843 78.851 3.0391C78.8519 3.3665 78.7891 3.69087 78.6662 3.99359C78.5433 4.29631 78.3628 4.57142 78.1349 4.80315C77.907 5.03488 77.6363 5.21866 77.3382 5.34395C77.0402 5.46925 76.7208 5.53359 76.3982 5.53328ZM203.803 25.2162C202.051 27.0413 200.274 27.9637 197.997 27.9637C195.787 27.9637 194.628 26.5289 194.628 25.0204C194.628 22.8383 196.339 21.0051 203.803 20.2727V25.2162ZM199.267 9.36093C194.286 9.36093 192.344 10.7243 192.344 12.2892C192.344 13.4788 193.027 14.2123 193.206 14.3919C193.861 13.9635 195.718 12.8869 198.71 12.8869C202.474 12.8869 203.803 14.6994 203.803 16.6558V17.2431C195.087 18.1792 190.619 19.8513 190.619 25.1517C190.619 28.7582 193.274 31.4954 197.042 31.4954C200.813 31.4954 202.946 29.4975 203.896 28.6166V31.0498H207.701V16.5268C207.701 11.8056 204.347 9.36208 199.267 9.36208V9.36093ZM135.402 25.2162C133.65 27.0413 131.873 27.9637 129.596 27.9637C127.386 27.9637 126.227 26.5289 126.227 25.0204C126.227 22.8383 127.938 21.0051 135.402 20.2727V25.2162ZM130.866 9.36093C125.885 9.36093 123.943 10.7243 123.943 12.2892C123.943 13.4788 124.626 14.2123 124.805 14.3919C125.46 13.9635 127.317 12.8869 130.309 12.8869C134.073 12.8869 135.402 14.6994 135.402 16.6558V17.2431C126.686 18.1792 122.218 19.8513 122.218 25.1517C122.218 28.7582 124.873 31.4954 128.64 31.4954C132.411 31.4954 134.545 29.4975 135.495 28.6166V31.0498H139.3V16.5268C139.3 11.8056 135.946 9.36208 130.866 9.36208V9.36093Z" fill="white"/>
</g>
<defs>
<clipPath id="clip0_2346_38392">
<rect width="207.701" height="31" fill="white" transform="translate(0 0.5)"/>
</clipPath>
</defs>
</svg>
