<svg width="107" height="108" viewBox="0 0 107 108" fill="none" xmlns="http://www.w3.org/2000/svg">
<path d="M18.8331 93.986C18.0849 94.0022 17.3372 94.0928 16.8665 94.252C15.8893 94.5826 14.8805 95.4172 14.419 96.2771C14.105 96.8624 14.0686 97.1835 14.021 99.7973C13.9866 101.689 14.0313 102.881 14.1513 103.28C14.5534 104.617 15.5959 105.655 16.9888 106.105C17.4296 106.248 18.1799 106.308 19.1478 106.278C21.4755 106.206 22.7957 105.455 23.5408 103.78C23.8449 103.097 23.9037 102.653 23.9577 100.638C24.0301 97.9388 23.8608 96.8527 23.2187 95.9009C22.7105 95.1475 21.7198 94.4368 20.8021 94.167C20.3299 94.0282 19.5813 93.9699 18.8331 93.986ZM19.0399 96.3099C19.7068 96.3286 20.3647 96.5599 20.8051 97.0171L21.2559 97.485L21.3001 100.001C21.3502 102.853 21.2342 103.245 20.1967 103.735C19.0697 104.268 17.5789 103.941 16.8946 103.012C16.6 102.612 16.5713 102.355 16.5713 100.136C16.5713 98.0017 16.6079 97.6445 16.8665 97.2646C17.31 96.6132 18.1823 96.2859 19.0399 96.3099Z" fill="#14111D"/>
<path d="M51.123 106.172C49.8479 105.789 49.0435 104.863 48.8326 103.535L48.708 102.751H49.993C51.2772 102.751 51.2782 102.751 51.4746 103.223C51.8172 104.047 52.8072 104.261 53.5568 103.674L53.9659 103.354L54.0073 98.7378L54.0486 94.1221H55.2978H56.547L56.5885 98.6993C56.637 104.053 56.5573 104.562 55.5321 105.435C55.1898 105.727 54.6376 106.047 54.3049 106.146C53.6212 106.35 51.7676 106.365 51.123 106.172Z" fill="#14111D"/>
<path d="M64.588 93.9795C63.2941 93.9783 62.9848 94.0331 62.1679 94.4092C61.011 94.942 60.6112 95.3055 60.0883 96.2994C59.7023 97.033 59.6757 97.227 59.6198 99.7447C59.5723 101.887 59.6109 102.585 59.8162 103.288C60.2195 104.669 61.4659 105.821 62.9484 106.181C63.8448 106.4 65.7761 106.335 66.639 106.058C67.832 105.676 69.0026 104.515 69.336 103.384C69.6733 102.239 69.685 98.0138 69.354 96.904C69.0289 95.8141 68.2395 94.9629 67.0571 94.4274C66.194 94.0365 65.8869 93.9808 64.588 93.9795ZM64.6234 96.3188C65.1476 96.3288 65.6732 96.4431 66.0229 96.6583C66.8433 97.1632 66.9303 97.5066 66.9303 100.25C66.9303 102.538 66.9066 102.739 66.5917 103.138C66.4055 103.374 66.0212 103.663 65.7378 103.781C64.5773 104.264 63.1029 103.916 62.5617 103.032C62.2822 102.576 62.2463 102.25 62.2463 100.132C62.2463 97.4917 62.348 97.126 63.2329 96.6055C63.5766 96.4034 64.0992 96.3089 64.6234 96.3188Z" fill="#14111D"/>
<path d="M99.4373 106.097C98.5374 105.817 97.6493 105.187 97.1706 104.488C96.7466 103.869 96.3719 102.681 96.5236 102.437C96.5755 102.353 97.1632 102.285 97.8297 102.285C99.0404 102.285 99.0418 102.286 99.2649 102.779C99.6431 103.616 100.218 103.917 101.435 103.917C102.697 103.917 103.158 103.626 103.158 102.829C103.158 102.1 102.756 101.842 100.866 101.357C98.69 100.799 98.4593 100.702 97.7016 100.02C96.3586 98.8124 96.252 96.6388 97.47 95.2965C99.2732 93.3093 103.511 93.5574 104.959 95.7348C105.177 96.0642 105.398 96.5883 105.449 96.8995L105.541 97.4655H104.284C103.119 97.4655 103.007 97.4368 102.739 97.0713C101.85 95.8562 99.2541 96.1459 99.2541 97.4603C99.2541 98.1269 99.8022 98.4573 101.689 98.9281C103.59 99.4022 104.122 99.6366 104.841 100.316C105.373 100.819 105.813 101.953 105.812 102.819C105.809 104.319 104.8 105.64 103.323 106.077C102.305 106.378 100.374 106.388 99.4373 106.097Z" fill="#14111D"/>
<path d="M1.26924 94.1221L1.22837 100.147L1.1875 106.171H4.18488C7.76757 106.171 8.62152 105.997 9.70997 105.043C10.9701 103.938 11.0969 103.537 11.1577 100.458C11.2004 98.2999 11.1615 97.6301 10.9583 97.021C10.5951 95.9325 9.81724 95.1077 8.65716 94.5806C7.6747 94.1342 7.66053 94.1324 4.47035 94.1272L1.26924 94.1221ZM3.84574 96.5319H5.50577C6.8838 96.5319 7.25065 96.5839 7.66292 96.8376C8.50184 97.3538 8.60837 97.7328 8.60837 100.198C8.60837 102.688 8.48914 103.027 7.42594 103.567C7.02473 103.77 6.50906 103.838 5.36822 103.839L3.84574 103.839V100.185V96.5319V96.5319Z" fill="#14111D"/>
<path d="M28.5963 105.822C28.3397 104.752 26.332 94.5568 26.332 94.3231C26.332 94.079 26.4844 94.0447 27.5683 94.0447H28.8046L28.9568 94.7832C29.0406 95.1894 29.3757 96.9721 29.7015 98.7447C30.0272 100.517 30.315 101.947 30.3409 101.921C30.3668 101.895 30.7451 100.69 31.1815 99.242C31.6179 97.7944 32.1511 96.0293 32.3664 95.3196L32.7579 94.0293L33.5575 94.0759L34.3571 94.1225L35.5235 98.0481C36.1651 100.207 36.7101 101.954 36.7347 101.929C36.7593 101.905 37.0994 100.183 37.4905 98.1037C37.8816 96.0241 38.2404 94.2601 38.2879 94.1837C38.3919 94.0161 40.6494 93.9956 40.7511 94.1613C40.7905 94.2255 40.2861 96.954 39.6303 100.225L38.4379 106.171H37.0267H35.6154L34.6194 102.984C34.0716 101.231 33.5815 99.7985 33.5302 99.8001C33.4789 99.8018 33.214 100.519 32.9416 101.394C32.6692 102.268 32.2206 103.701 31.9448 104.578L31.4433 106.171H30.0617C28.758 106.171 28.6755 106.152 28.5963 105.822Z" fill="#14111D"/>
<path d="M72.5907 100.148L72.6316 94.1232L73.8808 94.0807L75.13 94.0381L77.5503 97.8882L79.9707 101.738L80.0124 97.8919L80.0542 94.0455H81.3007H82.5472V100.109V106.172L81.2589 106.172L79.9707 106.171L77.6284 102.448L75.2861 98.7243L75.2443 102.448L75.2025 106.172H73.8761H72.5498L72.5907 100.148V100.148Z" fill="#14111D"/>
<path d="M85.8242 100.106V94.04L89.8451 94.0815L93.866 94.123V95.289V96.4551L91.1724 96.4976L88.4788 96.5401V97.6985V98.8568L90.8601 98.8997L93.2414 98.9426L93.2873 100.07L93.3332 101.197H90.906H88.4788V102.518V103.84H91.2115H93.9441V105.006V106.172H89.8842H85.8242V100.106Z" fill="#14111D"/>
<path d="M24.458 36.3614V1.6875L43.6256 1.73527L62.7933 1.78304L64.4328 2.1919C72.3826 4.1743 78.2134 9.22977 81.0667 16.6139C81.7535 18.3915 82.3835 21.2714 82.4992 23.1628L82.5936 24.7053H76.802H71.0103L70.9203 23.9668C70.6208 21.5128 69.8434 19.5578 68.4502 17.7551C67.0568 15.9522 64.9602 14.4904 62.6371 13.7021L61.3879 13.2783L48.7786 13.2342L36.1694 13.19V36.3603V59.5305H41.947H47.7246V65.2829V71.0353H36.0913H24.458V36.3614Z" fill="#14111D"/>
<path d="M56.4688 65.3294V59.5783L58.5378 59.4736C59.6757 59.416 61.0517 59.265 61.5955 59.1379C64.9335 58.3579 68.166 55.8165 69.6714 52.7888C70.9306 50.2562 70.8852 50.6555 70.9505 41.5354L71.0086 33.4121H76.7867H82.5648L82.5058 42.235L82.4469 51.0579L82.0429 52.6904C80.9076 57.2781 78.9373 60.7884 75.6736 64.0379C73.0246 66.6753 70.0975 68.5111 66.6434 69.7014C64.0638 70.5903 62.3659 70.8856 59.2404 70.9888L56.4688 71.0804V65.3294Z" fill="#14111D"/>
</svg>
