<svg width="247" height="43" viewBox="0 0 247 43" fill="none" xmlns="http://www.w3.org/2000/svg">
<path d="M163.721 1.06507L155.215 1.06324L137.923 20.8262L155.695 41.6902L164.247 41.692L164.247 41.6847L146.357 20.8108L163.721 1.06507Z" fill="white"/>
<path d="M49.6006 0.5C47.4144 0.49953 45.6348 2.27594 45.6353 4.45823C45.6358 6.64052 47.4161 8.4177 49.6024 8.41817C51.7886 8.41864 53.5682 6.64223 53.5677 4.45994C53.5672 2.27765 51.7892 0.500471 49.6006 0.5Z" fill="white"/>
<path d="M52.8945 11.211L46.3038 11.2097L46.3106 41.6908L52.9014 41.6922L52.8945 11.211Z" fill="white"/>
<path d="M64.4869 1.06091L57.8935 1.05953L57.9025 41.6906L64.496 41.692L64.4869 1.06091Z" fill="white"/>
<path d="M76.0794 1.06091L69.486 1.05953L69.4951 41.6906L76.0885 41.692L76.0794 1.06091Z" fill="white"/>
<path d="M85.9236 23.5754C86.2969 19.6833 88.9898 15.718 94.2838 15.7192C98.9573 15.7202 101.873 18.576 102.359 23.579L85.9236 23.5754ZM94.2826 10.3306C85.4576 10.3287 79.296 16.9421 79.2981 26.412C79.3003 35.882 85.5807 42.4981 94.5706 42.5C102.802 42.5018 107.115 37.6252 108.404 33.06L108.613 32.3229L101.559 32.3214L101.458 32.776C101.099 34.3878 99.2453 37.1124 94.5694 37.1114C89.3886 37.1103 86.3344 33.0209 85.9248 28.9689L108.989 28.9739L108.989 27.8288C108.988 25.1259 108.655 22.6785 108 20.5505C105.906 13.9599 101.034 10.332 94.2826 10.3306Z" fill="white"/>
<path d="M118.787 14.6317L118.786 11.211L112.199 11.2096L112.205 41.6884L118.793 41.6899L118.789 23.6306C118.788 19.0894 120.723 16.883 124.703 16.8839L128.223 16.8847L128.221 10.6478L126.113 10.6474C122.796 10.6467 120.274 12.4228 118.787 14.6317Z" fill="white"/>
<path d="M218.609 26.4147C218.61 33.6068 214.108 36.8272 209.646 36.8262C205.184 36.8252 200.68 33.6054 200.678 26.4108C200.677 19.2188 205.18 15.9984 209.641 15.9994C214.103 16.0028 218.607 19.2226 218.609 26.4147ZM209.64 10.3307C200.483 10.3287 194.09 16.942 194.092 26.4119C194.094 35.8818 200.49 42.4978 209.647 42.4998C218.804 42.5017 225.197 35.8884 225.195 26.4186C225.193 16.9462 218.797 10.3327 209.64 10.3307Z" fill="white"/>
<path d="M234.59 1.06091L227.997 1.05953L228.006 41.6906L234.599 41.692L234.59 1.06091Z" fill="white"/>
<path d="M246.184 1.06091L239.591 1.05953L239.6 41.6906L246.193 41.692L246.184 1.06091Z" fill="white"/>
<path d="M170.949 41.6877L170.945 24.4749C170.944 19.3467 173.93 16.0351 178.552 16.0361C182.799 16.037 184.693 18.1186 184.694 22.7849L184.699 41.6882L191.285 41.6896L191.281 22.2236C191.279 14.5792 187.26 10.3667 179.964 10.3651C176.258 10.3643 173.062 11.6733 170.942 14.0072L170.942 11.2109L164.355 11.2095L164.362 41.6863L170.949 41.6877Z" fill="white"/>
<path d="M32.8715 1.06168L20.8002 28.3183L8.66231 1.05646L0 1.0546L0.00922562 41.6879L6.58352 41.6893L6.57935 23.347C6.57847 19.4573 6.57763 15.7422 6.28614 11.6215L6.57669 11.6216C7.91465 15.7425 9.0799 18.3546 10.8831 21.8982L20.6605 42.1002L30.4287 21.9024C32.2303 18.3621 33.2786 15.7504 34.7895 11.6277L35.0801 11.6277C34.6747 15.7482 34.6756 19.4634 34.6765 23.353L34.6806 41.6954L41.3115 41.6968L41.3023 1.06349L32.8715 1.06168Z" fill="white"/>
<path d="M137.926 1.06095L131.121 1.05953L131.13 41.6905L137.935 41.692L137.926 1.06095Z" fill="white"/>
</svg>
