<svg width="186" height="37" viewBox="0 0 186 37" fill="none" xmlns="http://www.w3.org/2000/svg">
<path d="M87.6224 9.45758C83.9597 7.51623 78.7876 8.0701 75.881 10.8222C72.5373 13.9867 71.8674 17.9331 73.2302 22.1448C74.5987 26.371 77.8676 28.3298 82.1715 28.6182C85.5553 28.8462 88.6574 27.9837 91.5611 25.9873C90.8827 24.7786 90.2559 23.6593 89.6349 22.5488C83.3502 25.5575 78.457 24.6199 77.8992 20.3333H92.0845C92.0845 20.3333 92.2771 19.863 92.3374 19.3726C92.8549 15.207 91.0034 11.249 87.6224 9.45758ZM77.8877 16.4994C78.1867 14.1195 80.2108 12.4751 82.7809 12.4866C85.2391 12.4982 87.1251 14.1338 87.3636 16.4994H77.8848H77.8877Z" fill="#14111D"/>
<path d="M39.8718 8.31448C33.8975 8.32606 29.5017 12.6214 29.4902 18.4573C29.4816 24.3769 33.886 28.7329 39.8861 28.7357C45.8202 28.7357 50.2477 24.3019 50.2217 18.3824C50.1987 12.6676 45.7109 8.30289 39.8718 8.31448ZM39.8833 24.0769C36.8502 24.1143 34.4784 21.6104 34.5128 18.4025C34.5444 15.3591 36.9019 12.9762 39.8747 12.9821C42.81 12.9878 45.2021 15.4399 45.2135 18.4516C45.2222 21.5613 42.8791 24.0364 39.8861 24.074L39.8833 24.0769Z" fill="#14111D"/>
<path d="M150.707 8.31457C144.73 8.28861 140.288 12.5725 140.256 18.3882C140.225 24.3308 144.589 28.7069 150.581 28.7358C156.535 28.7647 160.947 24.4029 160.988 18.4516C161.028 12.76 156.544 8.34053 150.707 8.31457ZM150.543 24.0769C147.536 24.0308 145.251 21.5816 145.273 18.4285C145.299 15.3822 147.643 12.9907 150.612 12.985C153.597 12.9792 156.011 15.489 155.972 18.5583C155.931 21.6623 153.51 24.126 150.543 24.0798V24.0769Z" fill="#14111D"/>
<path d="M176.799 8.75995C173.792 7.64354 170.612 8.44545 168.465 10.7793C168.349 10.9062 168.192 10.9957 167.995 11.1456C167.956 10.3148 167.923 9.61672 167.89 8.89548H163.171V28.1456H168.105C168.105 27.5571 168.105 27.0552 168.105 26.5532C168.12 23.3741 168.054 20.1923 168.18 17.0191C168.277 14.5353 170.198 12.8881 172.63 12.9429C174.919 12.9948 176.393 14.5381 176.54 17.0565C176.572 17.5643 176.578 18.072 176.578 18.5826C176.578 21.3376 176.578 24.0924 176.578 26.8475V28.1399H181.583C181.583 23.8531 181.701 19.6557 181.546 15.47C181.426 12.3053 179.887 9.90231 176.799 8.75701V8.75995Z" fill="#14111D"/>
<path d="M65.9868 8.75995C62.9795 7.64354 59.7999 8.44545 57.6523 10.7793C57.5373 10.9062 57.3792 10.9957 57.1836 11.1456C57.1433 10.3148 57.1118 9.61672 57.0773 8.89548H52.3594V28.1456H57.2929C57.2929 27.5571 57.2929 27.0552 57.2929 26.5532C57.3073 23.3741 57.2411 20.1923 57.3676 17.0191C57.4654 14.5353 59.3858 12.8881 61.8152 12.9429C64.1037 12.9948 65.5786 14.5381 65.7281 17.0565C65.7568 17.5643 65.7655 18.072 65.7655 18.5826C65.7655 21.3376 65.7655 24.0924 65.7655 26.8475V28.1399H70.7708C70.7708 23.8531 70.8887 19.6557 70.7335 15.47C70.6126 12.3053 69.0745 9.90231 65.9868 8.75701V8.75995Z" fill="#14111D"/>
<path d="M119.41 1.99316H114.281V28.1581H131.258V23.1154H119.41V1.99316Z" fill="#14111D"/>
<path d="M138.167 8.91602H133.286V28.166H138.167V8.91602Z" fill="#14111D"/>
<path d="M135.752 0.500077C133.96 0.511665 132.603 1.89049 132.661 3.64453C132.716 5.36952 134.055 6.64464 135.792 6.61868C137.543 6.59565 138.794 5.30894 138.791 3.53774C138.791 1.78957 137.488 0.488489 135.752 0.500077Z" fill="#14111D"/>
<path d="M13.6792 15.8609L4.03944 1.91016H0V28.0347H4.99963V12.6185L13.6792 25.1816L22.3589 12.6185V28.0347H27.3584V1.91016H23.3163L13.6792 15.8609Z" fill="#14111D"/>
<path d="M102.693 21.4158C102.693 21.4158 99.5502 13.549 97.6872 8.91895H91.9258C93.9928 13.6125 99.2196 25.4227 99.6997 26.5161C99.9441 27.0729 100.191 27.6498 100.197 28.2556C100.2 28.8614 99.9585 29.447 99.6164 29.9461C98.3686 31.775 95.6834 32.4299 93.7398 31.3798C93.4582 32.7529 93.1792 34.1232 92.8976 35.4963C94.8985 36.61 97.417 36.8637 99.5043 35.9233C101.045 35.2281 102.264 33.9472 103.164 32.5106C104.064 31.074 104.676 29.4788 105.277 27.8951C107.198 22.864 111.073 12.7587 112.548 8.91895H106.959L102.696 21.4158H102.693Z" fill="#14111D"/>
<path d="M182.129 0.526367C180.386 0.526367 178.997 1.88216 178.997 3.57547C178.997 5.26893 180.386 6.66227 182.129 6.66227C183.87 6.66227 185.241 5.30633 185.241 3.57547C185.241 1.84461 183.89 0.526367 182.129 0.526367ZM182.148 6.01027C180.776 6.01027 179.776 4.93141 179.776 3.57547C179.776 2.21968 180.776 1.14083 182.132 1.14083C183.486 1.14083 184.465 2.23699 184.465 3.59571C184.465 4.95444 183.483 6.0132 182.148 6.0132V6.01027Z" fill="#14111D"/>
<path d="M182.704 3.84502C182.857 3.78444 182.989 3.70083 183.086 3.57673C183.21 3.41817 183.273 3.22484 183.273 2.99982C183.273 2.86707 183.25 2.74313 183.205 2.62769C183.158 2.51225 183.092 2.41133 183.008 2.32479C182.926 2.23825 182.822 2.16901 182.698 2.12002C182.577 2.07088 182.439 2.04785 182.292 2.04785H181.103V5.13172H181.698V3.94608H181.999C182.016 3.94608 182.028 3.94608 182.046 3.94608L182.675 5.13172H183.345L182.652 3.86525C182.669 3.8566 182.684 3.84795 182.701 3.84223L182.704 3.84502ZM182.204 3.41817H181.701V2.58442H182.204C182.351 2.58442 182.465 2.62197 182.552 2.69986C182.635 2.77481 182.678 2.87573 182.678 3.00555C182.678 3.13536 182.638 3.23056 182.552 3.30566C182.468 3.38061 182.351 3.42095 182.204 3.42095V3.41817Z" fill="#14111D"/>
</svg>
