<svg width="200" height="80" viewBox="0 0 200 80" fill="none" xmlns="http://www.w3.org/2000/svg">
<path fill-rule="evenodd" clip-rule="evenodd" d="M75.9265 0.81698C74.2815 0.974419 71.928 1.48054 70.2638 2.0347C69.4508 2.30529 68.7517 2.56066 68.7101 2.60195C68.6685 2.64337 69.782 4.99211 71.1845 7.82152C72.5871 10.6509 74.3898 14.2992 75.1908 15.9288C75.9916 17.5584 76.6777 18.8916 76.7155 18.8916C76.7533 18.8916 77.1785 16.0002 77.6601 12.4663C78.2144 8.40025 78.5669 6.16729 78.62 6.38461C78.6662 6.57361 79.1409 9.36671 79.6749 12.5916C80.2089 15.8165 80.6834 18.4981 80.7294 18.5507C80.8118 18.6453 88.5178 2.9726 88.5178 2.71011C88.5178 2.50976 85.5912 1.59457 83.8306 1.24439C81.1681 0.714807 78.5001 0.570467 75.9265 0.81698ZM170.13 2.49903C162.988 3.44167 156.411 7.75028 152.467 14.0698C147.879 21.4209 147.46 30.9773 151.39 38.6456C154.421 44.5608 159.587 49.0455 165.712 51.0804C172.957 53.4871 181.093 52.3588 187.488 48.0609L188.21 47.5756V49.9507V52.3256H193.295H198.38V27.3125V2.29943L184.914 2.31228C174.168 2.32251 171.182 2.36018 170.13 2.49903ZM0 26.8135V51.2028H4.95951H9.91901V31.8036V12.4045L17.7977 12.4088C26.29 12.4134 26.6488 12.436 28.6167 13.0872C33.3319 14.6474 36.9451 18.4379 38.2652 23.2096L38.6066 24.4432L38.6428 37.823L38.6791 51.2028H43.6977H48.7162L48.7152 38.1973C48.714 24.9066 48.6887 24.082 48.207 21.7297C47.4807 18.1818 45.5731 14.2336 43.1891 11.3441C42.2289 10.1801 40.0886 8.13814 38.9227 7.2736C35.483 4.72301 31.3671 3.07701 27.1236 2.55505C26.4432 2.47134 21.3623 2.42418 13.0298 2.42418H0V26.8135ZM99.7143 2.59472C99.7755 2.85358 126.865 53.6902 126.944 53.6943C127.01 53.6978 154.561 2.61019 154.561 2.48431C154.561 2.44988 151.845 2.43641 148.525 2.45412L142.489 2.48656L134.818 17.2535L127.146 32.0206L126.861 31.4754C126.704 31.1756 123.248 24.5305 119.18 16.7085L111.785 2.48656L105.729 2.45412C100.619 2.4268 99.6798 2.44876 99.7143 2.59472ZM66.5994 3.5386C58.8136 7.3885 53.6164 14.4307 52.0463 23.258C51.9303 23.9099 51.804 25.4537 51.7656 26.6887C51.6906 29.098 51.8168 30.6824 52.2519 32.7922C52.582 34.3933 53.4536 37.1007 53.6649 37.1811C53.8081 37.2358 69.8307 29.6249 70.1014 29.3737C70.2537 29.2325 70.146 29.2156 63.5633 28.3546C60.2314 27.9187 57.5052 27.5331 57.5052 27.4976C57.5052 27.4622 60.2031 26.9906 63.5005 26.4497C66.798 25.9088 69.5767 25.4245 69.6757 25.3737C69.7942 25.3127 68.9819 24.8605 67.2901 24.0456C65.8791 23.3661 62.283 21.6364 59.2988 20.2019C56.3145 18.7674 53.8877 17.579 53.9058 17.5609C53.924 17.5429 57.8019 18.7331 62.5233 20.2057C67.2446 21.6784 71.1354 22.8557 71.1694 22.8219C71.2035 22.7882 71.1458 22.6619 71.0415 22.5414C70.9372 22.4209 69.1213 20.2037 67.0063 17.614L63.1609 12.9058L68.6199 16.5232C71.6222 18.5128 74.0787 20.0679 74.0787 19.9791C74.0787 19.8903 72.8357 15.9854 71.3165 11.3015C69.7972 6.61765 68.5542 2.76027 68.5542 2.72958C68.5542 2.59646 68.2506 2.72209 66.5994 3.5386ZM88.5394 3.20389C88.4757 3.42695 87.2256 7.33348 85.7614 11.8852C84.2972 16.4371 83.1223 20.1843 83.1507 20.2124C83.1791 20.2406 85.646 18.6312 88.6329 16.6357C91.6198 14.6404 94.0806 13.0265 94.1012 13.0492C94.1219 13.072 92.3931 15.2236 90.2595 17.8307C88.1261 20.4378 86.4364 22.5895 86.5049 22.6122C86.6097 22.6469 103.295 17.4249 103.449 17.3093C103.561 17.2247 101.762 13.7748 101.021 12.654C98.8675 9.39616 95.7729 6.48254 92.3246 4.46615C91.0377 3.71363 89.123 2.79844 88.8353 2.79844C88.7363 2.79844 88.603 2.98083 88.5394 3.20389ZM188.21 20.6219C188.21 29.4882 188.186 29.847 187.455 32.0166C185.83 36.8348 181.977 40.4185 177.072 41.6735C175.425 42.0951 172.948 42.2027 171.259 41.9261C165.166 40.9291 160.327 36.2358 159.126 30.1584C158.859 28.8091 158.829 26.0766 159.067 24.7551C160.036 19.3668 163.859 14.9469 169.049 13.2161C170.969 12.5755 171.346 12.5524 180.08 12.5404L188.21 12.5292V20.6219ZM95.2111 21.6785C90.6402 23.7479 86.9394 25.4753 86.9871 25.5168C87.0348 25.5584 90.0119 26.1478 93.6029 26.8267C97.1938 27.5056 99.9623 28.0792 99.7551 28.1015C90.2745 29.1172 87.3755 29.4503 87.3527 29.5264C87.3014 29.6987 102.964 37.2733 103.097 37.1407C103.303 36.9366 104.21 34.263 104.527 32.9264C105.229 29.972 105.433 25.9403 105.022 23.1492C104.704 20.9942 103.91 18.0073 103.638 17.9431C103.574 17.9281 99.782 19.609 95.2111 21.6785ZM62.7258 34.7826C57.9665 36.439 54.0498 37.8615 54.0223 37.9436C53.9504 38.1582 54.9762 40.0814 55.9741 41.6028C58.5572 45.5409 62.2143 48.6815 66.7336 50.843C68.9857 51.9202 68.8479 51.9289 69.2431 50.6838C69.4248 50.1116 70.6195 46.3961 71.8979 42.4272C73.1765 38.4581 74.1961 35.1846 74.1638 35.1525C74.1316 35.1205 71.9663 36.8293 69.3521 38.9499C66.738 41.0706 64.5811 42.7917 64.559 42.7746C64.5369 42.7576 66.1612 40.2967 68.1687 37.3059C70.1762 34.3152 71.8187 31.8396 71.8187 31.8048C71.8187 31.6388 70.8028 31.9716 62.7258 34.7826ZM86.1952 32.1255C86.2526 32.2229 87.8053 34.5763 89.6455 37.3552C91.4858 40.1341 93.042 42.4919 93.1035 42.5948C93.165 42.6977 92.8766 42.5013 92.4625 42.1582C89.7658 39.924 82.9555 34.4151 82.8409 34.3753C82.759 34.3469 82.7336 34.4086 82.7789 34.526C82.8213 34.6354 84.0825 38.4746 85.5816 43.0575C87.0808 47.6404 88.3479 51.4365 88.3974 51.4934C88.447 51.5503 89.0948 51.3122 89.8373 50.9643C94.3847 48.833 98.0718 45.6408 100.815 41.4603C101.72 40.0809 103.069 37.5411 102.95 37.439C102.919 37.4124 99.1933 36.1966 94.6701 34.7371C90.1469 33.2776 86.3662 32.0531 86.2686 32.016C86.1429 31.9681 86.1215 32.0001 86.1952 32.1255ZM80.1439 35.9829C80.0747 36.223 79.3738 39.0578 78.5866 42.2823C76.9105 49.1461 77.1315 49.2046 76.7065 41.7839C76.5533 39.108 76.4079 36.8951 76.3833 36.8665C76.3588 36.8379 76.3174 36.8379 76.2914 36.8665C76.2295 36.9345 70.1962 49.1738 69.488 50.6684L68.943 51.818L70.2868 52.2474C74.8673 53.7114 80.0481 53.9156 84.5627 52.8101C85.8713 52.4898 88.2677 51.7047 88.2629 51.5979C88.2609 51.5521 86.4617 47.9218 84.2645 43.5305C80.3542 35.7148 80.2672 35.5555 80.1439 35.9829ZM185.615 56.3702C183.088 56.8468 180.939 57.9621 179.767 59.4055C179.558 59.6627 179.213 60.2381 179 60.6841C178.67 61.3743 178.606 61.6734 178.564 62.6942C178.412 66.3876 180.555 68.2262 186.525 69.5242C187.487 69.7332 188.979 70.0535 189.842 70.2357C193.438 70.9955 194.739 71.8215 194.738 73.3466C194.738 75.3742 192.064 76.5524 188.322 76.1737C185.803 75.9187 183.646 75.1833 181.476 73.8391C180.983 73.5339 180.531 73.2866 180.471 73.2896C180.412 73.2926 179.663 73.955 178.809 74.7617L177.255 76.2282L178.057 76.7474C181.598 79.0398 186.471 80.2242 190.984 79.8896C194.439 79.6334 196.792 78.7369 198.396 77.0653C199.631 75.7786 200.069 74.5716 199.991 72.6647C199.949 71.6089 199.891 71.3515 199.536 70.6347C198.464 68.4703 196.091 67.2638 190.761 66.1732C185.136 65.0223 183.816 64.3464 183.816 62.6178C183.816 59.8738 188.72 58.9954 193.519 60.8797C194.156 61.1296 195.025 61.5247 195.45 61.7576C195.876 61.9905 196.276 62.1811 196.339 62.1811C196.481 62.1811 199.134 59.2439 199.134 59.0874C199.134 58.9092 196.541 57.6256 195.329 57.2038C193.268 56.4865 192.058 56.2992 189.152 56.2475C187.276 56.2142 186.256 56.2495 185.615 56.3702ZM77.4252 56.8453C76.7562 58.0016 65.0383 79.2524 64.9648 79.4431C64.8936 79.6274 65.1404 79.6466 67.5741 79.6466H70.2619L71.7623 76.8418L73.2626 74.0371L80.0984 74.066L86.9341 74.0951L88.395 76.8397L89.8557 79.5842L92.654 79.6178C94.8751 79.6445 95.4393 79.6188 95.3897 79.493C95.3553 79.406 92.4707 74.1699 88.9797 67.8574L82.6326 56.3801L80.1831 56.3463L77.7336 56.3125L77.4252 56.8453ZM38.7972 68.0445V79.6466H41.3711H43.945V74.9684V70.2901H51.3529H58.7607V68.3564V66.4227H51.3529H43.945V63.3663V60.3098H52.2318H60.5185V58.3761V56.4425H49.6579H38.7972V68.0445ZM104.212 68.0353V79.6466H106.786H109.36V75.6545V71.6624H112.552H115.743L119.3 75.6536L122.858 79.645L125.965 79.6457C127.674 79.6462 129.073 79.6167 129.073 79.58C129.073 79.5433 127.349 77.6075 125.243 75.2783C123.137 72.949 121.414 70.9993 121.414 70.9458C121.414 70.8922 121.795 70.7403 122.261 70.6084C123.747 70.1874 125.244 69.3559 126.173 68.4349C127.534 67.0848 128.068 65.7789 128.068 63.7993C128.068 61.909 127.506 60.5852 126.134 59.2494C124.878 58.0258 123.403 57.3311 120.912 56.7899C119.793 56.547 119.233 56.5274 111.966 56.4774L104.212 56.424V68.0353ZM138.992 68.0445V79.6466H141.628H144.263L144.296 71.5522L144.328 63.4579L148.785 68.743C151.237 71.6499 153.299 74.026 153.368 74.0232C153.437 74.0205 155.528 71.6093 158.014 68.6651L162.534 63.3119L162.566 71.4793L162.598 79.6466H165.234H167.87V68.0445V56.4425H165.07H162.27L157.9 61.8069C155.496 64.7573 153.486 67.1713 153.434 67.1713C153.382 67.1713 151.375 64.7573 148.975 61.8069L144.611 56.4425H141.802H138.992V68.0445ZM119.782 60.6546C121.353 61.1746 122.266 61.9717 122.617 63.131C122.844 63.8809 122.841 64.2276 122.598 65.0394C122.249 66.208 121.001 67.1723 119.25 67.627C118.614 67.7922 117.591 67.8419 113.912 67.8862L109.36 67.9411V64.1163V60.2915L114.163 60.338C118.682 60.3819 119.013 60.4007 119.782 60.6546ZM82.5923 65.9861L84.9795 70.3525L82.5424 70.3863C81.2021 70.4049 79.0038 70.4049 77.6575 70.3863L75.2095 70.3525L77.6253 65.898C78.954 63.448 80.078 61.4831 80.1232 61.5317C80.1682 61.5801 81.2794 63.5846 82.5923 65.9861Z" fill="black"/>
</svg>
