<svg width="144" height="85" viewBox="0 0 144 85" fill="none" xmlns="http://www.w3.org/2000/svg">
<g clip-path="url(#clip0_2346_37250)">
<path d="M38.3456 0.500977L38.3065 26.0059C38.3065 29.8201 39.8532 33.7136 42.7638 37.1592C51.6815 35.0203 61.5366 33.821 71.8698 33.8163C82.1998 33.821 92.0456 35.0172 100.952 37.1514C103.865 33.7074 105.407 29.817 105.407 26.0059L105.366 0.500977C105.366 0.500977 114.355 1.48564 126.14 5.78675C139.56 10.6868 143.716 13.8616 143.716 13.8616C143.155 25.3121 132.875 35.6285 117.132 42.501C132.891 49.3672 143.174 59.6883 143.733 71.1388C143.733 71.1388 139.581 74.3199 126.16 79.2152C114.373 83.5163 105.386 84.501 105.386 84.501L105.421 58.9961C105.421 55.185 103.879 51.2836 100.968 47.8396C92.0518 49.9848 82.1936 51.181 71.8589 51.181C61.5288 51.181 51.6893 49.9879 42.781 47.8505C39.8657 51.2914 38.3237 55.185 38.3237 58.9961L38.3643 84.501C38.3643 84.501 29.3778 83.5163 17.5901 79.2152C4.16983 74.3199 0.0156232 71.1388 0.0156232 71.1388C0.571809 59.6961 10.8519 49.3765 26.6 42.5056C10.8409 35.6348 0.556186 25.3121 0 13.8632C0 13.8632 4.14952 10.6883 17.5683 5.78831C29.3607 1.48564 38.3456 0.500977 38.3456 0.500977ZM71.0996 36.2788H71.0855L70.7996 36.2819C61.5226 36.2819 53.9687 38.7428 48.4319 42.5041C53.9687 46.2592 61.5194 48.7154 70.7793 48.7154L71.0714 48.7232H71.0824L71.3745 48.7154C80.6485 48.7154 88.2023 46.2514 93.7391 42.4932C88.2023 38.7381 80.6563 36.2819 71.3917 36.2819L71.0996 36.2788Z" fill="white"/>
</g>
<defs>
<clipPath id="clip0_2346_37250">
<rect width="143.733" height="84" fill="white" transform="translate(0 0.500977)"/>
</clipPath>
</defs>
</svg>
