<svg width="94" height="114" viewBox="0 0 94 114" fill="none" xmlns="http://www.w3.org/2000/svg">
<path fill-rule="evenodd" clip-rule="evenodd" d="M41.7539 0.461465C35.3488 1.41523 31.0051 2.70852 26.0809 5.12789C12.0484 12.0222 2.40042 25.3832 0.370031 40.7335C0.0707739 42.9961 0 46.7364 0 60.3015V77.072L5.97215 76.9323C12.496 76.7796 17.5303 77.017 20.4983 77.6166C24.1499 78.3547 27.9386 80.1887 31.4685 82.9269C34.0822 84.9543 37.8729 87.4904 39.9172 88.5794C50.2369 94.0758 60.5101 93.9093 68.2516 88.1202C69.0869 87.4955 73.6059 83.6179 78.2938 79.5031C82.9815 75.3885 88.1034 70.8983 89.6759 69.5247C93.1374 66.5008 93.649 65.6581 93.5094 63.2084C93.397 61.2397 92.8137 60.2872 91.2652 59.5443C89.9176 58.8978 87.634 58.8612 86.4369 59.4671C85.6215 59.88 82.3424 62.6903 69.6715 73.836C66.4389 76.6796 63.2612 79.4273 62.6098 79.9423C61.0266 81.1941 59.2856 81.6919 57.5988 81.3747C54.9369 80.8745 53.7173 79.9001 45.356 71.5936C40.5189 66.7881 38.957 65.0951 39.0763 64.7871C39.4722 63.7647 40.3095 64.427 47.2512 71.2538C53.1795 77.0842 54.4821 78.2474 55.8131 78.8985C58.3884 80.1588 60.5716 79.8928 62.1347 78.1285C63.5776 76.4998 63.7613 74.2253 62.6279 72.0156C62.2584 71.2951 59.2019 68.028 53.746 62.5224C43.222 51.902 40.431 49.5543 36.6758 48.162C34.9934 47.538 31.6752 46.9036 30.0946 46.9036H28.8971V46.044C28.8971 44.8391 29.5725 41.7334 30.1556 40.2569C31.0235 38.0591 32.7566 35.6023 34.7512 33.7431C41.3934 27.5506 51.7469 27.2871 58.7248 33.1327C62.6208 36.3964 64.7935 40.7706 65.0768 45.9205C65.1988 48.1401 65.2867 48.5262 65.7797 49.0148C66.5599 49.788 67.6567 49.7528 68.3067 48.9337C69.32 47.6572 68.8254 42.6665 67.3129 38.9061C64.8111 32.6869 59.6865 28.0304 53.2638 26.1406C50.3554 25.2847 45.619 25.0539 42.805 25.6305C35.375 27.1534 29.4858 32.0491 26.688 39.0291C25.9193 40.9466 25.2238 44.1814 25.2238 45.8382V46.9036H23.9993H22.7749V45.8433C22.7749 45.2601 22.9389 43.8501 23.1397 42.7097C24.7585 33.5106 31.6842 26.0467 40.897 23.5732C42.694 23.0907 43.547 23.0155 47.1415 23.0218C52.0023 23.0303 53.7626 23.398 57.448 25.1745C64.0843 28.3736 68.5861 33.8101 70.5829 41.0366C70.9794 42.4714 71.1144 43.7635 71.1709 46.6609C71.2111 48.7299 71.2486 50.5549 71.2537 50.7165C71.2733 51.3186 72.3285 52.0001 73.2415 52.0001C75.1036 52.0001 75.6561 50.8379 75.6644 46.9036C75.6806 39.2815 72.6645 32.16 67.1324 26.7566C64.4945 24.1802 62.6406 22.8738 59.386 21.2978C47.3773 15.4829 32.3449 19.058 24.2966 29.6429C20.9027 34.1064 19.1877 38.4505 18.56 44.1734L18.2605 46.9036H17.2117H16.1628L16.1635 45.2655C16.1662 39.5062 19.0297 32.1629 23.1468 27.357C27.9744 21.7215 33.7925 18.2916 41.2712 16.6719C43.9334 16.0955 50.0464 16.096 52.774 16.6731C61.3319 18.4838 68.2837 23.073 72.8401 29.92C76.7069 35.731 78.5069 42.6942 77.8704 49.3822C77.6654 51.5351 77.6845 52.1443 77.9786 52.8417C78.8064 54.8049 81.2242 55.2046 82.6891 53.6205C83.628 52.6054 83.855 51.1322 83.8367 46.1756C83.8222 42.2904 83.2012 38.7119 81.8898 34.9565C77.7852 23.2034 67.8921 14.2731 55.7247 11.3378C51.9565 10.4289 47.6548 10.1091 43.8967 10.4585C38.7317 10.9388 35.5177 11.8361 30.7338 14.1333C20.706 18.9485 13.662 27.8013 11.0314 38.8949C10.6559 40.478 10.0601 45.1936 10.0427 46.7216C10.0415 46.8216 9.69352 46.9036 9.26912 46.9036H8.49771L8.64342 44.2947C9.01958 37.5569 11.5184 30.5726 15.6113 24.8189C17.6388 21.9688 21.964 17.6698 24.8114 15.6749C37.9622 6.46073 55.444 6.34473 68.853 15.3827C72.0702 17.5511 76.8512 22.3217 78.9249 25.4325C81.6851 29.5732 83.6944 34.2469 84.7648 39.0162C85.3606 41.6717 85.6339 48.4316 85.2735 51.5977C84.9945 54.0479 85.175 55.0167 86.1178 56.127C86.9882 57.1521 88.0388 57.638 89.3852 57.638C91.1354 57.638 92.3011 56.9014 93.1227 55.2764C93.995 53.5516 94.2989 45.15 93.6561 40.5413C90.8942 20.7466 75.8611 4.98761 55.9576 1.0228C53.7633 0.585964 52.2644 0.473842 47.8762 0.419237C44.913 0.382348 42.158 0.401278 41.7539 0.461465ZM46.6243 33.0655C45.1248 33.6659 44.5643 35.879 45.6109 37.0655C47.4109 39.1055 50.7235 37.4691 50.0684 34.8633C49.6893 33.355 48.0449 32.4966 46.6243 33.0655ZM39.4867 33.9183C38.5855 34.3066 38.0952 35.2813 38.3318 36.2151C38.4175 36.5537 39.8749 38.2156 41.5707 39.9086C43.2663 41.6014 44.7727 43.1851 44.9181 43.4283C45.0638 43.672 45.2372 45.7021 45.3048 47.9564L45.4273 52.043L46.1144 52.6282C47.0972 53.4655 48.3209 53.4169 49.2419 52.5042L49.9577 51.7948V48.3161C49.9577 46.403 50.0618 44.478 50.1889 44.0384C50.3361 43.53 51.5833 42.0108 53.6174 39.8618C56.4062 36.9158 56.8147 36.3801 56.8147 35.6691C56.8147 34.6408 55.9448 33.7759 54.881 33.746C54.4591 33.7341 54.0636 33.7683 54.0024 33.822C53.9409 33.8758 52.6405 35.1485 51.1131 36.65C47.4983 40.2035 47.7065 40.1984 44.3208 36.815C42.1898 34.6852 40.7604 33.513 40.358 33.5652C40.3176 33.5705 39.9255 33.7293 39.4867 33.9183ZM62.5184 48.6039C62.0865 48.7007 61.0452 49.3679 60.2047 50.0865C56.3283 53.4019 51.5427 57.6416 51.4768 57.8188C51.3615 58.1292 54.1598 61.0092 54.4995 60.9298C55.1631 60.7745 64.8726 52.1731 65.0937 51.5446C65.6545 49.9503 64.155 48.2382 62.5184 48.6039ZM67.8632 51.7771C67.5419 51.9045 66.0542 53.0745 64.5572 54.3775C62.4447 56.2156 57.3471 60.6088 55.7477 61.9695C55.6321 62.0678 56.5864 63.215 57.8682 64.5187L60.1991 66.8893L64.5679 63.1597C71.8226 56.9662 71.9678 56.8301 72.2604 55.9513C73.1443 53.2978 70.458 50.7481 67.8632 51.7771ZM76.2331 55.2696C75.8011 55.4557 74.4236 56.5182 73.1719 57.6307C71.9201 58.7432 68.7717 61.4936 66.1756 63.7431L61.4554 67.8329L62.5806 69.025C64.1056 70.6405 64.9933 72.6027 65.0075 74.3879C65.0136 75.1553 65.0523 75.7831 65.094 75.7834C65.1354 75.7834 68.218 73.1351 71.9443 69.8984C75.6706 66.6617 79.2567 63.5764 79.914 63.0424C81.3236 61.897 82.0385 60.6398 82.0385 59.3062C82.0385 57.455 81.1924 56.16 79.4671 55.371C78.3039 54.8391 77.3052 54.8078 76.2331 55.2696ZM0 104.429C0 110.852 0.115833 110.974 6.24472 110.974C12.3736 110.974 12.4894 110.852 12.4894 104.429V100.295H11.0262H9.56299L9.49564 104.239L9.4283 108.183H6.24472H3.06114L2.99379 104.239L2.92645 100.295H1.46322H0V104.429ZM24.2442 101.145V101.994H25.4687H26.6931V101.145V100.295H25.4687H24.2442V101.145ZM28.2092 105.049L28.2849 109.803L28.9721 110.388C29.588 110.913 29.887 110.974 31.8615 110.974C35.2643 110.974 35.744 110.577 35.7506 107.758L35.7541 106.362H34.5296H33.3052V107.576V108.789H31.9583H30.6114V106.605V104.421H33.1827H35.7541V103.45V102.479H33.1827H30.6114V101.387V100.295H29.3725H28.1333L28.2092 105.049ZM53.1413 101.387V102.479H50.9211C47.2157 102.479 46.7874 102.927 46.7795 106.806C46.7742 109.529 46.7808 109.561 47.4966 110.271L48.219 110.987L51.8434 110.919L55.4678 110.852L55.5339 105.574L55.5998 100.295H54.3707H53.1413V101.387ZM58.2892 100.466C58.2921 100.572 59.0452 102.953 59.9628 105.756L61.6312 110.852L63.485 110.923L65.3389 110.993L66.2601 108.253L67.1814 105.513L68.0789 108.183L68.9765 110.852L70.9157 110.92L72.855 110.987L73.9524 107.704L75.0498 104.421H78.1768H81.3038V105.028C81.3038 105.63 81.2866 105.634 79.1113 105.634C75.7039 105.634 75.1627 106.11 75.4242 108.873C75.6174 110.914 75.7511 110.974 80.1442 110.974H83.7889L83.7096 107.434L83.6302 103.895L82.8304 103.187C82.0336 102.482 82.0191 102.479 78.8345 102.479C75.9052 102.479 75.649 102.444 75.7656 102.055C75.8356 101.821 75.9652 101.33 76.0536 100.963L76.2142 100.295H74.6249H73.0355L72.0163 103.45C71.456 105.185 70.9544 106.605 70.9023 106.605C70.8501 106.605 70.3332 105.181 69.7533 103.44L68.6992 100.275L67.2551 100.346L65.811 100.417L64.6622 103.539L63.5137 106.661L62.4134 103.539L61.3128 100.417L59.7984 100.344C58.9656 100.305 58.2865 100.359 58.2892 100.466ZM14.7674 102.725C13.7286 103.14 13.469 104.131 13.469 107.685V110.974H14.6935H15.9179V107.697V104.421H18.1219H20.3259V107.697V110.974H21.5504H22.7749L22.7734 108.001C22.7726 106.365 22.6583 104.621 22.5192 104.125C22.1102 102.666 21.616 102.477 18.251 102.495C16.631 102.503 15.0635 102.607 14.7674 102.725ZM37.7881 103.065C37.1159 103.637 37.0993 103.714 37.0192 106.582L36.9376 109.514L37.6738 110.244L38.4102 110.974H41.9799H45.5497V110.003V109.032H42.4886H39.4274V108.425V107.819H42.5138H45.5999L45.5137 105.735C45.4336 103.803 45.3773 103.608 44.7401 103.065C44.1007 102.52 43.8592 102.479 41.2641 102.479C38.67 102.479 38.4273 102.52 37.7881 103.065ZM84.9771 105.588C84.9771 109.676 84.9203 109.603 88.2014 109.76L90.7321 109.881L90.8095 110.549L90.8871 111.216H87.932H84.9771V112.308V113.4H88.4245H91.8718L92.5876 112.691L93.3034 111.982V107.231V102.479H92.079H90.8545V105.149V107.819H89.2889C88.2584 107.819 87.6859 107.715 87.6134 107.515C87.5529 107.348 87.5137 106.147 87.526 104.846L87.5485 102.48L86.2628 102.479H84.9771V105.588ZM24.2442 106.969V110.974H25.4687H26.6931V106.969V102.965H25.4687H24.2442V106.969ZM43.1008 105.008C43.1008 105.571 43.0219 105.599 41.2636 105.676L39.4262 105.756L39.4269 105.088L39.4274 104.421H41.2641C43.044 104.421 43.1008 104.439 43.1008 105.008ZM53.0189 106.726V108.911L51.121 108.982L49.2231 109.052V106.726V104.401L51.121 104.471L53.0189 104.542V106.726ZM81.3038 108.436C81.3038 109.047 81.2859 109.053 79.5283 108.982C77.8991 108.916 77.7465 108.866 77.6745 108.365C77.5993 107.84 77.6679 107.819 79.45 107.819C81.2727 107.819 81.3038 107.829 81.3038 108.436Z" fill="white"/>
</svg>
